<svg xmlns="http://www.w3.org/2000/svg" width="64" height="64" viewBox="0 0 64 64"><g transform="translate(-120 -5530)"><circle cx="32" cy="32" r="32" transform="translate(120 5530)" fill="teal"/><g transform="translate(130.586 5540.586)"><path d="M167.035,5547.139l-5.584,5.583a10.085,10.085,0,0,1-.851,13.311l-4.6,4.605a10.1,10.1,0,0,1-14.288-14.289l4.6-4.6a10.1,10.1,0,0,1,13.305-.856l5.583-5.584a21.172,21.172,0,1,0,1.835,1.835Z" transform="translate(-130 -5540)" fill="#fff"/><path d="M150.483,5559.871a1.3,1.3,0,0,0,1.833,0l3.772-3.771a1.3,1.3,0,0,0-1.835-1.834l-3.771,3.772A1.3,1.3,0,0,0,150.483,5559.871Z" transform="translate(-128.822 -5539.186)" fill="#fff"/></g></g></svg>