<svg xmlns="http://www.w3.org/2000/svg" xmlns:xlink="http://www.w3.org/1999/xlink" width="46.071" height="38.017" viewBox="0 0 46.071 38.017">
  <defs>
    <linearGradient id="linear-gradient" y1="0.5" x2="1" y2="0.5" gradientUnits="objectBoundingBox">
      <stop offset="0" stop-color="#b27229"/>
      <stop offset="0.296" stop-color="#fbd05a"/>
      <stop offset="0.64" stop-color="#f5ee98"/>
      <stop offset="0.882" stop-color="#fbc53e"/>
      <stop offset="1" stop-color="#a26227"/>
    </linearGradient>
  </defs>
  <path id="Path_490" data-name="Path 490" d="M320.673,247.083a12,12,0,0,1-3.182,8.42,10.1,10.1,0,0,1-7.716,3.464,12.5,12.5,0,0,1-4.28-.93,17.4,17.4,0,0,1-9.744,2.9,15.782,15.782,0,0,1-7.955-2.014,12.108,12.108,0,0,1-5.14-5.42,11.986,11.986,0,0,1-5.914-4.084,10.5,10.5,0,0,1-2.14-6.533q0-6.589,5.89-11.11a23.04,23.04,0,0,1,14.456-4.519,32.472,32.472,0,0,1,9.617,1.492,28.53,28.53,0,0,1,4.365-4.154q2.225-1.674,3.38-1.675.984,0,.985.929,0,1.662-5.66,6.055a23.92,23.92,0,0,1,9.5,7.336A16.034,16.034,0,0,1,320.673,247.083Zm-16.446-17.939a26.2,26.2,0,0,0-7.941-1.267,21.49,21.49,0,0,0-13.968,4.928q-6.055,4.929-6.054,11.349,0,6.082,6.054,8.589a9.9,9.9,0,0,1-.647-3.464q0-6.758,8.56-11.6a116.42,116.42,0,0,1,11.518-4.787Q302.679,231.314,304.227,229.144Zm-2.985,4.731q-1.013.507-3.013,1.521-14,7.069-14,16.08a9.644,9.644,0,0,0,.226,1.915q1.716.169,2.309.169a15.962,15.962,0,0,0,4.083-.592,6.773,6.773,0,0,1-.873-3.21,9.441,9.441,0,0,1,2.535-6.28,14.234,14.234,0,0,1,6.533-4.224A37.927,37.927,0,0,1,301.242,233.875Zm2.7,23.43a8.836,8.836,0,0,1-2.084-1.633,10.25,10.25,0,0,1-4.2.986,7.753,7.753,0,0,1-6.477-3.211,16.4,16.4,0,0,1-4.365.676,17.883,17.883,0,0,1-2.2-.169,9.284,9.284,0,0,0,4.042,4.59,12.428,12.428,0,0,0,6.519,1.746A15.7,15.7,0,0,0,303.946,257.3Zm-5.069-17.431a13.5,13.5,0,0,0-5.435,4.28,9.6,9.6,0,0,0-2.084,5.829,7.312,7.312,0,0,0,.535,2.648,19.451,19.451,0,0,0,6.28-3.415,16.072,16.072,0,0,1-.338-3.048A22.383,22.383,0,0,1,298.877,239.874Zm2.591,15.458a13.64,13.64,0,0,1-3.183-5.588,23.552,23.552,0,0,1-6.11,3.393q1.661,3.015,5.885,3.014A8.125,8.125,0,0,0,301.468,255.332Zm4.462-15.853a12.069,12.069,0,0,0-2.963-.394,11.5,11.5,0,0,0-2.879.394,26.739,26.739,0,0,0-.817,7.027q0,.985.056,1.717A28.382,28.382,0,0,0,305.93,239.479Zm4.943,7.041a7.058,7.058,0,0,0-4.323-6.815,30,30,0,0,1-7.166,9.166,10.662,10.662,0,0,0,2.653,6.181q3.807-2.343,3.893-5.505c0-.525.188-.789.564-.789q.646,0,.646.676a5.488,5.488,0,0,1-1.45,3.063,11.57,11.57,0,0,1-3.223,2.893,15.037,15.037,0,0,0,1.662,1.38l.281.2a18.7,18.7,0,0,0,4.709-5.04A10.264,10.264,0,0,0,310.873,246.52Zm8.42-.592a14.438,14.438,0,0,0-3.154-9.039,22.5,22.5,0,0,0-8.955-6.646,48.572,48.572,0,0,1-4.9,3.069,27.82,27.82,0,0,0-2.084,5.576,16.118,16.118,0,0,1,2.767-.282,10.039,10.039,0,0,1,3.132.479,14.568,14.568,0,0,0,1.38-4.125q.114-.789.508-.789c.243,0,.366.151.366.451a14.211,14.211,0,0,1-1.578,4.688,7.951,7.951,0,0,1,5.084,7.942q0,6.14-5.829,10.447a8.17,8.17,0,0,0,3.041.592,9.077,9.077,0,0,0,7.209-3.647A13.244,13.244,0,0,0,319.293,245.928Zm-12.7-15.911q-.93-.337-1.774-.619a24.069,24.069,0,0,0-2.14,3.041A32,32,0,0,0,306.593,230.017Zm6.167-6.167a.4.4,0,0,0-.45-.45q-.9,0-3.056,1.661a29.721,29.721,0,0,0-4.1,3.858l.225.113.591.169.733.366.366.112a26.806,26.806,0,0,0,3.942-3.308Q312.76,224.583,312.76,223.85Z" transform="translate(-274.602 -222.921)" fill="url(#linear-gradient)"/>
</svg>
