<svg xmlns="http://www.w3.org/2000/svg" xmlns:xlink="http://www.w3.org/1999/xlink" width="50.389" height="6.571" viewBox="0 0 50.389 6.571">
  <defs>
    <linearGradient id="linear-gradient" x1="0.025" y1="0.344" x2="0.975" y2="0.656" gradientUnits="objectBoundingBox">
      <stop offset="0" stop-color="#b27229"/>
      <stop offset="0.296" stop-color="#fbd05a"/>
      <stop offset="0.64" stop-color="#f5ee98"/>
      <stop offset="0.882" stop-color="#fbc53e"/>
      <stop offset="1" stop-color="#a26227"/>
    </linearGradient>
    <linearGradient id="linear-gradient-2" x1="0.025" y1="0.344" x2="0.975" y2="0.656" xlink:href="#linear-gradient"/>
    <linearGradient id="linear-gradient-3" x1="0.025" y1="0.344" x2="0.975" y2="0.656" xlink:href="#linear-gradient"/>
    <linearGradient id="linear-gradient-5" x1="0.025" y1="0.344" x2="0.975" y2="0.656" xlink:href="#linear-gradient"/>
  </defs>
  <g id="Group_948" data-name="Group 948" transform="translate(-395.75 590.057) rotate(-90)">
    <path id="Path_11" data-name="Path 11" d="M590.057,442.854a3.285,3.285,0,1,1-3.285-3.285A3.285,3.285,0,0,1,590.057,442.854Z" fill="url(#linear-gradient)"/>
    <path id="Path_12" data-name="Path 12" d="M590.056,431.9a3.285,3.285,0,1,1-3.285-3.285A3.285,3.285,0,0,1,590.056,431.9Z" fill="url(#linear-gradient-2)"/>
    <path id="Path_13" data-name="Path 13" d="M590.057,420.945a3.285,3.285,0,1,1-3.285-3.285A3.285,3.285,0,0,1,590.057,420.945Z" fill="url(#linear-gradient-3)"/>
    <path id="Path_14" data-name="Path 14" d="M590.057,409.99a3.285,3.285,0,1,1-3.285-3.285A3.285,3.285,0,0,1,590.057,409.99Z" fill="url(#linear-gradient)"/>
    <path id="Path_15" data-name="Path 15" d="M590.057,399.035a3.285,3.285,0,1,1-3.285-3.285A3.286,3.286,0,0,1,590.057,399.035Z" fill="url(#linear-gradient-5)"/>
  </g>
</svg>
