<svg xmlns="http://www.w3.org/2000/svg" xmlns:xlink="http://www.w3.org/1999/xlink" width="44.1" height="86.973" viewBox="0 0 44.1 86.973">
  <defs>
    <clipPath id="clip-path">
      <path id="Path_1834" data-name="Path 1834" d="M594.1,40.8a9.524,9.524,0,0,0-.6,4.1,11.733,11.733,0,0,0,1.4,4.1c.1.3.3.7.4,1V46.2a2.921,2.921,0,0,1-.2-.9,7.84,7.84,0,0,1,.2-3.4V38.4a8.989,8.989,0,0,0-1.2,2.4M554.3,81.9a10.145,10.145,0,0,0,2.5.2c-1.2,1.2-2.3,2.3-3.5,3.4.4-1.2.7-2.4,1-3.6m5.3-.7a6.2,6.2,0,0,0,.9,3.2c-1.7.4-3.5.8-5.2,1.2a59.733,59.733,0,0,0,4.3-4.4m3.7-6.3c-1.5,1.8-3.1,3.6-4.7,5.4l-.9.3h-.4a.749.749,0,0,0-.5.1h-1.5a4.329,4.329,0,0,1-.5-.1c.5-1.7.9-3.4,1.5-5.1a17.7,17.7,0,0,0,2.3.1,26.73,26.73,0,0,0,4.7-.7m-2.2,5.4a.367.367,0,0,1,.1-.3c.1-.2.1-.4.2-.6v-.2c1.9-2.2,3.8-4.4,5.7-6.7a19.345,19.345,0,0,0,.3,4.1,7.714,7.714,0,0,0,1,2.9,8.321,8.321,0,0,0,1.3,1.8,25.01,25.01,0,0,1-4.8,1.8c-1,.3-2,.5-3,.8,0-.1,0-.1-.1-.2a2.186,2.186,0,0,0-.3-.5.1.1,0,0,0-.1-.1h0c0-.1-.1-.2-.1-.3-.1-.2-.1-.4-.2-.6a.367.367,0,0,0-.1-.3h0V80.5c.1-.1.1-.1.1-.2m9.5-14.4c-.8,1-1.6,2-2.3,2.9-1,1.3-2.1,2.5-3.1,3.8h-.1a15.776,15.776,0,0,1-8.3,1.2,20.532,20.532,0,0,1,3.9-6.9c.3-.3.5-.6.8-.9a25.952,25.952,0,0,0,4,.3,15.065,15.065,0,0,0,5.1-.4m-.9,13a7.321,7.321,0,0,1-.8-2.5c-.3-1.8-.7-3.9.3-5.6a.846.846,0,0,0,0-.7c2.2-2.7,4.4-5.5,6.5-8.3A20.511,20.511,0,0,0,577.3,73a35.751,35.751,0,0,1-3.4,5.2,13.723,13.723,0,0,1-2.9,2.5,10.152,10.152,0,0,1-1.3-1.8m8.2-22.6c-1.9,2.6-3.9,5.2-5.9,7.8a22.481,22.481,0,0,1-9.3.7c.6-.6,1.2-1.3,1.8-2a29.12,29.12,0,0,0,2.6-4.5,2.177,2.177,0,0,1,.5-.8c.1.1.3.1.4.2a14.769,14.769,0,0,0,2.1.1,25.7,25.7,0,0,0,7.8-1.5m-.4,3.6a.44.44,0,0,0-.1-.5c1.1-1.5,2.1-2.9,3.2-4.4a1.38,1.38,0,0,0,.3-.4c.1-.1.1-.2.2-.3.3-.4.6-.9.9-1.3a24.524,24.524,0,0,0,2.7,8.3c-1.2,3.2-3.7,5.5-5.5,8.3a15.049,15.049,0,0,0-1,1.7,18.51,18.51,0,0,1-.7-11.4m5.8-8.4c0-.1,0-.1-.1-.2.4-.6.9-1.3,1.3-1.9a19.968,19.968,0,0,1,.7,9.7,24.962,24.962,0,0,1-1.9-7.6m-15,4.7a13.387,13.387,0,0,1,5.5-5.3,23.449,23.449,0,0,1,9.1-1.8l-1.8,2.7-1.5,2.1a21.536,21.536,0,0,1-9.6,2.3h-1.7m9.9-16.8h0m-.1-.1h0m.2-.1h0m-.1,0h0m0,0h0m1.1-1.6h0m-.2-.1h0m1.4-.9c-.1-.1-.3-.2-.4-.3a2.464,2.464,0,0,0-1.7-.2,2.892,2.892,0,0,0-2.2,2.3,2.824,2.824,0,0,0,.2,1.8,2.765,2.765,0,0,0,1.3,1.1,2.059,2.059,0,0,0,1.7-.2,3.916,3.916,0,0,0,1.2-1.4,2.662,2.662,0,0,0,.3-1.2.55.55,0,0,0,.3-.5,42.519,42.519,0,0,0,13.1-6.6c-3.3,5.5-6.7,10.9-10.3,16.3a32.753,32.753,0,0,0-9.3,1.4,13.913,13.913,0,0,0-7.5,6c-1,1.6-1.8,3.4-2.7,5a26.331,26.331,0,0,1-3.6,4.5,23.717,23.717,0,0,0-5.7,9.5c-1.5,4.2-2.3,8.6-3.9,12.7V87a.882.882,0,0,0,.8.9.972.972,0,0,0,.9-.1c.1-.1.2-.1.2-.2,3.9-.9,7.8-1.8,11.7-2.8a27.463,27.463,0,0,0,6.2-2.4.758.758,0,0,0,.4-.2,14.8,14.8,0,0,0,2.9-2.2c2.5-2.6,4-5.9,5.8-8.9,2-3.3,5-5.9,6.2-9.6,1.4-4.2.9-9-.5-13.2a1.38,1.38,0,0,0-.3-.4c3.2-4.8,6.2-9.7,9.2-14.5l.6-.9V28.6a41.471,41.471,0,0,1-14.9,8m-11-16.4c2.8-.7,5.5-1.6,8.2-2.5a18.2,18.2,0,0,0-1.7,4.4,16.3,16.3,0,0,1-6.5-1.9m8.1,2.1h-.1A17.194,17.194,0,0,1,580,17a117.15,117.15,0,0,0,12.6-5.5,21.051,21.051,0,0,0-1.8,8.6v.1a26,26,0,0,1-4.6,1.2,38.478,38.478,0,0,1-8.2,1.1c-.2-.2-.3-.2-.4-.2M574.7,8.9c1.7,2.7,4.4,4.3,7.2,5.7l-2.4.9a1.421,1.421,0,0,0-.6.2.1.1,0,0,0-.1.1q-4.65,1.65-9.6,3a22.477,22.477,0,0,1,5.5-9.9m1.2-1c.2-.2.4-.3.6-.5A18.959,18.959,0,0,1,582.6,5l.1.1A19.124,19.124,0,0,0,595,8.2a105.72,105.72,0,0,1-11.2,5.5c-3-1.3-6.2-2.8-7.9-5.8M585,2.8c-2.8.9-5.8,1.4-8.4,2.9a17.08,17.08,0,0,0-5.4,5.3,29.028,29.028,0,0,0-3.6,8.5v.1a.755.755,0,0,0,.1,1.2c5.1,3.6,11.6,3.3,17.4,2.1,2.8-.5,5.9-1,8.4-2.5a8.962,8.962,0,0,0,1.9-1.5V16.8c-.5.5-.9,1-1.5,1.5a6.528,6.528,0,0,1-1.5,1,20.138,20.138,0,0,1,2.4-9v-.1l.6-.3v-3a17.932,17.932,0,0,1-10.8-2.4c2.5-.8,5-2,7.7-2.1a15.526,15.526,0,0,1,3.1.3V1.2a8.752,8.752,0,0,0-1.6-.2h-.9c-2.9-.1-5.4.9-7.9,1.8"/>
    </clipPath>
    <linearGradient id="linear-gradient" x1="8.553" y1="6.454" x2="8.56" y2="6.454" gradientUnits="objectBoundingBox">
      <stop offset="0" stop-color="#b27229"/>
      <stop offset="0.296" stop-color="#fbd05a"/>
      <stop offset="0.64" stop-color="#f5ee98"/>
      <stop offset="0.882" stop-color="#fbc53e"/>
      <stop offset="1" stop-color="#a26227"/>
    </linearGradient>
    <clipPath id="clip-path-2">
      <path id="Path_1836" data-name="Path 1836" d="M578.3,39.2h0"/>
    </clipPath>
  </defs>
  <g id="Aset_bunga_gold_pojok_kanan_atas-02" data-name="Aset bunga gold pojok kanan atas-02" transform="translate(-551.3 -0.993)">
    <g id="Group_943" data-name="Group 943">
      <g id="Group_942" data-name="Group 942" clip-path="url(#clip-path)">
        <path id="Path_1833" data-name="Path 1833" d="M569.4-20.8,638.2,37,577,109.8,508.2,52.1Z" fill="url(#linear-gradient)"/>
      </g>
    </g>
    <g id="Group_945" data-name="Group 945">
      <g id="Group_944" data-name="Group 944" clip-path="url(#clip-path-2)">
        <path id="Path_1835" data-name="Path 1835" d="M578.3,39.2Z" fill="#fff"/>
      </g>
    </g>
  </g>
</svg>
