<svg xmlns="http://www.w3.org/2000/svg" xmlns:xlink="http://www.w3.org/1999/xlink" width="117.697" height="29.319" viewBox="0 0 117.697 29.319">
  <defs>
    <clipPath id="clip-path">
      <circle id="SVGID" cx="12.13" cy="12.13" r="12.13" fill="none" stroke="#707070" stroke-miterlimit="10" stroke-width="0.25"/>
    </clipPath>
    <clipPath id="clip-path-2">
      <circle id="SVGID-2" data-name="SVGID" cx="12.408" cy="12.408" r="12.408" fill="none"/>
    </clipPath>
    <linearGradient id="linear-gradient" y1="0.5" x2="1" y2="0.5" gradientUnits="objectBoundingBox">
      <stop offset="0" stop-color="#873f16"/>
      <stop offset="0.52" stop-color="#ffdf9e"/>
      <stop offset="1" stop-color="#873f16"/>
    </linearGradient>
    <linearGradient id="linear-gradient-2" x1="0" y1="0.5" x2="1" y2="0.5" xlink:href="#linear-gradient"/>
  </defs>
  <g id="Group_964" data-name="Group 964" transform="translate(-795.576 -963.25)">
    <g id="Group_963" data-name="Group 963" transform="translate(795.951 965.477)">
      <g id="Group_961" data-name="Group 961" transform="translate(0 0)">
        <g id="Group_252" data-name="Group 252">
          <g id="Group_215" data-name="Group 215" transform="translate(60.743 0.049)">
            <g id="Group_212" data-name="Group 212">
              <g id="Group_209" data-name="Group 209" transform="translate(0.278 0.277)">
                <g id="Group_208" data-name="Group 208" clip-path="url(#clip-path)">
                  <g id="Group_207" data-name="Group 207" transform="translate(2.024 3.573)">
                    <g id="Group_206" data-name="Group 206">
                      <g id="Group_199" data-name="Group 199">
                        <g id="Group_192" data-name="Group 192" transform="translate(6.976)" opacity="0.5">
                          <path id="Path_518" data-name="Path 518" d="M962.115,733.416a1.505,1.505,0,0,0-1.107-1.451.975.975,0,0,0,.061-.33,1,1,0,0,0-1-1,.984.984,0,0,0-.484.131,1.606,1.606,0,0,0-3.069.664,1.674,1.674,0,0,0,.017.22.841.841,0,1,0-1.2,1.161,1.292,1.292,0,0,0,1.422,2.14.917.917,0,0,0,.847.565.908.908,0,0,0,.425-.109,1,1,0,0,0,1.791.056.862.862,0,0,0,.18.019.883.883,0,0,0,.825-.575A1.5,1.5,0,0,0,962.115,733.416Z" transform="translate(-954.857 -729.822)" fill="none" stroke="#707070" stroke-miterlimit="10" stroke-width="0.25"/>
                        </g>
                        <g id="Group_193" data-name="Group 193" transform="translate(6.477 11.111)" opacity="0.5">
                          <path id="Path_519" data-name="Path 519" d="M961.754,741.5a1.508,1.508,0,0,0-1.109-1.453.969.969,0,0,0,.061-.329,1,1,0,0,0-1.487-.872,1.606,1.606,0,0,0-3.069.666,1.447,1.447,0,0,0,.018.219.842.842,0,1,0-1.2,1.162,1.292,1.292,0,0,0,.823,2.287,1.274,1.274,0,0,0,.6-.149.916.916,0,0,0,.847.567.906.906,0,0,0,.425-.109,1,1,0,0,0,1.791.056.959.959,0,0,0,.18.018.882.882,0,0,0,.825-.574A1.507,1.507,0,0,0,961.754,741.5Z" transform="translate(-954.494 -737.9)" fill="none" stroke="#707070" stroke-miterlimit="10" stroke-width="0.25"/>
                        </g>
                        <g id="Group_197" data-name="Group 197" transform="translate(0 0.608)">
                          <g id="Group_196" data-name="Group 196">
                            <g id="Group_195" data-name="Group 195">
                              <path id="Path_520" data-name="Path 520" d="M955.178,751.142a13.956,13.956,0,0,1-4.128-.626l-.09-.027.029-.09c.047-.148.1-.3.146-.444.012-.036.023-.083.037-.132a1.173,1.173,0,0,1,.125-.345l.776-2.468q.07-.221.145-.441a10.326,10.326,0,0,0,.322-1.095,3.834,3.834,0,0,0,.089-.692,3.541,3.541,0,0,0-.424-1.789c-.08-.144-.153-.29-.223-.444s-.128-.289-.189-.436l-.071-.172c-.059-.147-.122-.3-.193-.466a4.638,4.638,0,0,1-.23-.714c-.091-.352-.169-.715-.234-1.08-.029-.166-.048-.338-.066-.5-.021-.194-.043-.392-.081-.58a5.662,5.662,0,0,0-.542-1.414c-.066-.128-.133-.254-.2-.378-.029-.052-.062-.106-.095-.159a1.463,1.463,0,0,1-.209-.429l-.01-.049a.655.655,0,0,1-.008-.128l0-.048.008-.04a.435.435,0,0,1,.039-.109.593.593,0,0,1,.322-.271,1.225,1.225,0,0,1,.44-.077,1.279,1.279,0,0,1,.289.032,2.145,2.145,0,0,1,1.2.937,7.476,7.476,0,0,1,.642,1.087l.051.11a3.08,3.08,0,0,0,.279.507l.018-.021c.026-.028.051-.057.076-.085l.033-.043a1.736,1.736,0,0,0,.146-.23l.011-.021c.012-.023.025-.048.036-.073l.021-.049.04-.1c.01-.03.021-.06.03-.092l.026-.091.022-.08c.015-.058.029-.117.043-.175l.021-.089c.07-.3.143-.609.22-.912.1-.385.2-.781.309-1.18.033-.12.106-.377.106-.377.049-.177.1-.34.144-.5l.095-.318c.036-.121.069-.228.1-.336l.036-.132.027-.1c.017-.054.034-.116.056-.182l.045-.139.055-.153.048-.125c.021-.051.04-.1.062-.15s.041-.095.063-.142l.049-.1.027-.054.03-.056c.029-.051.059-.1.089-.149.014-.019.026-.04.04-.058l.011-.015a1.182,1.182,0,0,1,.077-.1.977.977,0,0,1,.1-.1l.044-.037.037-.029.033-.022.033-.019.015-.008.038-.018.017-.007a.511.511,0,0,1,.1-.027l.037,0h.021a.571.571,0,0,1,.085.007l.029.005a.577.577,0,0,1,.073.023.483.483,0,0,1,.1.055.89.89,0,0,1,.29.582,3,3,0,0,1,.041.477c0,.118,0,.25-.007.391a11.316,11.316,0,0,1-.21,1.557h0s-.041.257-.084.589c-.033.252-.059.49-.076.691-.011.133-.019.261-.022.374a1.311,1.311,0,0,0,.019.323.5.5,0,0,0,.146-.228l.022-.055a4.156,4.156,0,0,0,.136-.457l.008-.032c.011-.04.019-.084.029-.129a1.453,1.453,0,0,1,.094-.322l.481-1.746.1-.005-.088-.025.235-.839.16-.556c.041-.143.161-.55.161-.55l.055-.183a2.306,2.306,0,0,1,.374-.77.762.762,0,0,1,.474-.3.545.545,0,0,1,.08-.005.432.432,0,0,1,.155.026,1,1,0,0,1,.479.773,4.5,4.5,0,0,1,.014,1.242,12.8,12.8,0,0,1-.277,1.594c-.018.074-.034.146-.052.216-.151.623-.3,1.084-.3,1.094h0s-.07.341-.147.735c-.106.554-.148.842-.165.99l.017-.026a3.667,3.667,0,0,0,.252-.514c.012-.027.026-.063.04-.1,0,0,.03-.084.04-.114l.1-.308c.033-.107.067-.227.1-.355l.364-1.279.191-.655.094.007-.088-.026c.061-.2.12-.4.176-.573l.063-.191.052-.154c.023-.07.044-.128.065-.182l.037-.094.018-.044c.023-.055.047-.107.07-.155.012-.025.025-.047.037-.069s.038-.069.058-.1.03-.044.044-.065a1.1,1.1,0,0,1,.113-.133.691.691,0,0,1,.111-.094.494.494,0,0,1,.055-.036c.017-.01.036-.019.054-.027a.6.6,0,0,1,.106-.034l.022,0a.558.558,0,0,1,.067-.007h.041a.43.43,0,0,1,.068.008l.038.011a.211.211,0,0,1,.048.018l.041.026a1.08,1.08,0,0,1,.425.768,4.939,4.939,0,0,1-.106,1.693,13.438,13.438,0,0,1-.491,1.758c-.151.607-.3,1.271-.366,1.633l.094.016-.085-.034.033-.085.718-1.578.041-.085.077-.147.044-.081c.073-.131.149-.253.224-.362l.071-.1c.025-.033.05-.065.074-.1s.052-.062.078-.091a1.453,1.453,0,0,1,.161-.151.664.664,0,0,1,.206-.114l.049-.014a.358.358,0,0,1,.054-.005l.022,0a.325.325,0,0,1,.054,0,.414.414,0,0,1,.1.032l.029.015a.632.632,0,0,1,.325.689,7.8,7.8,0,0,1-.337,1.724c-.078.267-.162.532-.245.791-.043.135-.085.267-.125.4a20.561,20.561,0,0,1-2.569,5.366c-.147.22-.318.429-.483.631a4.655,4.655,0,0,0-.763,1.154,4.57,4.57,0,0,0-.238.812,12.191,12.191,0,0,0-.176,1.532c-.018.263-.039.535-.066.8l-.253,2.385-.071.01A13.906,13.906,0,0,1,955.178,751.142Z" transform="translate(-949.76 -730.239)" fill="none" stroke="#707070" stroke-miterlimit="10" stroke-width="0.25"/>
                              <g id="Group_194" data-name="Group 194">
                                <path id="Path_521" data-name="Path 521" d="M958.538,730.448a.333.333,0,0,1,.12.019.916.916,0,0,1,.424.706,4.481,4.481,0,0,1,.014,1.214,12.993,12.993,0,0,1-.276,1.583c-.017.073-.033.144-.051.215-.154.633-.3,1.088-.3,1.088s-.073.345-.148.744a4.8,4.8,0,0,0-.161,1.2h0a.13.13,0,0,0,.032-.008l.012-.007.014-.008a.292.292,0,0,0,.051-.045l.011-.014.007-.01.011-.012c.01-.014.021-.028.03-.044l.012-.018a3.943,3.943,0,0,0,.259-.528c.012-.029.026-.066.041-.109l.011-.03c.01-.026.019-.056.03-.088l.008-.025.027-.088.01-.03,0-.012.047-.153c.033-.109.069-.228.106-.356l.019-.069.015-.051c.029-.1.058-.2.088-.308l.014-.049c.041-.147.085-.3.128-.453q.045-.157.091-.318l.008-.032c.036-.122.072-.243.106-.365l.043-.146,0-.01.04-.135.005-.019c.061-.2.12-.395.176-.572l0-.012.039-.117.019-.062c.014-.041.027-.08.041-.118l.014-.041c.021-.06.041-.118.062-.171l.01-.025.026-.067.018-.043c.022-.054.045-.1.067-.15.012-.023.023-.045.036-.066s.037-.065.055-.094.027-.041.041-.06a.957.957,0,0,1,.1-.121.737.737,0,0,1,.1-.084c.017-.011.032-.022.047-.03s.032-.016.047-.023a.4.4,0,0,1,.088-.029l.016,0a.273.273,0,0,1,.055-.005h.033a.5.5,0,0,1,.055.007l.032.008a.123.123,0,0,1,.032.012l.007,0,.025.015a1,1,0,0,1,.386.707,4.953,4.953,0,0,1-.106,1.66,13.29,13.29,0,0,1-.487,1.744,13.411,13.411,0,0,0-.389,1.96h.011a.078.078,0,0,0,.052-.03.72.72,0,0,0,.109-.177l.014-.032.014-.032,0-.01.025-.06.007-.021.718-1.578.018-.037.022-.044.04-.078.036-.067.022-.04.022-.041c.061-.109.136-.232.219-.353l.034-.049.036-.048c.023-.032.048-.063.073-.094a1.136,1.136,0,0,1,.074-.087,1.39,1.39,0,0,1,.149-.14.632.632,0,0,1,.179-.1l.04-.01a.174.174,0,0,1,.039,0h.019a.172.172,0,0,1,.037,0,.206.206,0,0,1,.073.023l.025.012a.541.541,0,0,1,.278.6,7.773,7.773,0,0,1-.334,1.7c-.118.406-.25.8-.369,1.188a20.411,20.411,0,0,1-2.558,5.343,10.533,10.533,0,0,0-1.255,1.8,4.654,4.654,0,0,0-.244.828c-.155.766-.161,1.567-.243,2.34s-.164,1.542-.246,2.314a13.84,13.84,0,0,1-4.656-.1,13.2,13.2,0,0,1-1.471-.37c.047-.147.1-.3.146-.443a1.921,1.921,0,0,1,.158-.464l.034-.11c.066-.209.132-.417.2-.626l0-.006q.274-.871.547-1.741c.16-.508.356-1.019.469-1.543a3.976,3.976,0,0,0,.091-.71,3.653,3.653,0,0,0-.435-1.838c-.084-.153-.155-.3-.22-.437s-.128-.287-.187-.432c-.084-.2-.165-.409-.265-.64a4.806,4.806,0,0,1-.224-.7q-.138-.532-.232-1.073c-.063-.359-.076-.733-.149-1.088a5.628,5.628,0,0,0-.549-1.437c-.067-.129-.135-.254-.2-.38a2.536,2.536,0,0,1-.3-.567l0-.023,0-.018a.619.619,0,0,1-.007-.11l0-.038,0-.017,0-.021a.374.374,0,0,1,.03-.084.5.5,0,0,1,.274-.226,1.107,1.107,0,0,1,.406-.072,1.147,1.147,0,0,1,.267.03,2.1,2.1,0,0,1,1.143.9,7.374,7.374,0,0,1,.633,1.073,3.158,3.158,0,0,0,.406.715l.01-.01c.029-.027.058-.055.085-.085s.052-.059.078-.091l.037-.047a1.816,1.816,0,0,0,.151-.241l.011-.021c.014-.025.026-.051.039-.078l.022-.051.021-.054.021-.052c.011-.033.022-.065.032-.1l0-.011.016-.055.008-.026.022-.083c.015-.059.029-.118.043-.177l.021-.088c.07-.305.144-.609.22-.912.1-.393.2-.787.31-1.177.033-.12.066-.239.1-.358l.008-.033c.047-.164.094-.326.142-.488l.011-.039c.027-.094.055-.186.082-.278l0-.014c.033-.107.065-.215.1-.322l0-.01.022-.085,0-.014.011-.038.012-.045.006-.019.005-.019c.016-.054.034-.115.056-.182l.016-.051.029-.087.036-.1.011-.029c.011-.029.021-.056.032-.085l.023-.059c.019-.047.039-.095.061-.146s.04-.092.062-.138l.033-.066.014-.029.027-.055.03-.054c.028-.049.057-.1.087-.144.011-.018.023-.036.036-.052l.022-.03a.885.885,0,0,1,.062-.078,1.2,1.2,0,0,1,.089-.095l.018-.015.021-.018.034-.026.027-.019.005,0,.029-.018.008,0,.03-.015.018-.007a.4.4,0,0,1,.08-.022l.027,0h.033l.052.005.026.006a.339.339,0,0,1,.056.018.325.325,0,0,1,.077.044.812.812,0,0,1,.255.524,2.972,2.972,0,0,1,.04.462c0,.125,0,.255-.007.385a10.883,10.883,0,0,1-.209,1.542s-.041.26-.085.6c-.028.216-.056.462-.076.693-.011.136-.019.267-.022.381-.006.239.012.41.073.424h.022l.028,0c.087-.023.164-.155.22-.29l.023-.058a4.5,4.5,0,0,0,.147-.5,2.392,2.392,0,0,1,.12-.442l.037-.136.021-.074c.027-.1.056-.208.088-.319l.034-.127.023-.087.043-.154.045-.161.038-.139.039-.142.04-.142c.008-.032.018-.063.026-.1l.028-.095.026-.1,0-.015.05-.176c.027-.1.053-.193.081-.287l.014-.052.026-.089.026-.095.04-.139c.029-.1.056-.2.084-.3s.051-.175.074-.259c.041-.143.081-.277.117-.4l.033-.11.019-.065.012-.043.016-.054.018-.06a2.184,2.184,0,0,1,.358-.739.661.661,0,0,1,.417-.271.378.378,0,0,1,.066-.005m0-.184a.527.527,0,0,0-.094.007.845.845,0,0,0-.534.337,2.411,2.411,0,0,0-.389.8l-.011.036-.007.023-.016.056-.005.014-.007.025-.008.026-.012.043-.021.07-.011.039c-.037.125-.077.26-.118.4-.018.065-.037.131-.056.2l-.018.062-.019.066-.065.23-.025.085-.015.055-.016.059-.01.034-.021.07-.005.021-.014.048-.081.29-.025.089-.024.088,0,.016-.028.094-.011.041-.015.055-.023.085,0,.011-.04.144-.015.049-.025.091-.039.139-.044.16-.014.052-.029.1-.023.088-.022.077-.014.051c-.03.11-.061.217-.088.319l-.019.072-.007.026-.026.1a1.6,1.6,0,0,0-.1.334c-.008.044-.016.087-.027.125l-.008.032a4.2,4.2,0,0,1-.132.447l-.01.023v-.028c0-.1.01-.226.022-.37.017-.2.043-.436.076-.685.039-.306.077-.549.083-.586a11.172,11.172,0,0,0,.212-1.567c.007-.143.01-.276.007-.4a3.187,3.187,0,0,0-.043-.492.963.963,0,0,0-.326-.64.532.532,0,0,0-.117-.066.577.577,0,0,0-.081-.026l-.041-.01a.706.706,0,0,0-.078-.007h-.051l-.043.005a.611.611,0,0,0-.117.03l-.03.012-.037.018-.01,0,0,0-.03.016-.007,0-.008.006-.033.022c-.018.014-.032.023-.045.036l-.018.014h0l-.008.007-.019.018a1.165,1.165,0,0,0-.106.11c-.023.027-.047.058-.07.089l-.012.016-.008.012c-.015.021-.029.041-.043.062-.032.051-.063.1-.092.154l-.032.056-.03.061-.017.033-.032.065c-.023.048-.044.1-.065.143s-.044.1-.063.151l-.012.032-.011.03-.023.062-.01.025-.01.027-.039.107-.029.088-.008.022-.01.03c-.022.069-.041.132-.056.187l-.007.021-.006.019-.012.045,0,.012-.008.03,0,.015-.021.077v.014c-.033.106-.065.212-.1.318l-.007.022c-.026.084-.054.177-.081.271l-.006.019-.005.019c-.048.164-.095.326-.142.49l0,.015-.005.019-.1.357c-.11.4-.215.8-.311,1.182-.077.307-.151.615-.221.915l-.021.089c-.012.058-.028.115-.041.172l-.022.08-.007.023-.015.052v.011c-.01.03-.019.06-.03.089l-.017.047-.021.049-.021.048c-.01.022-.021.045-.033.067l.157.1-.162-.088h0l0,.008a1.724,1.724,0,0,1-.138.215l-.032.041-.012.015a3.984,3.984,0,0,1-.2-.4l-.052-.11a7.543,7.543,0,0,0-.649-1.1,2.226,2.226,0,0,0-1.249-.972,1.4,1.4,0,0,0-.311-.034,1.322,1.322,0,0,0-.475.084.688.688,0,0,0-.37.314.541.541,0,0,0-.045.128l-.006.028,0,.019c0,.023,0,.04-.005.056a.7.7,0,0,0,.01.153l0,.025.007.03a1.564,1.564,0,0,0,.22.457c.033.052.065.1.094.154.067.124.135.249.2.375a5.589,5.589,0,0,1,.534,1.391c.037.184.058.373.08.572.019.168.037.341.067.51.065.366.143.732.235,1.087a4.943,4.943,0,0,0,.234.728c.072.165.133.318.194.466l.069.171c.058.136.12.283.191.439s.144.3.226.45a3.438,3.438,0,0,1,.413,1.743,3.763,3.763,0,0,1-.087.675,10.45,10.45,0,0,1-.321,1.087q-.074.221-.144.441l-.2.62c-.117.374-.234.747-.352,1.121l0,.012h0l-.03.1-.164.52-.023.073,0,.01a1.321,1.321,0,0,0-.131.363c-.012.047-.023.091-.036.125-.05.147-.1.3-.146.446l-.056.176.178.056a13.816,13.816,0,0,0,1.49.374,14.071,14.071,0,0,0,4.719.106l.142-.021.015-.143.239-2.253.007-.061c.028-.265.047-.538.066-.8a11.946,11.946,0,0,1,.175-1.521,4.438,4.438,0,0,1,.232-.8,4.566,4.566,0,0,1,.75-1.131c.167-.2.338-.414.488-.637a20.638,20.638,0,0,0,2.58-5.391c.041-.132.083-.264.125-.4.082-.257.166-.524.245-.794a7.859,7.859,0,0,0,.341-1.743.734.734,0,0,0-.375-.777l-.025-.012a.44.44,0,0,0-.132-.043.314.314,0,0,0-.065-.005h-.033a.274.274,0,0,0-.062.008.411.411,0,0,0-.056.014.8.8,0,0,0-.238.131,1.519,1.519,0,0,0-.172.161c-.028.03-.055.062-.083.095s-.052.066-.077.1l-.038.052-.036.051c-.077.112-.153.235-.227.369l-.022.039-.023.044-.039.072-.04.08-.015.029-.007.014-.021.044-.409.9c.058-.255.124-.527.19-.79a13.3,13.3,0,0,0,.491-1.762,4.979,4.979,0,0,0,.106-1.726,1.165,1.165,0,0,0-.468-.831l-.029-.019,0,0-.012-.007a.521.521,0,0,0-.065-.026l-.044-.011a.609.609,0,0,0-.087-.011H960.5a.553.553,0,0,0-.083.01l-.029.006a.6.6,0,0,0-.12.039c-.019.01-.043.021-.065.033s-.039.023-.061.038a.926.926,0,0,0-.122.1,1.294,1.294,0,0,0-.121.144c-.015.022-.031.044-.047.067s-.041.067-.062.1-.026.048-.039.073c-.025.049-.049.1-.073.162l-.015.034h0l0,.008-.028.072-.008.021c-.022.058-.043.117-.065.179h0l0,.008-.011.03c-.012.037-.025.073-.037.111l0,.01-.021.062-.016.052-.022.066h0l0,.01c-.057.177-.117.371-.178.579l0,.012-.043.142v0h0l0,.005-.015.051-.027.1c-.034.12-.07.242-.106.365l0,.015-.005.022-.09.314-.128.451-.012.04,0,.01-.015.055-.071.252-.015.051-.01.032-.011.04c-.036.125-.072.245-.1.352l-.045.151v.005l0,0-.007.021,0,.011-.027.087,0,.011-.005.015c-.01.03-.019.058-.029.084l-.008.023c-.015.044-.028.077-.04.1v0c.019-.114.044-.246.073-.4.07-.358.136-.677.147-.733s.157-.5.3-1.091c.017-.07.034-.143.051-.217a12.918,12.918,0,0,0,.279-1.607,4.624,4.624,0,0,0-.015-1.267,1.083,1.083,0,0,0-.524-.838h0l-.005,0a.534.534,0,0,0-.191-.033Z" transform="translate(-949.785 -730.264)" fill="none" stroke="#707070" stroke-miterlimit="10" stroke-width="0.25"/>
                              </g>
                            </g>
                            <path id="Path_522" data-name="Path 522" d="M954.1,743.528a3.968,3.968,0,0,1,1.115-.4c-.283.047-.825-.359-1.051-.5a4.273,4.273,0,0,1-.835-.757,7.515,7.515,0,0,1-1.463-2.116c-.292-.7-.49-1.85.3-2.312a.632.632,0,0,1-.788-.19,2.281,2.281,0,0,1-.359-.806,6.341,6.341,0,0,0-.583-1.3c-.172-.29-.373-.638-.221-.939a.376.376,0,0,0-.287.41,1.214,1.214,0,0,0,.2.508,8.109,8.109,0,0,1,.835,2.025c.186.706.212,1.431.392,2.132a4.827,4.827,0,0,0,.224.7c.1.231.182.437.266.64.059.144.12.286.187.432s.136.285.22.437a3.655,3.655,0,0,1,.435,1.838,3.993,3.993,0,0,1-.091.71c-.113.524-.31,1.036-.469,1.543q-.274.871-.547,1.741v.006c-.063.2-.113.426-.2.626-.011.036-.022.073-.034.11a1.924,1.924,0,0,0-.158.464c-.049.147-.1.3-.146.443a13.2,13.2,0,0,0,1.471.37.868.868,0,0,1-.252-.292,1.132,1.132,0,0,1-.072-.607,9.361,9.361,0,0,1,.285-1.442c.147-.586.324-1.173.444-1.765a2.842,2.842,0,0,1,.483-1.217,1.875,1.875,0,0,1,.655-.472Z" transform="translate(-949.732 -728.783)" fill="none" stroke="#707070" stroke-miterlimit="10" stroke-width="0.25"/>
                            <path id="Path_523" data-name="Path 523" d="M952.284,738.034a.56.56,0,0,1-.054-.074,1.782,1.782,0,0,0,.4-.563,3.78,3.78,0,0,0,.208-.693q.423-1.828.975-3.62a5.043,5.043,0,0,1,.7-1.618c.164-.194.352-.3.556-.216a.325.325,0,0,1,.077.044,1.507,1.507,0,0,0-.563.586c-.047.095-.071.2-.117.3a1.124,1.124,0,0,0-.114.407.312.312,0,0,0,.027.162c.04.078.129.127.162.209a1.018,1.018,0,0,0-.3.022c-.177.048-.236.172-.282.336-.052.182-.1.366-.14.55a1.615,1.615,0,0,0-.011.183c-.008.085-.051.165-.058.252a.482.482,0,0,0,.15.365c-.048-.048-.2.055-.217.091a1.189,1.189,0,0,0-.106.3,2.834,2.834,0,0,0-.107.627.291.291,0,0,0,.01.109.253.253,0,0,0,.069.094,1.612,1.612,0,0,0,.521.3l-.5-.005a.463.463,0,0,0-.1.005c-.172.037-.248.243-.288.392a3.892,3.892,0,0,1-.215.613A1.889,1.889,0,0,1,952.284,738.034Z" transform="translate(-948.867 -729.904)" fill="none" stroke="#707070" stroke-miterlimit="10" stroke-width="0.25"/>
                            <path id="Path_524" data-name="Path 524" d="M954.439,736.68l-.131-.029c.058-.059.14-.071.193-.136a.783.783,0,0,0,.113-.215,2.136,2.136,0,0,0,.1-.3s.908-3.346,1.288-4.587a2.184,2.184,0,0,1,.358-.739.67.67,0,0,1,.417-.272.757.757,0,0,0-.16.268c-.077.188-.148.378-.219.571-.121.339-.263.742.065,1.019a.434.434,0,0,0-.337.078.8.8,0,0,0-.224.479c-.074.266-.149.531-.221.8-.062.228-.2.473-.055.692a1.138,1.138,0,0,0,.213.224h-.269a.187.187,0,0,0-.062.007.145.145,0,0,0-.058.054,2.637,2.637,0,0,0-.266.739c-.085.266-.175.531-.272.794a.931.931,0,0,0-.021.285.394.394,0,0,0,.019.155.358.358,0,0,0,.087.111c.076.074.154.147.234.217A5.131,5.131,0,0,0,954.439,736.68Z" transform="translate(-948.087 -730.212)" fill="none" stroke="#707070" stroke-miterlimit="10" stroke-width="0.25"/>
                            <path id="Path_525" data-name="Path 525" d="M956.019,736.895c-.045-.019-.089-.04-.135-.061a2.243,2.243,0,0,0,.424-.728c.217-.508.89-3.2,1.253-4.073a1.508,1.508,0,0,1,.3-.491.436.436,0,0,1,.5-.147l.032.019a.889.889,0,0,0-.4.305,1.8,1.8,0,0,0-.252.516c-.025.077-.029.153-.052.228a.761.761,0,0,0-.049.3.884.884,0,0,0,.249.465c-.032-.037-.227-.05-.276-.058-.088-.015-.161-.012-.212.07a.244.244,0,0,0-.025.143.955.955,0,0,1-.049.246c-.07.244-.208.593-.07.839.016.029.036.056.055.084a.875.875,0,0,0,.179.2.475.475,0,0,1-.176.01,1.094,1.094,0,0,0-.165-.022c-.2,0-.212.311-.255.458-.056.2-.12.4-.194.6a3.475,3.475,0,0,0-.139.334,2.207,2.207,0,0,0-.082.424.967.967,0,0,0,.1.546A5.163,5.163,0,0,1,956.019,736.895Z" transform="translate(-947.495 -729.849)" fill="none" stroke="#707070" stroke-miterlimit="10" stroke-width="0.25"/>
                            <path id="Path_526" data-name="Path 526" d="M957.431,736.787l-.169-.084c.061.021.161-.172.18-.209.029-.059.055-.121.078-.183l.717-1.578a4.684,4.684,0,0,1,.521-.853c.2-.239.417-.41.609-.315l.026.012a1.013,1.013,0,0,0-.45.355c-.151.193-.389.5-.342.763a.675.675,0,0,0,.169.322.409.409,0,0,0-.322,0c-.107.065-.154.228-.209.333a2.774,2.774,0,0,0-.49,1.176.574.574,0,0,0,.021.182.8.8,0,0,0,.073.146l.171.285A4.811,4.811,0,0,0,957.431,736.787Z" transform="translate(-946.978 -729.034)" fill="none" stroke="#707070" stroke-miterlimit="10" stroke-width="0.25"/>
                          </g>
                        </g>
                        <g id="Group_198" data-name="Group 198" transform="translate(3.935 9.075)" opacity="0.2">
                          <path id="Path_527" data-name="Path 527" d="M954.419,738.183a3.7,3.7,0,0,1,.719,1.661,8.347,8.347,0,0,1,.052,1.648,3.786,3.786,0,0,0,.221-2.541c-.077-.293-.463-1.122.048-1.238a.672.672,0,0,1,.276.012,8.177,8.177,0,0,1,2.395.876c-.077-.044-.165-.206-.226-.272a5.617,5.617,0,0,0-.975-.854,5.938,5.938,0,0,0-1.541-.761,5.516,5.516,0,0,0-2.572-.233c-.232.04-.206.116-.055.275a9.749,9.749,0,0,0,.982.733A4.314,4.314,0,0,1,954.419,738.183Z" transform="translate(-952.646 -736.42)" fill="none" stroke="#707070" stroke-miterlimit="10" stroke-width="0.25"/>
                        </g>
                      </g>
                      <g id="Group_205" data-name="Group 205" transform="translate(8.423 0.607)">
                        <g id="Group_203" data-name="Group 203">
                          <g id="Group_202" data-name="Group 202">
                            <g id="Group_201" data-name="Group 201">
                              <path id="Path_528" data-name="Path 528" d="M963.361,751.143h-.219a14.053,14.053,0,0,1-1.835-.147l-.071-.011-.253-2.385c-.027-.261-.047-.53-.066-.788a12.078,12.078,0,0,0-.177-1.543,4.552,4.552,0,0,0-.237-.812,4.606,4.606,0,0,0-.762-1.153c-.167-.2-.337-.411-.486-.633a20.622,20.622,0,0,1-2.568-5.366c-.04-.128-.08-.257-.122-.388-.083-.263-.168-.531-.248-.8a7.992,7.992,0,0,1-.337-1.722.633.633,0,0,1,.325-.689l.021-.011a.341.341,0,0,1,.081-.03l.019,0a.42.42,0,0,1,.061-.005h.023c.015,0,.032,0,.045,0l.05.012a.709.709,0,0,1,.213.117,1.712,1.712,0,0,1,.16.151c.025.026.049.055.074.085s.055.069.08.1l.036.051.036.048c.083.122.159.248.223.363l.047.084a.726.726,0,0,1,.034.066.888.888,0,0,1,.041.08l.04.081.724,1.589v.011l.034.084c-.063-.362-.215-1.028-.369-1.641h0a13.514,13.514,0,0,1-.487-1.75,4.86,4.86,0,0,1-.1-1.693,1.075,1.075,0,0,1,.427-.769l.027-.018a.316.316,0,0,1,.057-.025l.03.087-.011-.092.026-.007.036-.005h.067a.427.427,0,0,1,.07.005l.03.007a.506.506,0,0,1,.1.034.35.35,0,0,1,.056.029.391.391,0,0,1,.05.032.885.885,0,0,1,.11.092,1.071,1.071,0,0,1,.114.136l.033.047.021.034c.016.026.033.052.048.081l.037.069c.023.048.047.1.07.157l.019.044s.018.048.025.065l0,0,.071.2a.262.262,0,0,0,.012.038l.041.122.019.058c.011.036.04.121.04.121l0,.014v0c.058.18.117.37.176.57l0,.007,0,.012.044.147v.014c.012.032.028.081.041.131l.239.836.074.263h.007l.015.074.008.03.122.428c.036.124.068.228.1.326l.012.041c.011.041.023.08.034.117l.015.048h0s.065.2.074.227l.008.025.034.088.008.022a3.619,3.619,0,0,0,.252.51l.016.027c-.022-.2-.08-.543-.165-.99-.078-.4-.151-.741-.151-.743h0s-.146-.459-.3-1.087q-.025-.105-.05-.214a12.76,12.76,0,0,1-.279-1.594,4.484,4.484,0,0,1,.015-1.242,1.139,1.139,0,0,1,.311-.658.638.638,0,0,1,.164-.114.426.426,0,0,1,.161-.029.545.545,0,0,1,.08.007.754.754,0,0,1,.473.3,2.277,2.277,0,0,1,.373.772.406.406,0,0,1,.019.066.356.356,0,0,1,.016.049l.045.149h.022v.08l.113.388q.037.126.074.26c.029.1.056.194.085.3l.039.138c.01.033.017.062.026.092l.06.213c.019.071.04.144.061.217,0,0,.076.274.081.293l.027.092c.01.037.016.065.026.094l.079.289c.014.047.026.094.038.138l.144.528c.032.111.062.22.088.319a.665.665,0,0,0,.021.069l.032.121.008.025c.029.111.058.213.082.3l0,.012v0l.018.061h.021v.094c.018.059.032.107.041.142l.007.025a.22.22,0,0,1,.011.043l.008.029a2.244,2.244,0,0,0,.069.219l.022.054a.525.525,0,0,0,.147.23,1.331,1.331,0,0,0,.018-.325c0-.112-.01-.241-.021-.374-.023-.265-.054-.521-.076-.69-.043-.334-.084-.593-.084-.593A11.038,11.038,0,0,1,962.1,733c-.005-.124-.008-.254-.007-.391a3.214,3.214,0,0,1,.043-.477.881.881,0,0,1,.29-.583.516.516,0,0,1,.1-.054.63.63,0,0,1,.067-.023l.011,0h0a.17.17,0,0,1,.033,0,.156.156,0,0,1,.044-.007l.027,0,.008,0a.2.2,0,0,1,.047,0,.438.438,0,0,1,.1.026l.021.008.056.028.036.023h.01l.025.023.032.025.046.026v.015a1.077,1.077,0,0,1,.094.1l.065.082.018.026.044.065c.03.045.059.095.088.146l.07.132v0l.007.014c.008.014.021.04.032.062l.072.156v.005c.016.037.032.076.047.114l.014.014v.021l.017.041c.008.021.016.045.026.07l.005.018-.082.044.092-.017.039.1c.01.034.019.061.027.087l.018.055c.022.066.04.128.055.182h0l.008.023,0,.021a.317.317,0,0,1,.014.046.264.264,0,0,1,.011.045l.007.021h.021l0,.084.1.325v0c.029.094.056.184.083.276a.17.17,0,0,1,.011.041c.048.16.095.322.14.484l.11.392c.122.448.221.824.311,1.182.076.3.148.607.22.912l.021.091.041.172.022.078.01.041h0l.011.03.007.023.03.094.04.1c.007.018.014.032.019.045s.023.051.037.076l.011.022a1.846,1.846,0,0,0,.144.228l.036.044c.023.027.048.058.073.085l.019.019a3.082,3.082,0,0,0,.279-.506l.051-.11a7.721,7.721,0,0,1,.641-1.087,2.146,2.146,0,0,1,1.2-.937c.023-.005.051-.011.077-.015a1.29,1.29,0,0,1,.212-.017,1.242,1.242,0,0,1,.44.077.584.584,0,0,1,.322.271.456.456,0,0,1,.037.107l.005.023,0,.021,0,.045a.807.807,0,0,1-.007.127v.01l0,.01,0,.029a1.426,1.426,0,0,1-.208.426c-.034.055-.069.11-.1.164-.07.129-.136.253-.2.38a5.593,5.593,0,0,0-.542,1.414c-.039.187-.059.384-.081.576-.018.167-.037.34-.066.508-.062.355-.14.719-.234,1.08a4.858,4.858,0,0,1-.23.714c-.077.179-.144.344-.209.5l-.055.136c-.061.147-.12.289-.188.436s-.144.3-.223.444a3.51,3.51,0,0,0-.424,1.789,3.93,3.93,0,0,0,.088.693,10.963,10.963,0,0,0,.325,1.1c.05.144.1.29.143.435l.546,1.739.005.012v.007c.061.2.122.389.184.583l.01.032c.01.032.021.063.029.1a1.16,1.16,0,0,1,.128.351c.012.047.023.091.034.127l.149.442.029.089-.089.027a13.8,13.8,0,0,1-4.115.627Z" transform="translate(-955.884 -730.238)" fill="none" stroke="#707070" stroke-miterlimit="10" stroke-width="0.25"/>
                              <g id="Group_200" data-name="Group 200">
                                <path id="Path_529" data-name="Path 529" d="M960.039,730.449a.562.562,0,0,1,.065,0,.672.672,0,0,1,.415.272,2.141,2.141,0,0,1,.356.74.539.539,0,0,1,.018.059c.007.017.011.034.016.052l.014.044.019.065c.01.036.022.073.032.109h0c.037.122.074.257.115.4.026.085.051.171.076.26s.057.194.084.3l.04.139c.008.032.016.063.026.094l.025.089.015.054c.026.095.054.19.081.286.016.061.031.12.048.177l.005.016c.008.032.018.063.026.1s.018.063.027.1.016.062.027.094l.037.143.04.142c.014.047.026.094.039.138s.029.11.044.161h0c.015.052.029.1.044.154.008.029.014.058.022.087s.023.085.036.127c.031.111.061.219.088.319a.619.619,0,0,0,.021.074l.037.138h0c.03.113.058.215.083.3v0c.005.016.008.033.014.047.01.036.018.065.025.093h0l.005.023c.016.061.029.109.038.144l.007.021,0,.017.005.022,0,.01.008.026a1.954,1.954,0,0,0,.07.226c.008.018.015.039.023.058.058.135.135.267.223.29a.156.156,0,0,0,.036,0h.012c.061-.012.077-.186.072-.424,0-.114-.01-.245-.021-.381-.021-.231-.048-.479-.077-.693-.042-.337-.084-.6-.084-.6a11,11,0,0,1-.21-1.542c-.007-.129-.008-.26-.007-.385a3.189,3.189,0,0,1,.041-.463.805.805,0,0,1,.254-.523.35.35,0,0,1,.077-.044.413.413,0,0,1,.056-.019l.01,0h.015a.352.352,0,0,1,.053-.007h.033l.027,0a.4.4,0,0,1,.08.022l.017.007.032.015.008,0,.027.017.005.005a.23.23,0,0,1,.029.018h0l.032.025.021.016v0l.016.014a1.215,1.215,0,0,1,.092.095c.019.025.041.051.061.078l.022.029.036.055c.03.044.058.092.087.142l.03.055.028.055h0l.014.026c.011.022.023.045.033.067.021.045.041.092.063.136v0c.021.048.041.1.059.145v0l.022.055c.011.028.021.058.031.085l.01.029c.012.034.026.069.037.1s.019.059.029.087.011.034.016.051c.022.066.04.128.055.182l.007.019,0,.019c.005.015.01.03.014.045s.008.026.01.038l.005.014c.011.043.018.07.021.085v0l0,.007c.033.107.065.213.1.322l0,.012c.029.094.056.186.083.278.006.014.008.027.012.04.048.162.093.325.14.487l.01.033.1.358c.109.393.213.785.311,1.179.076.3.149.607.22.911l.019.089c.015.059.029.118.043.176.008.029.015.056.023.083l.007.029c.007.018.011.036.016.052l0,.012c.01.033.021.065.03.095l.021.054c.007.018.015.036.021.052a.469.469,0,0,0,.023.052c.012.026.023.052.039.08l.01.019a2.106,2.106,0,0,0,.153.241l.039.047c.025.03.051.062.077.089v0c.023.025.05.052.077.077l.008.007.01.008a3.114,3.114,0,0,0,.406-.714,7.426,7.426,0,0,1,.633-1.073,2.107,2.107,0,0,1,1.142-.9c.022,0,.047-.01.07-.012a1.125,1.125,0,0,1,.2-.017,1.113,1.113,0,0,1,.406.072.49.49,0,0,1,.274.225.344.344,0,0,1,.029.085l.005.019,0,.017,0,.038a.608.608,0,0,1-.007.112l0,.018-.005.023a2.5,2.5,0,0,1-.3.564c-.069.127-.136.252-.2.381a5.66,5.66,0,0,0-.552,1.437c-.072.356-.085.729-.147,1.088s-.142.718-.233,1.073a4.846,4.846,0,0,1-.225.7c-.1.23-.182.437-.264.64-.059.146-.12.286-.187.432s-.136.285-.22.439a3.621,3.621,0,0,0-.435,1.836,3.977,3.977,0,0,0,.089.71c.114.524.309,1.034.47,1.543.183.582.365,1.161.546,1.741l0,.006c.065.209.131.417.2.626.011.036.023.073.033.109a1.882,1.882,0,0,1,.159.466q.074.221.147.442a13.6,13.6,0,0,1-1.472.371,13.8,13.8,0,0,1-2.618.252h-.216a14.433,14.433,0,0,1-1.823-.146c-.084-.772-.165-1.543-.248-2.315s-.088-1.573-.244-2.34a4.7,4.7,0,0,0-.241-.828,10.639,10.639,0,0,0-1.257-1.8,19.943,19.943,0,0,1-1.172-1.977A20.442,20.442,0,0,1,956.8,738.3c-.118-.384-.252-.784-.369-1.188a7.869,7.869,0,0,1-.334-1.7.541.541,0,0,1,.276-.6l.026-.014a.182.182,0,0,1,.05-.018l.023-.006.039,0h.018a.173.173,0,0,1,.038,0l.04.01a.636.636,0,0,1,.179.1,1.43,1.43,0,0,1,.149.142c.025.026.049.056.074.085s.05.062.073.093l.034.049c.012.015.023.032.036.048.083.121.158.245.217.353l.023.041.022.04c.014.023.025.047.034.066s.03.056.041.08l.022.043.018.038.717,1.576.007.022a.629.629,0,0,1,.025.06l.005.011.014.029.014.033,0,0a.615.615,0,0,0,.106.173.076.076,0,0,0,.051.029h.011a13.44,13.44,0,0,0-.389-1.96,13.147,13.147,0,0,1-.485-1.744,4.87,4.87,0,0,1-.1-1.659.991.991,0,0,1,.385-.707l.025-.016.007,0a.127.127,0,0,1,.031-.012l.032-.008.033-.006h.055a.377.377,0,0,1,.054,0l.016,0a.482.482,0,0,1,.089.029.363.363,0,0,1,.045.023.326.326,0,0,1,.048.03.814.814,0,0,1,.1.083.955.955,0,0,1,.1.122c.015.018.029.04.043.059s.037.062.055.095.023.043.036.066c.023.047.044.1.068.151l.018.041c.008.022.017.044.028.067l.008.023c.019.055.041.111.062.172a.328.328,0,0,0,.014.04c.014.04.026.078.04.12.007.019.014.041.022.063.011.037.025.076.037.116l0,.012c.056.176.116.37.175.572l.007.019.04.135v.01c.015.048.03.1.043.146.036.121.072.242.106.365h0l.008.032c.03.106.062.212.092.318.043.153.085.3.126.45l0,0c0,.016.008.03.012.047.03.106.06.21.088.308l.015.054.019.067c.037.128.073.248.106.356.015.054.032.1.047.153l0,.013.011.03c.01.032.018.059.028.088l.008.025c.01.032.021.061.03.089l.01.027c.015.044.03.08.042.11a3.793,3.793,0,0,0,.26.528l.012.018a.375.375,0,0,0,.029.043l.012.014.008.01.01.014a.206.206,0,0,0,.05.044l.015.008,0,0,.01,0h0a.072.072,0,0,0,.027.01h0c.011,0,.015-.022.015-.062a9.787,9.787,0,0,0-.175-1.136c-.078-.4-.151-.744-.151-.744s-.146-.455-.3-1.089c-.017-.069-.033-.14-.05-.213a13.008,13.008,0,0,1-.276-1.583,4.48,4.48,0,0,1,.014-1.215,1.079,1.079,0,0,1,.282-.608.555.555,0,0,1,.142-.1.35.35,0,0,1,.122-.019m0-.186a.5.5,0,0,0-.194.034l-.006,0h0a.816.816,0,0,0-.188.131,1.247,1.247,0,0,0-.336.707,4.617,4.617,0,0,0-.016,1.268,13.271,13.271,0,0,0,.281,1.605c.016.073.033.144.051.215.143.593.278,1.025.3,1.095s.078.371.148.732c.028.144.054.28.074.4l0-.01-.007-.015c-.008-.023-.019-.051-.03-.083l-.01-.025-.029-.088v-.005l0-.007h0v-.005l0-.012-.018-.055-.008-.026,0-.014h0v0l-.008-.026-.009-.033c-.012-.037-.024-.076-.034-.114l-.013-.039c-.03-.1-.062-.2-.095-.319l-.021-.072-.007-.023-.006-.023c-.029-.1-.059-.2-.089-.309l0-.014-.007-.021-.029-.148H959.7l-.083-.293-.007-.025-.045-.16c-.015-.052-.03-.1-.045-.158v-.005h0l-.007-.026c-.021-.07-.04-.139-.06-.208l-.047-.157c-.011-.041-.024-.085-.037-.128v0l-.007-.025-.008-.026-.032-.109-.005-.015v0h0c-.058-.2-.115-.382-.172-.558v0l-.008-.029-.011-.03c-.008-.028-.018-.054-.026-.08l0-.007,0-.007-.014-.038-.005-.017-.026-.08-.014-.039-.008-.026,0-.008,0-.008c-.014-.04-.027-.078-.041-.116l-.022-.059,0-.008V732.5l-.008-.018-.017-.041-.007-.019,0,0v-.005l-.005-.012-.014-.03c-.023-.057-.047-.109-.07-.157l-.037-.072-.051-.085-.011-.016-.012-.019c-.012-.019-.025-.037-.038-.055a1.132,1.132,0,0,0-.116-.14,1.165,1.165,0,0,0-.128-.107c-.021-.014-.04-.026-.061-.037a.371.371,0,0,0-.062-.032.612.612,0,0,0-.114-.04h-.007l-.023,0a.439.439,0,0,0-.091-.01h-.033l-.03,0h-.015l-.04.006h-.015l-.021.005-.011,0-.014,0a.558.558,0,0,0-.058.025h0l-.012.007a.317.317,0,0,0-.036.025,1.165,1.165,0,0,0-.462.827,4.97,4.97,0,0,0,.106,1.726,13.362,13.362,0,0,0,.491,1.763c.065.26.131.531.188.784l-.407-.893-.018-.04,0-.007,0-.007-.008-.015-.01-.019c-.013-.025-.026-.054-.044-.087l-.034-.063-.012-.023-.007-.012,0-.007-.006-.008,0-.008-.015-.027c-.065-.117-.143-.244-.227-.366-.012-.019-.026-.037-.038-.054l-.032-.045c-.028-.039-.055-.073-.083-.106s-.054-.065-.081-.093a1.566,1.566,0,0,0-.169-.16.786.786,0,0,0-.235-.132h-.014l-.03-.008-.01,0-.01,0h-.008l-.045-.006h-.037a.391.391,0,0,0-.058,0h-.007l-.01,0-.031.007a.338.338,0,0,0-.088.032l-.039.021a.732.732,0,0,0-.366.773,8.126,8.126,0,0,0,.341,1.741c.078.272.165.543.248.8.041.131.083.26.122.388a20.769,20.769,0,0,0,2.579,5.389c.151.226.323.436.491.641a4.48,4.48,0,0,1,.748,1.128,4.584,4.584,0,0,1,.232.795,12.111,12.111,0,0,1,.175,1.532c.019.26.039.528.066.791.041.385.083.772.122,1.157l.124,1.158.015.141.142.021a14.02,14.02,0,0,0,1.847.149h.219a13.873,13.873,0,0,0,4.144-.631l.177-.055-.058-.179c-.048-.147-.1-.294-.147-.443-.011-.032-.021-.074-.033-.12a1.324,1.324,0,0,0-.132-.367c-.008-.028-.018-.056-.026-.085-.063-.2-.127-.4-.188-.6v-.016l-.014-.028-.27-.858-.274-.872c-.045-.146-.093-.292-.143-.437a10.2,10.2,0,0,1-.322-1.091,3.63,3.63,0,0,1-.085-.675,3.415,3.415,0,0,1,.411-1.743c.08-.146.153-.293.226-.45s.142-.32.19-.44l.055-.135c.065-.158.132-.322.209-.5a5.053,5.053,0,0,0,.234-.728c.094-.363.173-.729.235-1.087.03-.172.049-.345.067-.515.022-.2.043-.385.078-.569a5.569,5.569,0,0,1,.535-1.388c.066-.129.133-.253.2-.377.029-.052.062-.1.1-.16a1.549,1.549,0,0,0,.219-.451l0-.021.005-.022V736.2a.771.771,0,0,0,.008-.142v-.015l0-.037v-.018l0-.019-.005-.019a.542.542,0,0,0-.044-.125.671.671,0,0,0-.37-.315,1.308,1.308,0,0,0-.475-.084,1.377,1.377,0,0,0-.23.018c-.023,0-.054.01-.08.016a2.234,2.234,0,0,0-1.252.973,7.7,7.7,0,0,0-.648,1.1l-.052.11a3.8,3.8,0,0,1-.2.4l-.012-.014-.016-.021-.019-.025a1.616,1.616,0,0,1-.133-.212l-.006-.009v0l-.005-.01a.615.615,0,0,1-.03-.063l0,0,0,0-.014-.032-.011-.027-.011-.026-.019-.052-.013-.037-.016-.05h0l0-.015,0-.006-.011-.04,0-.012v-.013l0-.008-.01-.039-.012-.041-.019-.078-.022-.091-.008-.038-.01-.045c-.078-.334-.151-.633-.221-.915-.088-.356-.187-.732-.311-1.183l-.061-.22-.039-.139v-.008l-.008-.025c-.047-.165-.094-.327-.142-.49A.36.36,0,0,0,964.2,734c-.025-.088-.052-.176-.078-.264l-.008-.029-.047-.155-.041-.135v0l-.008-.025,0-.012c0-.018-.01-.044-.019-.077v0l0-.008-.007-.029c-.005-.021-.011-.039-.018-.058l0-.014c0-.007-.005-.021-.011-.036-.015-.052-.033-.113-.054-.176l-.008-.025-.007-.018v-.014a.6.6,0,0,1-.025-.074v-.005l0-.006c-.012-.034-.026-.071-.04-.107l0-.011,0-.009-.007-.021c-.01-.026-.018-.052-.029-.077l-.008-.021v-.041l-.027-.028c-.01-.028-.022-.055-.033-.081v0l-.019-.041-.034-.076-.026-.059-.03-.059v0l-.022-.043-.011-.022-.018-.033-.011-.022-.018-.033c-.027-.049-.059-.1-.095-.157l-.019-.029-.015-.022-.005-.01-.008-.01-.01-.014,0,0,0,0c-.018-.023-.037-.048-.056-.07l-.008-.012c-.025-.028-.047-.052-.067-.073v-.025l-.08-.049-.016-.014-.014-.01-.008-.007-.045-.045h-.021l-.007,0h0l-.008-.005h-.007l-.005,0-.007,0-.015-.007-.034-.015-.007,0h-.007l-.018-.007a.538.538,0,0,0-.114-.03.284.284,0,0,0-.051,0H962.7l-.055.007h-.032l-.023.007a.567.567,0,0,0-.084.029.525.525,0,0,0-.116.066.96.96,0,0,0-.322.637,3.431,3.431,0,0,0-.044.492c0,.139,0,.272.007.4a11.065,11.065,0,0,0,.213,1.568c.005.037.044.282.083.586.022.168.054.422.076.686.01.12.018.243.021.37v.025l-.011-.026a1.809,1.809,0,0,1-.063-.2l-.008-.026v0a.172.172,0,0,0-.008-.034l0-.012,0-.01,0-.012v-.006c-.01-.033-.022-.078-.038-.136v-.165h-.044l0-.011c-.025-.088-.052-.188-.081-.3l-.014-.048h0l0-.01-.021-.077,0-.007v-.007c-.007-.021-.012-.039-.018-.061-.028-.1-.058-.212-.089-.323l-.034-.125-.011-.041-.014-.049-.021-.073-.014-.055h0l-.008-.026c-.014-.051-.029-.1-.042-.157s-.026-.094-.04-.142l-.019-.069-.019-.072-.021-.076-.018-.066c-.011-.036-.018-.065-.026-.094l-.012-.044-.016-.055-.015-.055-.011-.037v-.005l0-.005-.005-.017-.023-.088-.022-.081c-.022-.076-.043-.15-.063-.224l-.018-.062-.007-.027-.007-.025-.012-.044-.012-.047c-.011-.034-.019-.063-.026-.091v0l0-.01-.037-.131c-.028-.1-.056-.2-.085-.3s-.048-.175-.074-.26l-.043-.147q-.033-.12-.066-.227v-.158h-.047l-.014-.045-.005-.019-.007-.022-.016-.055-.021-.063a2.372,2.372,0,0,0-.388-.8.853.853,0,0,0-.531-.338.713.713,0,0,0-.092-.007Z" transform="translate(-955.909 -730.263)" fill="none" stroke="#707070" stroke-miterlimit="10" stroke-width="0.25"/>
                              </g>
                            </g>
                            <path id="Path_530" data-name="Path 530" d="M963.1,749.84l-1.8-.138q-.124-1.157-.248-2.315c-.081-.773-.088-1.574-.243-2.34a4.709,4.709,0,0,0-.241-.828,10.633,10.633,0,0,0-1.257-1.8,19.953,19.953,0,0,1-1.172-1.977,20.463,20.463,0,0,1-1.385-3.365,18.278,18.278,0,0,1-.677-2.569,1.387,1.387,0,0,1,0-.6.5.5,0,0,1,.424-.375,1.425,1.425,0,0,0,.416,2.005.244.244,0,0,0-.224.235.709.709,0,0,0,.091.342c.234.513.316,1.219,1.007,1-.557.382-.38.71-.147,1.241.616,1.4,1.154,3.305,2.43,4.269a6.33,6.33,0,0,0,3.385,1.03c-.3-.037-1.081.513-1.294.711a2.117,2.117,0,0,0-.572,1.232,6.518,6.518,0,0,0,.156,2.468A2.613,2.613,0,0,0,963.1,749.84Z" transform="translate(-955.86 -729.037)" fill="none" stroke="#707070" stroke-miterlimit="10" stroke-width="0.25"/>
                          </g>
                        </g>
                        <g id="Group_204" data-name="Group 204" transform="translate(3.026 8.469)" opacity="0.2">
                          <path id="Path_531" data-name="Path 531" d="M961.821,738.183a3.7,3.7,0,0,0-.721,1.661,8.347,8.347,0,0,0-.051,1.648,3.8,3.8,0,0,1-.223-2.541c.078-.293.465-1.122-.048-1.238a.673.673,0,0,0-.276.012,8.171,8.171,0,0,0-2.393.876c.076-.044.165-.206.224-.272a5.592,5.592,0,0,1,.977-.854,5.894,5.894,0,0,1,1.541-.761,5.511,5.511,0,0,1,2.571-.233c.232.04.206.116.056.275a9.9,9.9,0,0,1-.982.733A4.268,4.268,0,0,0,961.821,738.183Z" transform="translate(-958.109 -736.42)" fill="none" stroke="#707070" stroke-miterlimit="10" stroke-width="0.25"/>
                        </g>
                        <path id="Path_532" data-name="Path 532" d="M959.556,737.106a7.311,7.311,0,0,1-1.466.5c-.011-.04-.022-.079-.036-.117h0a13.433,13.433,0,0,0-.389-1.96,13.154,13.154,0,0,1-.486-1.744,4.87,4.87,0,0,1-.1-1.659.991.991,0,0,1,.385-.707l.025-.017.007,0a.125.125,0,0,1,.032-.012l.032-.008.033-.005a.916.916,0,0,1-.066.091,1.351,1.351,0,0,0-.256.931,5.28,5.28,0,0,0,.184.839c.018.08.01.157.073.215s.253.1.32.04a.71.71,0,0,0-.2.557,2.043,2.043,0,0,0,.146.59c.034.1.069.2.1.3a.685.685,0,0,0,.136.26.229.229,0,0,0,.267.061c0,.069-.082.1-.122.151-.065.084-.032.261-.029.36a2.386,2.386,0,0,0,.052.421,2.425,2.425,0,0,0,.314.784.289.289,0,0,0,.292.162A5.085,5.085,0,0,0,959.556,737.106Z" transform="translate(-955.484 -729.848)" fill="none" stroke="#707070" stroke-miterlimit="10" stroke-width="0.25"/>
                        <path id="Path_533" data-name="Path 533" d="M960.968,736.89c-.164.054-.33.109-.495.161a2.568,2.568,0,0,1-.845.172.276.276,0,0,1-.157-.037.151.151,0,0,1-.05-.062.074.074,0,0,0,.028.01c.012,0,.017-.021.017-.062a9.782,9.782,0,0,0-.175-1.136c-.078-.4-.151-.744-.151-.744s-.146-.455-.3-1.089c-.017-.069-.033-.14-.05-.213a13.013,13.013,0,0,1-.276-1.583,4.479,4.479,0,0,1,.014-1.215,1.079,1.079,0,0,1,.282-.608,1.119,1.119,0,0,0-.077.182,2,2,0,0,0-.066.689,3.6,3.6,0,0,0,.125.915.492.492,0,0,0,.069.15c.118.159.36.135.556.094-.176.1-.372.22-.41.418a.754.754,0,0,0,.063.389,6.109,6.109,0,0,1,.3,1.392.165.165,0,0,0,.029.095.16.16,0,0,0,.114.038c.129.008.257.017.386.022a.42.42,0,0,0-.323.327,1.215,1.215,0,0,0,.005.483c.058.4.087.916.521,1.094A2.845,2.845,0,0,0,960.968,736.89Z" transform="translate(-954.944 -730.18)" fill="none" stroke="#707070" stroke-miterlimit="10" stroke-width="0.25"/>
                        <path id="Path_534" data-name="Path 534" d="M962.291,736.045c-.015.107-.146.147-.252.164l-.851.139a.546.546,0,0,1-.326-.017.2.2,0,0,1-.048-.032h.005c.061-.012.077-.186.072-.424,0-.114-.01-.245-.021-.381-.021-.231-.048-.479-.077-.693-.043-.337-.084-.6-.084-.6a11.006,11.006,0,0,1-.211-1.542c-.007-.129-.008-.26-.007-.385a3.2,3.2,0,0,1,.041-.464.806.806,0,0,1,.254-.523.348.348,0,0,1,.077-.044.457.457,0,0,1,.056-.019h.009a.781.781,0,0,0-.18.3,1.433,1.433,0,0,0-.028.666.654.654,0,0,0,.171.414.732.732,0,0,0,.523.121c-.12.051-.237.1-.356.153a.227.227,0,0,0-.1.063.214.214,0,0,0-.029.116,6.84,6.84,0,0,0-.007.788.724.724,0,0,0,.16.5.629.629,0,0,0,.51.132c-.054.114-.222.11-.323.184a.432.432,0,0,0-.109.415,3.127,3.127,0,0,0,.1.492.591.591,0,0,0,.109.237.553.553,0,0,0,.209.139A1.458,1.458,0,0,0,962.291,736.045Z" transform="translate(-954.189 -729.901)" fill="none" stroke="#707070" stroke-miterlimit="10" stroke-width="0.25"/>
                        <path id="Path_535" data-name="Path 535" d="M965.093,734.2a3.766,3.766,0,0,0-.829.835,1.268,1.268,0,0,0-.169,1.125.418.418,0,0,0-.425.1,1.3,1.3,0,0,0-.258.376,5.307,5.307,0,0,0-.576,1.462c0-.414-.008-.829-.012-1.243l.008.007.01.008a3.107,3.107,0,0,0,.406-.714,7.453,7.453,0,0,1,.633-1.073,2.106,2.106,0,0,1,1.141-.9c.022,0,.047-.01.07-.012Z" transform="translate(-953.314 -728.799)" fill="none" stroke="#707070" stroke-miterlimit="10" stroke-width="0.25"/>
                      </g>
                    </g>
                  </g>
                </g>
                <circle id="SVGID-3" data-name="SVGID" cx="12.13" cy="12.13" r="12.13" fill="none" stroke="#707070" stroke-miterlimit="10" stroke-width="0.25"/>
              </g>
              <g id="Group_211" data-name="Group 211">
                <g id="Group_210" data-name="Group 210">
                  <path id="Path_536" data-name="Path 536" d="M960.52,751.838a12.408,12.408,0,1,1,12.407-12.408A12.423,12.423,0,0,1,960.52,751.838Zm0-24.261a11.853,11.853,0,1,0,11.853,11.853A11.867,11.867,0,0,0,960.52,727.577Z" transform="translate(-948.112 -727.023)" fill="none" stroke="#707070" stroke-miterlimit="10" stroke-width="0.25"/>
                </g>
              </g>
            </g>
            <g id="Group_213" data-name="Group 213" transform="translate(5.589 12.407)" opacity="0.5">
              <path id="Path_537" data-name="Path 537" d="M959.435,739.638a1.507,1.507,0,0,0-1.107-1.453.994.994,0,0,0-1.428-1.2,1.605,1.605,0,0,0-3.067.664,1.636,1.636,0,0,0,.016.22.842.842,0,1,0-1.2,1.161,1.292,1.292,0,0,0,.824,2.289,1.272,1.272,0,0,0,.6-.149.919.919,0,0,0,.847.567.9.9,0,0,0,.425-.109,1,1,0,0,0,1.791.055.876.876,0,0,0,1.005-.554A1.507,1.507,0,0,0,959.435,739.638Z" transform="translate(-952.175 -736.043)" fill="none" stroke="#707070" stroke-miterlimit="10" stroke-width="0.25"/>
            </g>
            <g id="Group_214" data-name="Group 214" transform="translate(13.103 10.404)" opacity="0.5">
              <path id="Path_538" data-name="Path 538" d="M963.012,737.249a1.114,1.114,0,0,0-.82-1.074.756.756,0,0,0,.044-.245.736.736,0,0,0-1.1-.645,1.189,1.189,0,0,0-2.271.492,1.287,1.287,0,0,0,.012.162.623.623,0,1,0-.891.86.957.957,0,0,0,.609,1.695.942.942,0,0,0,.443-.11.671.671,0,0,0,.942.339.737.737,0,0,0,1.326.041.605.605,0,0,0,.133.014.653.653,0,0,0,.611-.425A1.113,1.113,0,0,0,963.012,737.249Z" transform="translate(-957.638 -734.587)" fill="none" stroke="#707070" stroke-miterlimit="10" stroke-width="0.25"/>
            </g>
          </g>
          <g id="Group_235" data-name="Group 235" transform="translate(30.132)">
            <g id="Group_234" data-name="Group 234">
              <g id="Group_233" data-name="Group 233" clip-path="url(#clip-path-2)">
                <g id="Group_232" data-name="Group 232" transform="translate(6.122 4.89)">
                  <g id="Group_217" data-name="Group 217" transform="translate(5.326 1.011)">
                    <rect id="Rectangle_29" data-name="Rectangle 29" width="1.548" height="1.491" transform="translate(0.097 0.096)" fill="none" stroke="#707070" stroke-miterlimit="10" stroke-width="0.25"/>
                    <g id="Group_216" data-name="Group 216">
                      <path id="Path_539" data-name="Path 539" d="M935.729,731.468v1.3h-1.356v-1.3h1.356m.193-.191H934.18v1.682h1.741v-1.682Z" transform="translate(-934.18 -731.277)" fill="none" stroke="#707070" stroke-miterlimit="10" stroke-width="0.25"/>
                    </g>
                  </g>
                  <path id="Path_540" data-name="Path 540" d="M934.817,731.794a.434.434,0,0,0-.048.224.738.738,0,0,0,.025.245.276.276,0,0,0,.158.176.457.457,0,0,0,.138.019l.587.011v.245H934.32v-1.3h1.356v.069a2.576,2.576,0,0,0-.724.19A.361.361,0,0,0,934.817,731.794Z" transform="translate(-928.801 -730.214)" fill="none" stroke="#707070" stroke-miterlimit="10" stroke-width="0.25"/>
                  <g id="Group_218" data-name="Group 218" transform="translate(4.08)">
                    <path id="Path_541" data-name="Path 541" d="M933.942,731.811a.6.6,0,0,1-.6-.6.594.594,0,0,1,.176-.424.606.606,0,0,1,.2-.131.588.588,0,0,1,.225-.044h6.6a1.1,1.1,0,0,1,1,.637,1.071,1.071,0,0,1,.106.466v.1Z" transform="translate(-933.248 -730.516)" fill="none" stroke="#707070" stroke-miterlimit="10" stroke-width="0.25"/>
                    <path id="Path_542" data-name="Path 542" d="M940.567,730.735a1,1,0,0,1,.909.58.968.968,0,0,1,.1.426h-7.605a.5.5,0,0,1-.19-.97.487.487,0,0,1,.19-.037h6.6m0-.193h-6.6a.686.686,0,0,0-.264.052.708.708,0,0,0-.227.151.7.7,0,0,0,.491,1.187h7.8v-.191a1.156,1.156,0,0,0-.116-.51,1.2,1.2,0,0,0-1.082-.689Z" transform="translate(-933.274 -730.542)" fill="none" stroke="#707070" stroke-miterlimit="10" stroke-width="0.25"/>
                  </g>
                  <g id="Group_219" data-name="Group 219" transform="translate(4.08)">
                    <path id="Path_543" data-name="Path 543" d="M933.942,731.811a.6.6,0,0,1-.6-.6.594.594,0,0,1,.176-.424.606.606,0,0,1,.2-.131.588.588,0,0,1,.225-.044h6.6a1.1,1.1,0,0,1,1,.637,1.071,1.071,0,0,1,.106.466v.1Z" transform="translate(-933.248 -730.516)" fill="none" stroke="#707070" stroke-miterlimit="10" stroke-width="0.25"/>
                    <path id="Path_544" data-name="Path 544" d="M940.567,730.735a1,1,0,0,1,.909.58.968.968,0,0,1,.1.426h-7.605a.5.5,0,0,1-.19-.97.487.487,0,0,1,.19-.037h6.6m0-.193h-6.6a.686.686,0,0,0-.264.052.708.708,0,0,0-.227.151.7.7,0,0,0,.491,1.187h7.8v-.191a1.156,1.156,0,0,0-.116-.51,1.2,1.2,0,0,0-1.082-.689Z" transform="translate(-933.274 -730.542)" fill="none" stroke="#707070" stroke-miterlimit="10" stroke-width="0.25"/>
                  </g>
                  <path id="Path_545" data-name="Path 545" d="M941.521,731.679h-7.605a.5.5,0,0,1-.19-.97l-.007.028a.36.36,0,0,0,.206.414.8.8,0,0,0,.234.033c1.924.063,2.833.1,4.757.089q1.1,0,2.2-.026c.1,0,.2,0,.307.005A.969.969,0,0,1,941.521,731.679Z" transform="translate(-929.142 -730.479)" fill="none" stroke="#707070" stroke-miterlimit="10" stroke-width="0.25"/>
                  <g id="Group_221" data-name="Group 221" transform="translate(4.08 2.308)">
                    <path id="Path_546" data-name="Path 546" d="M933.344,733.913v-.946a.674.674,0,0,1,.2-.481.564.564,0,0,1,.146-.107.62.62,0,0,1,.294-.085l.033,0h2.688a.3.3,0,0,1,.05,0,.625.625,0,0,1,.282.084.658.658,0,0,1,.144.11.67.67,0,0,1,.2.479v.946Z" transform="translate(-933.248 -732.194)" fill="none" stroke="#707070" stroke-miterlimit="10" stroke-width="0.25"/>
                    <g id="Group_220" data-name="Group 220">
                      <path id="Path_547" data-name="Path 547" d="M936.735,732.412a.11.11,0,0,1,.03,0,.541.541,0,0,1,.253.072.572.572,0,0,1,.122.094.582.582,0,0,1,.175.413v.85h-3.849v-.85a.582.582,0,0,1,.175-.413.462.462,0,0,1,.122-.091.521.521,0,0,1,.253-.074.111.111,0,0,1,.03,0h2.688m0-.193h-2.688a.334.334,0,0,0-.048,0,.738.738,0,0,0-.328.1.649.649,0,0,0-.169.128.756.756,0,0,0-.228.545v1.043h4.234v-1.043a.766.766,0,0,0-.232-.55.73.73,0,0,0-.161-.121.738.738,0,0,0-.33-.1.364.364,0,0,0-.05,0Z" transform="translate(-933.274 -732.22)" fill="none" stroke="#707070" stroke-miterlimit="10" stroke-width="0.25"/>
                    </g>
                  </g>
                  <path id="Path_548" data-name="Path 548" d="M937.263,733.4v.386h-3.849v-.85a.582.582,0,0,1,.175-.413.463.463,0,0,1,.122-.091.521.521,0,0,1,.253-.074.113.113,0,0,1,.03,0H934a3.348,3.348,0,0,0,.047.586.467.467,0,0,0,.1.263.494.494,0,0,0,.3.118A25.468,25.468,0,0,0,937.263,733.4Z" transform="translate(-929.142 -729.859)" fill="none" stroke="#707070" stroke-miterlimit="10" stroke-width="0.25"/>
                  <g id="Group_223" data-name="Group 223" transform="translate(3.106 3.737)">
                    <path id="Path_549" data-name="Path 549" d="M932.636,734.952v-.9a.722.722,0,0,1,.721-.721H937.9a.723.723,0,0,1,.722.721v.9Z" transform="translate(-932.54 -733.233)" fill="none" stroke="#707070" stroke-miterlimit="10" stroke-width="0.25"/>
                    <g id="Group_222" data-name="Group 222">
                      <path id="Path_550" data-name="Path 550" d="M937.93,733.451a.625.625,0,0,1,.626.625v.806h-5.8v-.806a.625.625,0,0,1,.626-.625h4.547m0-.193h-4.547a.818.818,0,0,0-.817.817v1h6.181v-1a.818.818,0,0,0-.817-.817Z" transform="translate(-932.566 -733.259)" fill="none" stroke="#707070" stroke-miterlimit="10" stroke-width="0.25"/>
                    </g>
                  </g>
                  <path id="Path_551" data-name="Path 551" d="M938.5,734.466v.363h-5.8v-.806a.625.625,0,0,1,.626-.625h.022c-.012.139-.027.276-.043.414a.706.706,0,0,0,.005.246c.063.227.334.316.569.345a6.982,6.982,0,0,0,.865.036l3.021-.01A4.656,4.656,0,0,1,938.5,734.466Z" transform="translate(-929.408 -729.469)" fill="none" stroke="#707070" stroke-miterlimit="10" stroke-width="0.25"/>
                  <g id="Group_231" data-name="Group 231" transform="translate(0 1.198)">
                    <g id="Group_227" data-name="Group 227" transform="translate(0 3.968)" opacity="0.9">
                      <g id="Group_225" data-name="Group 225">
                        <path id="Path_552" data-name="Path 552" d="M931.95,754.537a1.683,1.683,0,0,1-1.572-1.772v-15a3.226,3.226,0,0,1,3.008-3.4h6.183a3.228,3.228,0,0,1,3.009,3.4v15a1.683,1.683,0,0,1-1.572,1.772Z" transform="translate(-930.282 -734.272)" fill="none" stroke="#707070" stroke-miterlimit="10" stroke-width="0.25"/>
                        <g id="Group_224" data-name="Group 224">
                          <path id="Path_553" data-name="Path 553" d="M939.6,734.49a3.128,3.128,0,0,1,2.913,3.305v15a1.585,1.585,0,0,1-1.476,1.675h-9.056a1.586,1.586,0,0,1-1.476-1.675v-15a3.126,3.126,0,0,1,2.912-3.3H939.6m0-.193h-6.183a3.323,3.323,0,0,0-3.1,3.5v15a1.778,1.778,0,0,0,1.668,1.867h9.056a1.778,1.778,0,0,0,1.668-1.867v-15a3.324,3.324,0,0,0-3.106-3.5Z" transform="translate(-930.308 -734.298)" fill="none" stroke="#707070" stroke-miterlimit="10" stroke-width="0.25"/>
                        </g>
                      </g>
                      <g id="Group_226" data-name="Group 226" transform="translate(0.702 0.607)">
                        <path id="Path_554" data-name="Path 554" d="M935.038,734.816a3.451,3.451,0,0,0-1.148-.056,3.674,3.674,0,0,0-1.843.45,2.3,2.3,0,0,0-1.131,1.658c-.047.275-.025.552-.053.827-.008.077-.037.15-.043.227-.008.094.047.22.023.307a7.916,7.916,0,0,1,.517-1.585,2.639,2.639,0,0,1,1.109-1.213,3.913,3.913,0,0,1,1.11-.319l1.015-.186A2.708,2.708,0,0,0,935.038,734.816Z" transform="translate(-930.818 -734.74)" fill="none" stroke="#707070" stroke-miterlimit="10" stroke-width="0.25"/>
                      </g>
                    </g>
                    <g id="Group_229" data-name="Group 229" transform="translate(11.092)">
                      <g id="Group_228" data-name="Group 228">
                        <path id="Path_555" data-name="Path 555" d="M939.5,731.605h-.975a.156.156,0,0,1-.155-.155v-.037h1.286v.037A.155.155,0,0,1,939.5,731.605Z" transform="translate(-938.372 -731.413)" fill="none" stroke="#707070" stroke-miterlimit="10" stroke-width="0.25"/>
                      </g>
                    </g>
                    <rect id="Rectangle_30" data-name="Rectangle 30" width="0.224" height="6.005" transform="translate(6.085 4.219)" fill="none" stroke="#707070" stroke-miterlimit="10" stroke-width="0.25"/>
                    <path id="Path_556" data-name="Path 556" d="M931.757,752.066a.93.93,0,0,1-.865-.982V738.845h10.787v12.239a.93.93,0,0,1-.865.982Z" transform="translate(-930.089 -728.622)" fill="none" stroke="#707070" stroke-miterlimit="10" stroke-width="0.25"/>
                    <g id="Group_230" data-name="Group 230" transform="translate(10.332 5.345)" style="mix-blend-mode: overlay;isolation: isolate">
                      <rect id="Rectangle_31" data-name="Rectangle 31" width="0.577" height="17.233" rx="0.169" fill="none" stroke="#707070" stroke-miterlimit="10" stroke-width="0.25"/>
                    </g>
                    <rect id="Rectangle_32" data-name="Rectangle 32" width="0.224" height="6.97" transform="translate(6.085 10.224)" fill="none" stroke="#707070" stroke-miterlimit="10" stroke-width="0.25" opacity="0.4"/>
                  </g>
                </g>
              </g>
            </g>
            <circle id="SVGID-4" data-name="SVGID" cx="12.408" cy="12.408" r="12.408" fill="none" stroke="#707070" stroke-miterlimit="10" stroke-width="0.75"/>
          </g>
          <g id="Group_251" data-name="Group 251" transform="translate(0 0.337)">
            <g id="Group_249" data-name="Group 249" transform="translate(4.326 2.623)">
              <g id="Group_240" data-name="Group 240" transform="translate(0 7.186)">
                <g id="Group_237" data-name="Group 237">
                  <path id="Path_557" data-name="Path 557" d="M908.532,738.757a1.014,1.014,0,0,1-.242-.029,1.051,1.051,0,0,1-.729-.663,2.019,2.019,0,0,1-.076-.688,2.323,2.323,0,0,0-.036-.532,2.233,2.233,0,0,0-.11-.325c-.025-.062-.049-.125-.072-.19a2.147,2.147,0,0,1-.051-1.179.942.942,0,0,1,.462-.662.824.824,0,0,1,.347-.066h.019a1.238,1.238,0,0,1,.4.076l.036.012.014.036c.055.144.12.289.2.444a4.068,4.068,0,0,1,.4,2.259.315.315,0,0,0,.047-.028l.132-.095.007,1.331-.026.025a.95.95,0,0,1-.235.16A1.074,1.074,0,0,1,908.532,738.757Z" transform="translate(-907.073 -734.34)" fill="none" stroke="#707070" stroke-miterlimit="10" stroke-width="0.25"/>
                  <g id="Group_236" data-name="Group 236">
                    <path id="Path_558" data-name="Path 558" d="M908.049,734.531h.018a1.133,1.133,0,0,1,.371.07c.055.144.121.293.2.451a3.931,3.931,0,0,1,.36,1.117,4.02,4.02,0,0,1,.014,1.212.35.35,0,0,0,.193-.066l.007,1.131a.879.879,0,0,1-.213.146.985.985,0,0,1-.442.1.941.941,0,0,1-.223-.028.972.972,0,0,1-.668-.608,11.254,11.254,0,0,1-.11-1.212,4.979,4.979,0,0,0-.183-.523,2.038,2.038,0,0,1-.049-1.131.857.857,0,0,1,.415-.605.738.738,0,0,1,.312-.059m0-.168a.886.886,0,0,0-.382.074,1,1,0,0,0-.509.718,2.223,2.223,0,0,0,.054,1.226c.022.066.048.129.073.194a2.159,2.159,0,0,1,.106.311,2.229,2.229,0,0,1,.034.514,2.062,2.062,0,0,0,.08.715,1.111,1.111,0,0,0,1.051.748,1.162,1.162,0,0,0,.517-.122,1.022,1.022,0,0,0,.252-.172l.055-.05v-.074l-.005-1.132,0-.325-.161.116a4.2,4.2,0,0,0-.045-.963,4.1,4.1,0,0,0-.375-1.164c-.076-.153-.138-.3-.193-.437l-.026-.07-.072-.027a1.339,1.339,0,0,0-.426-.08Z" transform="translate(-907.096 -734.363)" fill="none" stroke="#707070" stroke-miterlimit="10" stroke-width="0.25"/>
                  </g>
                </g>
                <path id="Path_559" data-name="Path 559" d="M909.081,738.4a.875.875,0,0,1-.213.146.952.952,0,0,1-1.333-.531,2.6,2.6,0,0,1-.052-.876.377.377,0,0,0,.07.179c.045.08.077.169.116.252a.516.516,0,0,0,.156.226.487.487,0,0,0,.269.059.523.523,0,0,0,.45-.162.476.476,0,0,0,.069-.235.462.462,0,0,0-.038-.26,1.286,1.286,0,0,0-.169-.19.546.546,0,0,1-.12-.367.846.846,0,0,1,.112-.376c.031-.059.069-.116.1-.176a.6.6,0,0,0,.036-.365.4.4,0,0,0-.143-.239.468.468,0,0,0-.23-.078.728.728,0,0,0-.5.118.5.5,0,0,0-.217.447,1.128,1.128,0,0,1,.068-.473.84.84,0,0,1,.08-.166.674.674,0,0,1,.791-.249.684.684,0,0,0-.823-.484.628.628,0,0,1,.4-.118c.048,0,.329.027.347.076.055.144.121.293.2.451a3.934,3.934,0,0,1,.36,1.117,4.021,4.021,0,0,1,.014,1.212.349.349,0,0,0,.193-.066Z" transform="translate(-906.967 -734.319)" fill="none" stroke="#707070" stroke-miterlimit="10" stroke-width="0.25"/>
                <g id="Group_239" data-name="Group 239" transform="translate(12.799)">
                  <path id="Path_560" data-name="Path 560" d="M917.2,738.757a1.066,1.066,0,0,1-.479-.114.942.942,0,0,1-.234-.158l-.027-.025.008-1.309.168-.014c.008.055.015.109.021.164h.063a13.419,13.419,0,0,1-.015-1.714,3.969,3.969,0,0,1,.263-.906l.01-.026.022-.014a1.328,1.328,0,0,1,.686-.216h.019a.83.83,0,0,1,.348.066.94.94,0,0,1,.464.662,2.173,2.173,0,0,1-.052,1.179c-.023.067-.05.133-.076.2a2.188,2.188,0,0,0-.107.314,2.247,2.247,0,0,0-.035.532,1.985,1.985,0,0,1-.076.688,1.056,1.056,0,0,1-.729.663A1.014,1.014,0,0,1,917.2,738.757Z" transform="translate(-916.378 -734.34)" fill="none" stroke="#707070" stroke-miterlimit="10" stroke-width="0.25"/>
                  <g id="Group_238" data-name="Group 238">
                    <path id="Path_561" data-name="Path 561" d="M917.73,734.531a.73.73,0,0,1,.312.059.855.855,0,0,1,.417.605,2.067,2.067,0,0,1-.049,1.131,5.38,5.38,0,0,0-.184.523,10.967,10.967,0,0,1-.107,1.212.979.979,0,0,1-.671.608.932.932,0,0,1-.222.028.988.988,0,0,1-.441-.1.912.912,0,0,1-.215-.146l.008-1.272c.014.078.022.155.03.234h.254a8.41,8.41,0,0,1-.048-1.787,3.856,3.856,0,0,1,.257-.887,1.242,1.242,0,0,1,.641-.2h.018m0-.168h-.021a1.4,1.4,0,0,0-.73.228l-.045.03-.021.051a4.13,4.13,0,0,0-.266.926,13.606,13.606,0,0,0,0,1.556l-.234.018-.008,1.274v.074l.054.05a1.035,1.035,0,0,0,.257.173,1.149,1.149,0,0,0,.513.121,1.1,1.1,0,0,0,.261-.032,1.142,1.142,0,0,0,.789-.715,2.07,2.07,0,0,0,.08-.717,2.14,2.14,0,0,1,.033-.513,2.192,2.192,0,0,1,.1-.3c.026-.066.054-.135.077-.2a2.245,2.245,0,0,0,.054-1.224,1.025,1.025,0,0,0-.51-.719.9.9,0,0,0-.382-.073Z" transform="translate(-916.401 -734.363)" fill="none" stroke="#707070" stroke-miterlimit="10" stroke-width="0.25"/>
                  </g>
                </g>
                <path id="Path_562" data-name="Path 562" d="M916.475,738.4a.879.879,0,0,0,.213.146.952.952,0,0,0,1.333-.531,2.6,2.6,0,0,0,.052-.876.364.364,0,0,1-.07.179c-.044.08-.077.169-.116.252a.5.5,0,0,1-.155.226.487.487,0,0,1-.27.059.524.524,0,0,1-.45-.162.606.606,0,0,1-.03-.5,1.314,1.314,0,0,1,.169-.19.545.545,0,0,0,.12-.367.861.861,0,0,0-.11-.376c-.033-.059-.07-.116-.1-.176a.6.6,0,0,1-.036-.365.4.4,0,0,1,.143-.239.468.468,0,0,1,.231-.078.731.731,0,0,1,.5.118.5.5,0,0,1,.216.447,1.129,1.129,0,0,0-.066-.473.945.945,0,0,0-.081-.166.674.674,0,0,0-.791-.249A.683.683,0,0,1,918,734.6a.628.628,0,0,0-.4-.118c-.048,0-.329.027-.347.076-.055.144-.12.293-.2.451a3.936,3.936,0,0,0-.36,1.117,3.984,3.984,0,0,0-.012,1.212.349.349,0,0,1-.194-.066Z" transform="translate(-903.574 -734.319)" fill="none" stroke="#707070" stroke-miterlimit="10" stroke-width="0.25"/>
              </g>
              <g id="Group_242" data-name="Group 242" transform="translate(1.733 5.107)">
                <path id="Path_563" data-name="Path 563" d="M914.142,745.705c-1.589,0-3.022-1.259-4.095-2.354a9.931,9.931,0,0,1-.86-.974,3.7,3.7,0,0,1-.77-2.4v-3.249l.167-.014a4.018,4.018,0,0,1,.029,1.118.31.31,0,0,0,.047-.028.44.44,0,0,0,.157-.2,1.263,1.263,0,0,0,.054-.47c-.01-.737.011-1.48.062-2.216a1.2,1.2,0,0,1,.232-.75,1.29,1.29,0,0,1,.188-.162l.083-.063a1.143,1.143,0,0,0,.4-1.054h0l.166-.027-.081.015.081-.014c.183,1.091,1.652,1.781,2.862,2.011a.832.832,0,0,1-.216-.353l.156-.061a.957.957,0,0,0,.655.428,5.006,5.006,0,0,0,1.343.164,15.338,15.338,0,0,0,1.563-.109,15.332,15.332,0,0,1,1.593-.11H918a.58.58,0,0,1,.664.726,1.669,1.669,0,0,0,.016.27.656.656,0,0,0,.307.44c.029.016.058.032.087.045a.718.718,0,0,1,.216.146.671.671,0,0,1,.138.265,5.642,5.642,0,0,1,.231,1c.008.052.015.107.021.161h.187v2.095a3.853,3.853,0,0,1-.769,2.442,8.441,8.441,0,0,1-1.129,1.184C916.984,744.492,915.635,745.705,914.142,745.705Z" transform="translate(-908.333 -732.849)" fill="none" stroke="#707070" stroke-miterlimit="10" stroke-width="0.25"/>
                <g id="Group_241" data-name="Group 241">
                  <path id="Path_564" data-name="Path 564" d="M909.936,732.878h0m0,0c.228,1.356,2.254,2.043,3.422,2.15a.779.779,0,0,1-.612-.53,1.06,1.06,0,0,0,.708.472,5.082,5.082,0,0,0,1.365.166c1.041,0,2.106-.219,3.155-.219h.048a.658.658,0,0,1,.428.109c.217.186.119.536.171.817a.739.739,0,0,0,.346.5,1.176,1.176,0,0,1,.284.176.606.606,0,0,1,.12.235,5.651,5.651,0,0,1,.227.986c.014.078.022.155.03.234h.176v2.011a3.758,3.758,0,0,1-.751,2.391,8.236,8.236,0,0,1-1.118,1.173c-1,.9-2.322,2.074-3.77,2.074-1.581,0-3.01-1.281-4.034-2.327a9.83,9.83,0,0,1-.853-.966,3.613,3.613,0,0,1-.754-2.345v-3.249a4.021,4.021,0,0,1,.014,1.212.349.349,0,0,0,.193-.066.52.52,0,0,0,.187-.243,1.338,1.338,0,0,0,.059-.513c-.01-.733.011-1.468.062-2.2a1.138,1.138,0,0,1,.212-.7,2.08,2.08,0,0,1,.26-.216,1.232,1.232,0,0,0,.426-1.133m.166-.028-.051.008-.115.018-.165.028.179-.029-.179.03a1.073,1.073,0,0,1-.367.975l-.079.061a1.246,1.246,0,0,0-.2.175,1.307,1.307,0,0,0-.253.8c-.051.739-.071,1.483-.062,2.212v.012a1.208,1.208,0,0,1-.047.439.481.481,0,0,1-.023.048,4.2,4.2,0,0,0-.048-.917l-.334.028v3.249a3.789,3.789,0,0,0,.787,2.447,9.79,9.79,0,0,0,.867.981c1.084,1.109,2.535,2.38,4.155,2.38,1.525,0,2.887-1.226,3.882-2.12a8.387,8.387,0,0,0,1.142-1.2,3.92,3.92,0,0,0,.786-2.491v-2.179h-.2c0-.032-.008-.062-.014-.094a5.741,5.741,0,0,0-.234-1.011.764.764,0,0,0-.155-.3.775.775,0,0,0-.239-.162.923.923,0,0,1-.081-.044.574.574,0,0,1-.268-.384,1.858,1.858,0,0,1-.015-.254.659.659,0,0,0-.747-.809h-.05a15.533,15.533,0,0,0-1.6.111,15.114,15.114,0,0,1-1.553.109,4.908,4.908,0,0,1-1.32-.161.88.88,0,0,1-.6-.384l-.312.122a.864.864,0,0,0,.089.2c-1.135-.261-2.407-.909-2.572-1.9Z" transform="translate(-908.356 -732.852)" fill="none" stroke="#707070" stroke-miterlimit="10" stroke-width="0.25"/>
                </g>
              </g>
              <g id="Group_244" data-name="Group 244" transform="translate(0.883)">
                <path id="Path_565" data-name="Path 565" d="M919.753,739.354a5.721,5.721,0,0,0-.253-1.2.541.541,0,0,0-.1-.2.6.6,0,0,0-.168-.109c-.033-.017-.066-.033-.1-.052a.822.822,0,0,1-.387-.556,1.935,1.935,0,0,1-.019-.3c0-.19,0-.369-.124-.47a.585.585,0,0,0-.374-.089h-.047a15.492,15.492,0,0,0-1.576.11,15.519,15.519,0,0,1-1.579.11,5.181,5.181,0,0,1-1.388-.17l-.07-.021-.011.083c-1.084-.1-2.8-.662-3.347-1.762a1.309,1.309,0,0,1-.44.725c-.03.025-.059.047-.089.069a1.163,1.163,0,0,0-.162.137,1.069,1.069,0,0,0-.19.649c-.051.726-.071,1.464-.062,2.191a1.454,1.454,0,0,1-.063.545.539.539,0,0,1-.458.363l-.1,0,.014-.1a3.916,3.916,0,0,0-.365-2.279,4.258,4.258,0,0,1-.473-1.737,7.831,7.831,0,0,1,.041-1.675,4.409,4.409,0,0,1,.3-1.087,2.183,2.183,0,0,1,1.579-1.435l.1-.01a.27.27,0,0,0,.183-.052.766.766,0,0,0,.126-.194l.019-.039a2.916,2.916,0,0,1,2.026-1.411,10.113,10.113,0,0,1,1.994-.188c.248,0,.506.008.769.023h.025l.037,0a6.352,6.352,0,0,1,4.583,2.465,5.2,5.2,0,0,1,1.017,4.245,5.114,5.114,0,0,1-.238.752,3.875,3.875,0,0,0-.256.88,10.708,10.708,0,0,0,.023,1.724.063.063,0,0,0-.058-.032v.168h-.333Z" transform="translate(-907.715 -729.116)" fill="none" stroke="#707070" stroke-miterlimit="10" stroke-width="0.25"/>
                <g id="Group_243" data-name="Group 243">
                  <path id="Path_566" data-name="Path 566" d="M914.214,729.308c.254,0,.51.008.763.022.022,0,.045,0,.068,0,3.265.208,6.221,3.2,5.517,6.608-.118.572-.42,1.059-.5,1.64a8.222,8.222,0,0,0,.05,1.787h-.257a5.7,5.7,0,0,0-.256-1.22.615.615,0,0,0-.12-.235,1.164,1.164,0,0,0-.283-.175.742.742,0,0,1-.347-.5c-.05-.282.047-.63-.171-.817a.655.655,0,0,0-.428-.109h-.048c-1.05,0-2.114.219-3.155.219a5.1,5.1,0,0,1-1.366-.166,1.052,1.052,0,0,1-.706-.472.778.778,0,0,0,.611.531c-1.169-.107-3.2-.795-3.422-2.154a1.235,1.235,0,0,1-.426,1.136,2.086,2.086,0,0,0-.26.216,1.144,1.144,0,0,0-.212.7c-.051.732-.071,1.466-.063,2.2a1.364,1.364,0,0,1-.056.513.452.452,0,0,1-.381.31,3.992,3.992,0,0,0-.373-2.329,4.2,4.2,0,0,1-.465-1.707,7.746,7.746,0,0,1,.041-1.656,4.336,4.336,0,0,1,.293-1.066,2.079,2.079,0,0,1,1.514-1.384c.114-.018.238,0,.326-.085a.964.964,0,0,0,.161-.253,2.844,2.844,0,0,1,1.968-1.369,9.931,9.931,0,0,1,1.978-.186m0-.169v0a10.168,10.168,0,0,0-2.011.19,3,3,0,0,0-2.084,1.455l-.021.038a.665.665,0,0,1-.109.172c-.021.021-.063.025-.131.029-.035,0-.07.006-.1.011a2.213,2.213,0,0,0-1.642,1.484,4.461,4.461,0,0,0-.305,1.107,7.809,7.809,0,0,0-.043,1.693,4.316,4.316,0,0,0,.481,1.769,3.832,3.832,0,0,1,.358,2.231l-.029.2.2-.005a.621.621,0,0,0,.534-.417,1.533,1.533,0,0,0,.069-.569c-.01-.732.011-1.468.062-2.191a1,1,0,0,1,.169-.6,1.088,1.088,0,0,1,.149-.127c.032-.023.063-.047.092-.072a1.382,1.382,0,0,0,.413-.578,4.729,4.729,0,0,0,3.315,1.634l.01-.081.056.016a5.278,5.278,0,0,0,1.41.173,15.667,15.667,0,0,0,1.589-.11,15.325,15.325,0,0,1,1.567-.11h.047a.527.527,0,0,1,.319.069c.084.073.092.2.1.409a1.848,1.848,0,0,0,.021.311.908.908,0,0,0,.426.613c.033.019.067.037.1.055a.481.481,0,0,1,.144.089.5.5,0,0,1,.083.173,5.621,5.621,0,0,1,.249,1.184l.014.153h.41V739.2h0a.15.15,0,0,1,.136.084,11.637,11.637,0,0,1-.019-1.681,3.914,3.914,0,0,1,.252-.861,5.2,5.2,0,0,0,.242-.766,5.274,5.274,0,0,0-1.032-4.312,6.438,6.438,0,0,0-4.641-2.5h-.01l-.03,0h-.028c-.263-.015-.523-.023-.773-.023Z" transform="translate(-907.738 -729.139)" fill="none" stroke="#707070" stroke-miterlimit="10" stroke-width="0.25"/>
                </g>
              </g>
              <path id="Path_567" data-name="Path 567" d="M913.55,736.148a.779.779,0,0,1-.611-.531,1.053,1.053,0,0,0,.706.472c1.476.409,3.039-.062,4.569-.052a.655.655,0,0,1,.428.109c.217.187.121.535.171.817a.741.741,0,0,0,.347.5,1.161,1.161,0,0,1,.283.175.618.618,0,0,1,.12.235,5.708,5.708,0,0,1,.256,1.22h.257a8.218,8.218,0,0,1-.049-1.787c.076-.58.377-1.067.5-1.64a4.674,4.674,0,0,0,0-2.029,2.071,2.071,0,0,0-.356-.74,1.864,1.864,0,0,0-.3-.318c-.065-.056-.255-.137-.292-.206a5.4,5.4,0,0,1,.391.843,5.5,5.5,0,0,1,.125,2.128.681.681,0,0,0-.135-.685,1.458,1.458,0,0,0-.615-.389,1.731,1.731,0,0,1,.364.868,1.5,1.5,0,0,0-1.206-.56c-.481-.04-.968-.016-1.45-.067a4.676,4.676,0,0,1-1.875-.623,4.876,4.876,0,0,0,1.487,1.01q-.788-.122-1.572-.267a8.415,8.415,0,0,1-1.766-.484,4.331,4.331,0,0,1-.792-.431,4.047,4.047,0,0,1-.364-.285c-.066-.058-.278-.2-.3-.289a2.653,2.653,0,0,0,.468,1.052,2.264,2.264,0,0,0,.784.69c-.184-.092-.436-.106-.633-.191a3.12,3.12,0,0,1-.528-.3,3.386,3.386,0,0,1-.882-.915,4.381,4.381,0,0,1-.619-1.574,3.23,3.23,0,0,1-.051-1.066,1.83,1.83,0,0,1,.427-.967,3.517,3.517,0,0,0-.605.711.969.969,0,0,1-.161.253c-.088.085-.212.067-.326.085a1.643,1.643,0,0,0-.615.231c-.154.1-.274.265-.446.33a.615.615,0,0,1,.685.2,1.045,1.045,0,0,1,.142.289,5.074,5.074,0,0,1,.248,1.58,2.992,2.992,0,0,1-.063.768,1.244,1.244,0,0,1-.385.657,1.775,1.775,0,0,0,.183-.884,2.377,2.377,0,0,1-.882,1.234,1.666,1.666,0,0,0-.213-.993,2.74,2.74,0,0,0-.033,1.078,3.15,3.15,0,0,1-.356-1.946,3.071,3.071,0,0,0-.113,1.565,4.192,4.192,0,0,0,.465,1.707,3.993,3.993,0,0,1,.373,2.329.452.452,0,0,0,.381-.31,1.366,1.366,0,0,0,.056-.513c-.008-.733.012-1.468.063-2.2a1.146,1.146,0,0,1,.212-.7,2.078,2.078,0,0,1,.26-.216,1.235,1.235,0,0,0,.426-1.136C910.355,735.353,912.381,736.041,913.55,736.148Z" transform="translate(-906.815 -728.863)" fill="none" stroke="#707070" stroke-miterlimit="10" stroke-width="0.25"/>
              <g id="Group_246" data-name="Group 246" transform="translate(2.484 9.73)">
                <path id="Path_568" data-name="Path 568" d="M913.936,744.423c-1.589,0-3.022-1.259-4.095-2.353a9.929,9.929,0,0,1-.86-.974l-.018-.025.135-3.5,4.837-1.3,4.835,1.3.139,3.542-.018.023a5.3,5.3,0,0,1-.389.465c-.194.212-.429.44-.74.719C916.778,743.21,915.43,744.423,913.936,744.423Z" transform="translate(-908.879 -736.189)" fill="none" stroke="#707070" stroke-miterlimit="10" stroke-width="0.25"/>
                <g id="Group_245" data-name="Group 245">
                  <path id="Path_569" data-name="Path 569" d="M913.96,736.388l.037.01,4.717,1.268.135,3.448a5.286,5.286,0,0,1-.382.458c-.219.238-.466.472-.736.715-1,.9-2.322,2.074-3.77,2.074-1.58,0-3.01-1.281-4.034-2.327a9.808,9.808,0,0,1-.853-.966l.132-3.4,4.755-1.278m0-.175-.043.011-4.755,1.279-.12.032,0,.124-.132,3.4,0,.058.036.048a9.63,9.63,0,0,0,.867.982c1.084,1.109,2.535,2.38,4.156,2.38,1.525,0,2.887-1.226,3.882-2.12.318-.285.549-.509.748-.725a5.278,5.278,0,0,0,.393-.472l.036-.047,0-.059-.135-3.45-.006-.124-.12-.032-4.715-1.268-.039-.011-.044-.011Z" transform="translate(-908.902 -736.213)" fill="none" stroke="#707070" stroke-miterlimit="10" stroke-width="0.25"/>
                </g>
              </g>
              <g id="Group_247" data-name="Group 247" transform="translate(12.211 10.146)">
                <path id="Path_570" data-name="Path 570" d="M916.058,737.636a.084.084,0,0,1-.059-.144l.966-.952a.083.083,0,0,1,.118,0,.084.084,0,0,1,0,.12l-.967.952A.079.079,0,0,1,916.058,737.636Z" transform="translate(-915.973 -736.515)" fill="none" stroke="#707070" stroke-miterlimit="10" stroke-width="0.25"/>
              </g>
              <g id="Group_248" data-name="Group 248" transform="translate(1.83 10.119)">
                <path id="Path_571" data-name="Path 571" d="M909.383,737.643a.083.083,0,0,1-.063-.029l-.872-.978a.085.085,0,0,1,.127-.113l.872.979a.083.083,0,0,1-.008.118A.078.078,0,0,1,909.383,737.643Z" transform="translate(-908.427 -736.496)" fill="none" stroke="#707070" stroke-miterlimit="10" stroke-width="0.25"/>
              </g>
              <path id="Path_572" data-name="Path 572" d="M918.419,741.524c-.219.238-.466.472-.736.715-1,.9-2.322,2.074-3.77,2.074-1.58,0-3.01-1.281-4.034-2.327a9.816,9.816,0,0,1-.853-.966l.132-3.4,4.755-1.278.037.01a3.412,3.412,0,0,1-.421.47,6.4,6.4,0,0,1-.924.413,3.8,3.8,0,0,1-.708.243c-.161.043-.5.065-.567.257a.367.367,0,0,0-.012.129v.494c0,.129-.018.374.1.466.074.061.2.03.292.027a3.734,3.734,0,0,0,1.038-.144,3.374,3.374,0,0,1,1.037-.316,2.4,2.4,0,0,1,1.019.393,5.376,5.376,0,0,0,2.646.63c-.15,0-.346.124-.506.149a4.113,4.113,0,0,1-.554.036,4.765,4.765,0,0,0-1.1.073c-.364.089-.7.23-1.08.285a3.875,3.875,0,0,1-1.5-.041c-.308-.077-.6-.217-.916-.27-.243-.04-.443-.049-.539.22a1.609,1.609,0,0,0-.089.435c-.012.2,0,.21.186.27.313.1.635.18.952.272.216.063.411.248.626.334a2.413,2.413,0,0,0,.721.172c.6.049,1.206-.121,1.807-.063-.139.067-.281.131-.424.191a2.045,2.045,0,0,1-.344.122,2.234,2.234,0,0,1-.469.039,9.909,9.909,0,0,1-1.924-.154c-.147-.029-.9-.307-.974-.2a.234.234,0,0,0-.029.126l-.041.86-.008.176c-.011.25.331.338.534.424a1.887,1.887,0,0,0,1.017.307,4.349,4.349,0,0,0,.693-.22,1.941,1.941,0,0,1,1.3.055,3.786,3.786,0,0,0,.426.171,1.392,1.392,0,0,0,.982-.171,8.606,8.606,0,0,0,1.173-.652,6.325,6.325,0,0,0,.552-.461c.076-.07.5-.389.5-.482C918.415,741.454,918.419,741.488,918.419,741.524Z" transform="translate(-906.372 -726.435)" fill="none" stroke="#707070" stroke-miterlimit="10" stroke-width="0.25"/>
            </g>
            <g id="Group_250" data-name="Group 250">
              <path id="Path_573" data-name="Path 573" d="M915.819,750.969A11.868,11.868,0,1,1,927.688,739.1,11.882,11.882,0,0,1,915.819,750.969Z" transform="translate(-903.951 -727.232)" fill="none" stroke="#707070" stroke-miterlimit="10" stroke-width="0.75"/>
            </g>
          </g>
        </g>
      </g>
      <path id="Path_574" data-name="Path 574" d="M972.242,733.412h3.369a1.619,1.619,0,0,1,1.619,1.62v3.8a.82.82,0,0,1-.707.831.788.788,0,0,1-.871-.785v5.644a.79.79,0,0,1-.872.785.82.82,0,0,1-.707-.831V738.69h-.293v5.833a.79.79,0,0,1-.871.785.82.82,0,0,1-.708-.831v-5.6a.789.789,0,0,1-.871.785.82.82,0,0,1-.708-.831v-3.8A1.62,1.62,0,0,1,972.242,733.412Zm1.684-2.988a1.36,1.36,0,1,0,1.36,1.36A1.361,1.361,0,0,0,973.926,730.425Z" transform="translate(-878.916 -725.696)" fill="none" stroke="#707070" stroke-miterlimit="10" stroke-width="0.5"/>
      <path id="Path_575" data-name="Path 575" d="M983.235,733.412H986.6a1.621,1.621,0,0,1,1.62,1.62v3.8a.82.82,0,0,1-.708.831.788.788,0,0,1-.871-.785v5.644a.79.79,0,0,1-.871.785.82.82,0,0,1-.708-.831V738.69h-.293v5.833a.789.789,0,0,1-.871.785.82.82,0,0,1-.708-.831v-5.6a.788.788,0,0,1-.871.785.82.82,0,0,1-.708-.831v-3.8A1.621,1.621,0,0,1,983.235,733.412Zm1.684-2.988a1.36,1.36,0,1,0,1.36,1.36A1.361,1.361,0,0,0,984.919,730.425Z" transform="translate(-874.788 -725.696)" fill="none" stroke="#707070" stroke-miterlimit="10" stroke-width="0.5"/>
      <g id="Group_253" data-name="Group 253" transform="translate(99.963 10.425)">
        <path id="Path_576" data-name="Path 576" d="M976.625,738.256v-.6a4.553,4.553,0,0,1,.4-.512l.11-.12.33-.377a3.348,3.348,0,0,0,.4-.546,1.025,1.025,0,0,0,.155-.514.473.473,0,0,0-.157-.384.594.594,0,0,0-.391-.131,1.624,1.624,0,0,0-.739.2v-.539a2.467,2.467,0,0,1,.926-.171,1.121,1.121,0,0,1,.844.3.955.955,0,0,1,.292.685.984.984,0,0,1-.107.446,2.234,2.234,0,0,1-.437.535l-.287.279a3.119,3.119,0,0,0-.641.846h1.459v.6Z" transform="translate(-976.625 -734.566)" fill="url(#linear-gradient)"/>
        <path id="Path_577" data-name="Path 577" d="M978.665,738.232v-3.6h.832l.481,1.618h.008l.5-1.618h.767v3.6h-.539v-2.763h-.007l-.512,1.8h-.549l-.5-1.8h-.007v2.766Z" transform="translate(-975.859 -734.541)" fill="url(#linear-gradient-2)"/>
      </g>
      <g id="Group_254" data-name="Group 254" transform="translate(99.237 8.52)">
        <line id="Line_2" data-name="Line 2" x2="6.355" transform="translate(0.248 0.248)" fill="none" stroke="#707070" stroke-miterlimit="10" stroke-width="0.25"/>
        <path id="Path_578" data-name="Path 578" d="M976.593,733.429a.248.248,0,1,1-.247-.248A.249.249,0,0,1,976.593,733.429Z" transform="translate(-976.097 -733.181)" fill="none" stroke="#707070" stroke-miterlimit="10" stroke-width="0.25"/>
        <path id="Path_579" data-name="Path 579" d="M981.215,733.429a.249.249,0,1,1-.249-.248A.249.249,0,0,1,981.215,733.429Z" transform="translate(-974.362 -733.181)" fill="none" stroke="#707070" stroke-miterlimit="10" stroke-width="0.25"/>
      </g>
    </g>
    <path id="Path_1838" data-name="Path 1838" d="M12.372,0A12.372,12.372,0,1,1,0,12.372,12.665,12.665,0,0,1,2.089,5.49,12.176,12.176,0,0,1,12.372,0Z" transform="translate(884.385 988.092) rotate(-80.588)" fill="none" stroke="#707070" stroke-width="0.75"/>
  </g>
</svg>
