<svg width="50" height="50" viewBox="0 0 50 50" fill="none" xmlns="http://www.w3.org/2000/svg">
<path d="M25 0C11.1931 0 0 11.1929 0 25C0 38.8071 11.1931 50 25 50C38.8069 50 50 38.8071 50 25C50 11.1929 38.8069 0 25 0ZM21.875 31.25C21.875 32.1129 21.1754 32.8125 20.3125 32.8125H17.1875C16.3246 32.8125 15.625 32.1129 15.625 31.25V18.75C15.625 17.8871 16.3246 17.1875 17.1875 17.1875H20.3125C21.1754 17.1875 21.875 17.8871 21.875 18.75V31.25ZM34.375 31.25C34.375 32.1129 33.6754 32.8125 32.8125 32.8125H29.6875C28.8246 32.8125 28.125 32.1129 28.125 31.25V18.75C28.125 17.8871 28.8246 17.1875 29.6875 17.1875H32.8125C33.6754 17.1875 34.375 17.8871 34.375 18.75V31.25Z" fill="#FBD05A"/>
</svg>
