<svg width="50" height="50" viewBox="0 0 50 50" fill="none" xmlns="http://www.w3.org/2000/svg">
<path d="M25 0C11.1929 0 0 11.1929 0 25C0 38.8071 11.1929 50 25 50C38.8071 50 50 38.8071 50 25C50 11.1929 38.8071 0 25 0ZM33.8009 26.1058L21.6261 34.3938C21.2164 34.6727 20.6861 34.7022 20.2479 34.4705C19.8098 34.2387 19.5357 33.7837 19.5357 33.288V16.712C19.5357 16.2163 19.8098 15.7613 20.2479 15.5295C20.6861 15.2978 21.2164 15.3272 21.6261 15.6062L33.8009 23.8942C34.1668 24.1434 34.3858 24.5573 34.3858 25C34.3858 25.4427 34.1669 25.8566 33.8009 26.1058Z" fill="#FBD05A"/>
</svg>
