<svg width="211" height="271" viewBox="0 0 211 271" fill="none" xmlns="http://www.w3.org/2000/svg">
<path d="M3.29004 3.05176e-05C1.47302 3.05176e-05 6.10352e-05 1.47302 6.10352e-05 3.29004C6.10352e-05 5.10706 1.47302 6.58002 3.29004 6.58002C5.10706 6.58002 6.58008 5.10706 6.58008 3.29004C6.58008 1.47302 5.10706 3.05176e-05 3.29004 3.05176e-05Z" fill="url(#paint0_linear_31_1074)"/>
<path d="M3.29004 10.95C1.47302 10.95 6.10352e-05 12.423 6.10352e-05 14.24C6.10352e-05 16.057 1.47302 17.53 3.29004 17.53C5.10706 17.53 6.58008 16.057 6.58008 14.24C6.58008 12.423 5.10706 10.95 3.29004 10.95Z" fill="url(#paint1_linear_31_1074)"/>
<path d="M3.29004 21.91C1.47302 21.91 6.10352e-05 23.383 6.10352e-05 25.2C6.10352e-05 27.017 1.47302 28.49 3.29004 28.49C5.10706 28.49 6.58008 27.017 6.58008 25.2C6.58008 23.383 5.10706 21.91 3.29004 21.91Z" fill="url(#paint2_linear_31_1074)"/>
<path d="M3.29004 32.86C1.47302 32.86 6.10352e-05 34.333 6.10352e-05 36.1501C6.10352e-05 37.9671 1.47302 39.4401 3.29004 39.4401C5.10706 39.4401 6.58008 37.9671 6.58008 36.1501C6.58008 34.333 5.10706 32.86 3.29004 32.86Z" fill="url(#paint3_linear_31_1074)"/>
<path d="M3.29004 43.82C1.47302 43.82 6.10352e-05 45.293 6.10352e-05 47.11C6.10352e-05 48.927 1.47302 50.4 3.29004 50.4C5.10706 50.4 6.58008 48.927 6.58008 47.11C6.58008 45.293 5.10706 43.82 3.29004 43.82Z" fill="url(#paint4_linear_31_1074)"/>
<path d="M76.3805 206.76C77.2105 205.29 77.7405 203.69 77.9605 202C78.2005 200.23 78.5505 198.49 78.9305 196.75C79.2605 195.24 79.5205 193.71 79.6805 192.18C80.0605 188.53 80.7205 184.93 81.3805 181.33C81.9005 178.55 82.3905 175.78 82.4705 172.94C82.5005 171.76 82.6705 170.6 82.9605 169.45C83.0305 169.19 83.0905 168.92 83.0905 168.66C83.1005 168.22 82.8905 168.05 82.4605 168.13C82.2605 168.16 82.0705 168.23 81.8805 168.3C80.2905 168.92 78.6505 169.44 77.1005 170.18C75.2005 171.09 73.1805 171.58 71.1005 171.81C68.2605 172.12 65.4205 172.42 62.5805 172.72C59.7905 173.01 57.0905 173.67 54.4405 174.58C52.9405 175.1 51.5605 175.85 50.2805 176.8C48.7605 177.92 47.4805 179.3 46.1705 180.66C44.0605 182.84 41.6205 184.63 39.2005 186.44C36.5005 188.47 34.2805 190.89 32.8105 193.97C31.8205 196.04 30.5205 197.92 29.1905 199.78C28.3305 200.98 27.5105 202.22 26.8705 203.55C25.2905 206.85 24.4105 210.36 23.8505 213.96C23.5605 215.84 23.6505 217.72 24.0005 219.58C24.4805 222.06 25.0505 224.51 25.8305 226.91C26.9405 230.33 27.9604 233.78 28.9604 237.23C29.4604 238.94 29.8605 240.7 30.6005 242.31C31.2205 243.68 31.3004 244.99 31.1504 246.41C31.0604 247.28 31.0105 248.15 30.9405 249.02C30.8905 249.69 30.9004 250.36 30.9604 251.03C30.9804 251.23 31.0205 251.43 31.0905 251.61C31.1305 251.72 31.2404 251.84 31.4004 251.81C31.5504 251.79 31.6405 251.67 31.6605 251.54C31.6905 251.38 31.6905 251.21 31.6805 251.04C31.5605 249.05 31.8604 247.08 31.9604 245.1C31.9704 244.83 31.9905 244.57 32.2005 244.35C33.3005 243.17 34.3205 241.91 35.6205 240.94C37.6805 239.41 39.8805 238.14 42.2905 237.24C44.9305 236.25 47.5305 235.15 50.0405 233.85C52.4005 232.62 54.6305 231.21 56.5305 229.3C59.1905 226.64 61.9305 224.06 64.7005 221.51C66.9005 219.49 69.0405 217.4 70.9505 215.1C73.1705 212.59 74.7505 209.65 76.3805 206.76ZM38.0805 220.64C38.1905 220.33 38.3905 220.27 38.6905 220.25C46.5705 219.84 54.3105 218.64 61.9105 216.48C64.5605 215.73 67.1504 214.78 69.7104 213.78C70.0404 213.65 70.3704 213.46 70.8404 213.45C70.1304 214.57 69.3205 215.52 68.4705 216.45C68.1805 216.76 67.7805 216.86 67.4105 217C62.8505 218.78 58.1405 219.96 53.3105 220.7C48.3005 221.48 43.2805 222.21 38.2405 222.73C38.0605 222.75 37.8405 222.69 37.6905 222.89C37.8705 223.15 38.1205 222.99 38.3205 222.97C45.2405 222.32 52.1405 221.45 58.9505 220.01C61.4205 219.49 63.8205 218.73 66.1905 217.88C66.4905 217.77 66.7805 217.56 67.2705 217.65C66.6005 218.48 65.9705 219.18 65.0105 219.59C61.6405 221.03 58.0905 221.7 54.5105 222.31C48.7505 223.29 43.0005 224.3 37.2405 225.29C37.0105 225.33 36.7805 225.34 36.3405 225.39C36.9605 223.71 37.5305 222.18 38.0805 220.64ZM37.3405 217.8C37.4105 218.04 37.4405 218.33 37.7205 218.47C38.0005 218.31 37.7805 218.1 37.7405 217.95C36.2705 212.85 35.7105 207.61 35.2705 202.35C34.9805 198.86 35.2305 195.37 35.4905 191.88C35.6105 190.26 36.7205 189.58 37.6605 188.53C37.8305 189.03 37.6805 189.34 37.6205 189.66C36.5205 195.45 36.3205 201.27 37.0605 207.12C37.3105 209.12 37.5505 211.12 37.8405 213.12C38.0005 214.25 38.3005 215.36 38.6205 216.45C38.7005 216.71 38.8305 216.94 38.6705 217.22C38.0305 218.37 37.7605 219.67 37.2805 220.88C37.2305 221 37.1905 221.14 36.9705 221.2C36.5805 220.53 36.3105 219.78 36.0805 219.04C33.6205 211.3 32.4805 203.42 33.4105 195.29C33.5805 193.77 34.3005 192.62 35.1805 191.27C34.3605 200.37 34.9205 209.16 37.3405 217.8ZM75.9305 205.02C75.7905 205.35 75.4705 205.39 75.2005 205.5C69.4105 207.91 63.4104 209.63 57.2104 210.59C55.1204 210.92 53.0104 211.15 50.9004 211.32C48.2204 211.53 45.5505 211.88 42.8905 212.27C42.5305 212.32 42.1705 212.44 41.7405 212.26C42.0705 211.41 42.5505 210.67 43.0105 209.9C43.1705 209.63 43.4205 209.61 43.6905 209.55C45.4005 209.17 47.1505 209.02 48.8905 208.99C55.2305 208.85 61.3505 207.54 67.3905 205.69C69.5105 205.04 71.6405 204.43 73.7605 203.77C74.7105 203.48 75.6305 203.11 76.7005 202.74C76.5405 203.64 76.2205 204.32 75.9305 205.02ZM78.1405 196.42C78.0505 196.96 77.7405 197.22 77.2505 197.39C75.4405 198.03 73.5905 198.5 71.7305 198.93C65.6805 200.33 59.6305 201.68 53.5505 202.95C51.7105 203.33 49.9005 203.86 48.0505 204.16C47.7005 204.22 47.3405 204.35 46.8705 204.15C47.7305 202.98 48.3805 201.76 49.9905 201.38C52.3405 200.81 54.6805 200.23 57.0505 199.77C60.6805 199.08 64.2405 198.12 67.8105 197.16C69.0705 196.82 70.3605 196.59 71.6405 196.29C73.9505 195.75 76.3005 195.33 78.5705 194.07C78.5005 194.99 78.2605 195.7 78.1405 196.42ZM77.7305 197.85C77.2005 200.05 77.7905 199.62 75.5605 200.36C71.2305 201.81 66.8405 203.06 62.3805 204.08C59.3405 204.78 56.3205 205.64 53.2205 206C50.8905 206.28 48.5405 206.51 46.1805 206.37C45.9805 206.36 45.7805 206.39 45.6005 206.27C45.9305 205.04 46.3405 204.71 47.5205 204.57C48.3505 204.47 49.1905 204.34 50.0005 204.16C57.1105 202.58 64.2205 200.99 71.3305 199.4C73.4605 198.92 75.5605 198.35 77.7005 197.67C77.7205 197.78 77.7405 197.82 77.7305 197.85ZM73.8905 208.69C73.6705 209.05 73.2204 209.11 72.8404 209.24C70.3004 210.11 67.6704 210.68 65.0904 211.42C60.2104 212.81 55.2005 213.25 50.1805 213.7C47.2305 213.96 44.3405 214.54 41.4105 214.97C41.0805 215.02 40.7605 215.14 40.3905 214.99C40.5705 214.26 41.0105 213.66 41.3005 212.99C41.4305 212.68 41.6904 212.71 41.9604 212.68C46.8904 212.07 51.8505 211.77 56.7705 211.05C62.8805 210.16 68.7705 208.48 74.5105 206.22C74.7805 206.11 75.0305 205.91 75.4105 206C75.0505 206.99 74.4105 207.81 73.8905 208.69ZM44.6305 207.36C44.9105 206.82 45.2905 206.69 45.8505 206.73C47.5005 206.85 49.1405 206.72 50.7805 206.63C53.6805 206.46 56.5005 205.87 59.3105 205.2C64.3105 204.02 69.2805 202.72 74.1705 201.17C75.1605 200.86 76.1305 200.49 77.2405 200.02C77.1305 200.69 77.0305 201.22 76.9705 201.76C76.9305 202.11 76.7305 202.27 76.4205 202.38C75.5605 202.68 74.7405 203.06 73.8705 203.3C69.6305 204.48 65.4505 205.85 61.1805 206.91C57.4805 207.83 53.7405 208.38 49.9405 208.6C47.9005 208.71 45.8405 208.75 43.8405 209.26C43.7505 209.28 43.6505 209.25 43.4205 209.24C43.8705 208.54 44.3105 207.98 44.6305 207.36ZM38.4305 219.73C38.9205 217.93 38.9205 217.89 40.8805 217.67C46.1805 217.06 51.4304 216.12 56.7104 215.32C60.5604 214.74 64.3705 213.96 68.1605 213.03C69.2405 212.77 70.3004 212.48 71.3404 212.09C71.4904 212.03 71.6405 211.93 71.8105 212.04C71.6805 212.59 71.1905 212.7 70.7705 212.87C67.8205 214.07 64.8305 215.18 61.7705 216.07C55.6605 217.86 49.4205 218.93 43.1005 219.59C41.8305 219.72 40.5605 219.83 39.2905 219.93C39.0305 219.95 38.7605 220.04 38.4505 219.86C38.4305 219.8 38.4205 219.76 38.4305 219.73ZM77.5905 191.64C76.3205 192.26 75.0805 192.92 73.7205 193.31C71.8205 193.86 69.9205 194.44 68.0505 195.09C65.9505 195.83 63.7604 196.19 61.5904 196.62C58.4604 197.23 55.3405 197.9 52.2405 198.64C51.9205 198.72 51.6105 198.87 51.1705 198.77C51.7605 197.88 52.4705 197.15 53.1605 196.4C53.2805 196.26 53.4605 196.26 53.6305 196.25C55.3205 196.16 56.9305 195.63 58.5605 195.25C62.7105 194.29 66.8805 193.38 70.9205 191.98C73.6805 191.02 76.4405 190.07 79.0405 188.71C79.1005 188.68 79.1705 188.69 79.3105 188.67C79.4305 190.12 78.8905 191 77.5905 191.64ZM70.6805 211.94C66.6905 213.01 62.6704 213.91 58.5904 214.6C53.1304 215.52 47.6705 216.44 42.1805 217.21C41.2505 217.34 40.3205 217.44 39.3005 217.57C39.4305 216.84 39.7805 216.28 40.0205 215.67C40.1005 215.46 40.2605 215.38 40.4905 215.37C43.2105 215.25 45.8605 214.55 48.5705 214.3C51.5805 214.03 54.5904 213.74 57.5904 213.39C61.7804 212.9 65.8005 211.69 69.8505 210.58C70.9705 210.27 72.0704 209.89 73.3404 209.5C72.8504 210.94 72.0105 211.58 70.6805 211.94ZM38.2605 213.09C37.6105 208.91 37.0005 204.72 36.9805 200.48C36.9605 196.51 37.4304 192.58 38.1504 188.68C38.3304 187.7 39.0805 187.38 39.6905 186.88C39.9905 187.06 39.8205 187.28 39.7905 187.44C39.0505 191.02 39.0705 194.64 39.0805 198.26C39.1005 203.1 39.7105 207.9 40.3205 212.69C40.4005 213.29 40.3505 213.81 40.0705 214.33C39.7305 214.98 39.5105 215.69 39.0305 216.37C38.6805 215.24 38.4305 214.17 38.2605 213.09ZM35.6005 227.73C36.0905 225.76 36.1005 225.81 38.1205 225.5C40.9705 225.07 43.8205 224.56 46.6605 224.08C50.4605 223.43 54.2605 222.75 58.0705 222.11C59.9705 221.79 61.8104 221.3 63.5904 220.57C63.9204 220.44 64.2405 220.25 64.7405 220.26C63.2905 221.73 61.8905 223.01 59.9205 223.55C57.6505 224.17 55.3305 224.55 53.0205 224.97C47.7005 225.93 42.3905 226.91 37.0705 227.87C36.6105 227.95 36.1405 227.98 35.6105 228.04C35.6005 227.86 35.5805 227.79 35.6005 227.73ZM42.6205 204.12C42.6405 198.57 42.8905 193.04 43.8905 187.57C44.1905 185.95 44.6105 184.36 45.0805 182.78C45.2905 182.07 45.9205 181.78 46.3305 181.34C46.5405 181.36 46.5405 181.47 46.5205 181.56C45.5805 186.63 45.3505 191.76 45.1705 196.9C45.0705 199.68 44.9805 202.47 45.0205 205.26C45.0205 205.5 45.0404 205.73 44.9004 205.94C44.2404 206.87 43.7505 207.91 42.8705 208.98C42.6805 207.19 42.6205 205.66 42.6205 204.12ZM34.6205 231.21C34.6905 230.89 34.9405 230.94 35.1705 230.91C42.2805 230.04 49.2405 228.36 56.2605 227.01C56.7505 226.92 57.2305 226.78 57.7605 226.75C56.6305 227.84 55.7705 229.2 54.1305 229.7C52.2005 230.29 50.2405 230.71 48.2505 231.05C44.3105 231.72 40.3805 232.45 36.4505 233.14C35.7305 233.27 34.9904 233.36 34.2104 233.29C34.2004 232.55 34.4805 231.9 34.6205 231.21ZM57.0805 226.46C49.7805 227.93 42.5005 229.49 35.1305 230.6C35.0705 230.61 35.0005 230.59 34.8705 230.58C34.8605 229.9 35.1405 229.29 35.3005 228.65C35.3705 228.35 35.6005 228.34 35.8405 228.31C41.4805 227.66 46.9904 226.27 52.5904 225.4C53.7504 225.22 54.9005 225.01 56.0605 224.81C57.6805 224.53 59.2805 224.17 60.8805 223.7C59.8305 224.93 58.8005 226.11 57.0805 226.46ZM79.7305 186.53C79.7505 187.62 79.2305 188.26 78.2205 188.7C74.6505 190.26 71.0005 191.61 67.2505 192.67C63.2105 193.81 59.1205 194.72 55.0405 195.71C54.6705 195.8 54.2805 195.98 53.7305 195.81C54.4505 194.98 55.1005 194.2 55.7805 193.44C55.9905 193.22 56.3305 193.22 56.6305 193.18C60.2605 192.63 63.7805 191.65 67.2805 190.56C69.5205 189.86 71.7805 189.21 74.0305 188.53C75.6105 188.06 77.1505 187.49 78.6205 186.75C78.9405 186.59 79.2505 186.37 79.6805 186.35C79.7205 186.46 79.7305 186.49 79.7305 186.53ZM32.4004 228.71C31.1904 225.26 29.8405 221.87 28.3405 218.53C27.1705 215.91 26.4205 213.17 26.2405 210.28C26.1305 208.52 26.4505 206.89 27.1805 205.28C27.3805 205.38 27.3105 205.55 27.3305 205.68C27.3405 205.85 27.3605 206.02 27.3605 206.18C27.3005 209.25 28.0505 212.16 29.1105 215.02C29.9505 217.29 31.0405 219.44 32.1005 221.61C32.7405 222.91 33.2905 224.24 33.6905 225.63C33.7905 225.98 33.8605 226.37 34.0505 226.67C34.7305 227.73 34.6305 228.81 34.2405 229.93C34.0405 230.49 33.9405 231.07 33.7905 231.64C33.7205 231.64 33.6605 231.64 33.5905 231.64C33.1905 230.66 32.7404 229.7 32.4004 228.71ZM78.7805 193.22C78.7405 193.55 78.5105 193.64 78.2705 193.77C77.2905 194.31 76.2805 194.73 75.1905 195C73.8905 195.32 72.5905 195.68 71.2705 195.94C68.0305 196.57 64.9005 197.62 61.6905 198.35C59.3705 198.88 57.0205 199.34 54.6905 199.82C52.9805 200.17 51.2905 200.6 49.6205 201.14C49.4905 201.18 49.3805 201.26 49.1305 201.1C49.6005 200.44 50.1105 199.8 50.6905 199.22C50.7505 199.16 50.8604 199.11 50.9604 199.11C53.0904 199 55.1005 198.3 57.1805 197.92C58.3005 197.71 59.4105 197.43 60.5405 197.25C65.3005 196.47 69.8405 194.88 74.4405 193.5C76.0305 193.02 77.4505 192.19 79.0405 191.21C78.9405 192.04 78.8505 192.63 78.7805 193.22ZM52.2505 181.98C51.3705 187.31 50.6105 192.65 50.3605 198.05C50.3505 198.22 50.3805 198.39 50.2705 198.53C49.7805 199.11 49.2805 199.68 48.6405 200.42C48.6205 199.56 48.5905 198.88 48.5905 198.19C48.5805 194.11 49.2405 190.1 49.7505 186.08C50.1305 183.08 50.8304 180.16 51.8404 177.29C52.2104 176.24 52.8705 175.82 53.9105 175.6C53.2105 177.74 52.6005 179.83 52.2505 181.98ZM46.6805 199.92C46.7805 193.63 47.3605 187.4 48.6305 181.24C48.7105 180.85 48.8105 180.46 48.9105 180.07C49.4505 178.01 49.6605 177.75 51.5805 176.72C51.8105 176.95 51.6105 177.16 51.5305 177.36C50.4605 180.02 49.8405 182.8 49.4905 185.64C48.9905 189.63 48.3205 193.61 48.2905 197.65C48.2805 198.61 48.1305 199.59 48.3805 200.54C48.4405 200.78 48.3905 200.99 48.2305 201.2C47.7905 201.75 47.3705 202.31 46.9405 202.86C46.8805 202.85 46.8105 202.83 46.7505 202.82C46.7205 201.84 46.6605 200.87 46.6805 199.92ZM62.8404 184.38C63.8204 180.75 65.5405 177.45 67.2705 174.14C67.3005 174.08 67.3605 174.03 67.3705 173.97C67.6805 172.9 68.4505 172.64 69.5505 172.8C69.1105 173.58 68.6905 174.32 68.2805 175.07C67.2305 176.99 66.3405 179 65.8205 181.12C65.5405 182.26 64.9504 182.98 64.1504 183.7C63.1804 184.57 62.2805 185.53 61.3605 186.46C61.1005 186.72 60.8305 186.98 60.4805 187.2C60.3405 186.83 60.5005 186.52 60.5705 186.22C61.5505 181.87 63.1705 177.76 65.1305 173.77C65.3505 173.31 65.6205 173.09 66.1205 173.09C66.4905 173.1 66.8505 173.08 67.2805 173.08C67.2505 173.4 67.0305 173.68 66.8605 173.99C65.4005 176.64 64.0105 179.32 63.0305 182.19C62.7505 183 62.4705 183.83 62.4805 184.79C62.7605 184.63 62.8004 184.51 62.8404 184.38ZM59.1504 190.72C64.2804 189.39 69.3704 187.92 74.3404 186.08C76.1704 185.4 77.9505 184.63 79.6005 183.59C79.7405 183.5 79.8705 183.39 80.1505 183.47C80.0705 184.07 79.9905 184.69 79.9105 185.31C79.8605 185.75 79.5105 185.89 79.1705 186.05C78.0105 186.58 76.8605 187.14 75.6405 187.5C70.8805 188.9 66.1905 190.54 61.3805 191.77C59.8205 192.17 58.2605 192.53 56.4305 192.79C57.2505 191.7 57.9804 191.02 59.1504 190.72ZM44.6305 183.31C43.3105 187.36 42.8705 191.56 42.5705 195.78C42.2905 199.83 42.1205 203.89 42.4205 207.95C42.4305 208.02 42.4105 208.09 42.4305 208.15C42.9805 209.42 42.1905 210.33 41.5405 211.33C41.3405 211.14 41.3905 210.91 41.3905 210.71C41.3605 209.5 41.1005 208.31 41.0005 207.11C40.7805 204.53 40.7405 201.95 40.8705 199.37C41.1205 194.68 41.4505 190 42.3405 185.37C42.4205 184.95 42.5505 184.64 42.9205 184.38C43.4705 184 43.9605 183.54 44.4705 183.11C44.4805 183.1 44.5205 183.13 44.5505 183.14C44.5805 183.19 44.6405 183.26 44.6305 183.31ZM30.9905 200.27C30.7005 204.57 31.3305 208.77 32.2605 212.94C33.0605 216.48 34.0305 219.97 35.6305 223.24C36.0905 224.18 35.8005 224.87 35.3405 225.76C35.0705 225.19 34.8604 224.75 34.6504 224.3C32.2804 219.29 30.6805 214.06 29.8705 208.58C29.5105 206.11 29.5605 203.63 29.6205 201.15C29.6505 200.13 30.4605 199.56 30.9205 198.76C31.1005 199.28 31.0305 199.77 30.9905 200.27ZM26.2605 213.32C26.7505 215.66 27.5705 217.9 28.5805 220.06C29.7305 222.52 30.6705 225.07 31.6205 227.61C32.1305 228.99 32.6805 230.36 33.2405 231.72C33.4805 232.3 33.5505 232.87 33.3505 233.47C33.1605 234.03 33.1205 234.64 32.8205 235.27C32.4105 234.86 32.2804 234.38 32.1504 233.91C31.1004 230.04 29.5305 226.37 27.8005 222.78C26.0805 219.21 25.3605 215.49 25.3505 211.58C25.3505 211.35 25.3705 211.11 25.4305 210.88C25.5005 210.56 25.6105 210.25 25.7005 209.93C26.0705 211.05 26.0305 212.2 26.2605 213.32ZM32.5105 212.44C31.4505 207.82 31.0905 203.15 31.3905 198.43C31.4005 198.23 31.3905 198.01 31.4805 197.84C31.9605 196.98 32.4705 196.13 33.0905 195.08C32.9505 196.65 32.7705 197.98 32.7305 199.31C32.5505 205.54 33.4604 211.63 35.2104 217.61C35.6104 218.96 36.0004 220.32 36.7104 221.55C36.8404 221.78 36.8705 221.97 36.7705 222.2C36.6005 222.6 36.4605 223 36.2305 223.61C34.4205 219.92 33.3805 216.22 32.5105 212.44ZM48.5905 233.45C48.2305 233.61 47.8105 233.67 47.4205 233.7C43.7005 234.04 40.0605 234.85 36.3905 235.5C35.6305 235.63 34.8605 235.69 34.0905 235.78C33.6705 235.83 33.5305 235.65 33.6605 235.25C33.6705 235.22 33.6705 235.18 33.6805 235.15C33.9405 233.82 33.9405 233.85 35.2705 233.72C37.7505 233.47 40.1705 232.9 42.6105 232.46C44.9905 232.03 47.3605 231.57 49.7405 231.18C51.1605 230.95 52.5405 230.53 53.9505 230.25C52.2805 231.56 50.4805 232.58 48.5905 233.45ZM26.8105 226.35C25.1305 222.57 24.2505 218.66 24.7005 214.51C24.7305 214.24 24.7805 213.98 24.8305 213.72C24.8505 213.62 24.8805 213.53 24.9405 213.33C25.1405 213.57 25.1105 213.79 25.1105 213.99C25.2305 216.95 25.9604 219.75 27.2104 222.43C28.6704 225.56 30.0605 228.72 31.2205 231.97C31.6705 233.23 31.9405 234.56 32.5105 235.77C32.8205 236.42 32.4105 237.01 32.3005 237.63C30.8405 233.68 28.5005 230.17 26.8105 226.35ZM51.3905 190.61C51.8805 186.41 52.4005 182.21 53.5205 178.12C53.7205 177.41 53.9704 176.71 54.1504 176C54.2704 175.52 54.5205 175.24 55.0005 175.12C55.4805 175 55.9605 174.84 56.5205 174.68C56.1005 175.93 55.6904 177.05 55.3404 178.2C54.2204 181.83 53.6305 185.58 52.8905 189.3C52.4505 191.48 52.1405 193.66 52.1105 195.89C52.1005 196.61 51.7304 197.13 50.7104 197.94C50.6904 195.39 51.1105 193.01 51.3905 190.61ZM58.0205 176.1C57.5305 177.6 57.1605 179.13 56.8205 180.67C56.2005 183.56 55.2505 186.36 54.7005 189.27C54.4405 190.69 54.0705 192.09 54.1605 193.55C54.1705 193.75 54.1805 193.95 54.0305 194.12C53.5405 194.69 53.0405 195.26 52.3705 195.76C52.4505 194.74 52.4505 193.71 52.6305 192.71C53.5405 187.62 54.3405 182.51 55.8905 177.57C56.1205 176.83 56.4105 176.12 56.6305 175.38C56.8305 174.71 57.2605 174.39 57.9205 174.32C58.1205 174.3 58.3105 174.24 58.6805 174.17C58.4305 174.91 58.2105 175.5 58.0205 176.1ZM63.1905 185.65C63.4405 185.38 63.8005 185.4 64.1205 185.32C68.6305 184.11 73.1205 182.87 77.5305 181.33C78.5405 180.98 79.5305 180.55 80.5505 180.15C80.7305 180.4 80.5505 180.65 80.5605 180.89C80.6005 181.7 80.1305 182.08 79.4305 182.32C78.0705 182.79 76.7305 183.35 75.3605 183.78C72.2205 184.75 69.0605 185.67 65.9105 186.61C64.6905 186.98 63.4705 187.36 62.2505 187.72C61.9405 187.81 61.6305 187.98 61.1305 187.84C61.8605 187.06 62.5305 186.35 63.1905 185.65ZM29.2405 205.73C29.5605 210.52 30.6505 215.15 32.3705 219.62C33.1405 221.62 34.0104 223.59 34.9004 225.54C35.2104 226.22 35.2305 226.8 34.8505 227.42C34.6305 227.46 34.6405 227.26 34.6205 227.17C33.7505 223.98 32.2405 221.06 30.8305 218.09C29.5105 215.33 28.4405 212.47 27.9705 209.42C27.7205 207.79 27.6705 206.15 27.6705 204.5C27.6705 204.15 27.7605 203.84 27.9205 203.54C28.3105 202.84 28.7105 202.14 29.1005 201.45C29.2705 202.93 29.1505 204.33 29.2405 205.73ZM41.8305 186.39C40.8505 192.19 40.3904 198.04 40.4004 203.93C40.4004 205.54 40.5405 207.15 40.7605 208.75C40.9005 209.81 40.9705 210.89 41.0705 211.96C41.1005 212.24 41.0205 212.47 40.7405 212.71C40.4205 211.73 40.3705 210.77 40.2705 209.82C39.8105 205.72 39.3705 201.61 39.4205 197.47C39.4605 193.95 39.5305 190.42 40.1705 186.94C40.2305 186.63 40.2805 186.38 40.5705 186.19C41.0005 185.9 41.4104 185.57 41.9004 185.19C42.0204 185.7 41.8905 186.05 41.8305 186.39ZM45.3505 204.15C45.5305 197.04 45.4705 189.91 46.6705 182.86C46.7405 182.46 46.8005 182.06 46.8705 181.67C47.1305 180.3 47.4405 179.86 48.7405 178.98C48.8305 179.26 48.6905 179.49 48.6305 179.73C47.3605 184.8 46.8105 189.97 46.4705 195.17C46.3005 197.82 46.2605 200.47 46.4405 203.12C46.4905 203.86 45.8605 204.27 45.5305 204.96C45.3105 204.61 45.3505 204.37 45.3505 204.15ZM79.6405 183.12C77.6305 184.43 75.4205 185.33 73.1705 186.12C68.6105 187.72 63.9505 189.01 59.3005 190.34C59.1505 190.38 58.9805 190.45 58.7705 190.3C59.3305 189.74 59.8605 189.2 60.3905 188.66C60.5405 188.51 60.6904 188.4 60.9004 188.36C64.1704 187.71 67.2905 186.54 70.5005 185.67C73.7505 184.8 76.9205 183.71 80.0305 182.44C80.0805 182.42 80.1505 182.44 80.2805 182.44C80.2105 182.9 79.8805 182.96 79.6405 183.12ZM79.8805 179.97C78.1205 180.71 76.3305 181.38 74.5005 181.93C71.2905 182.88 68.0705 183.81 64.8505 184.75C64.5705 184.83 64.3005 184.94 63.9105 184.91C64.5105 184.02 65.2205 183.37 65.8705 182.67C66.0705 182.46 66.3405 182.45 66.6005 182.39C69.3105 181.76 72.0205 181.12 74.7205 180.47C76.5205 180.04 78.2505 179.41 79.9605 178.71C80.2305 178.6 80.5105 178.49 80.7905 178.38C80.8705 179.55 80.8705 179.55 79.8805 179.97ZM57.2805 185.81C58.1305 182.04 59.0205 178.29 60.6105 174.74C60.7505 174.42 60.7105 173.89 60.9305 173.77C61.3405 173.54 61.8804 173.53 62.3404 173.56C62.5304 173.73 62.4105 173.84 62.3705 173.95C60.3505 178.77 58.8305 183.73 58.0205 188.89C57.8405 190.03 57.2605 190.74 56.2805 191.58C56.5205 189.48 56.8705 187.63 57.2805 185.81ZM68.0605 180.55C68.6205 179.8 69.2905 179.45 70.2405 179.23C73.6705 178.41 77.1405 177.74 80.4705 176.56C80.6505 176.49 80.8405 176.39 81.0505 176.47C81.0905 177.77 81.1005 177.79 79.9805 178.26C77.9005 179.14 75.7705 179.83 73.5705 180.34C71.3205 180.85 69.0705 181.4 66.6405 181.98C67.2205 181.41 67.7005 181.03 68.0605 180.55ZM59.8705 182.59C60.6705 179.79 61.6204 177.03 62.6504 174.3C62.9004 173.64 63.2305 173.31 63.9405 173.33C64.2305 173.34 64.5305 173.23 65.0105 173.14C64.7805 173.66 64.6705 173.95 64.5205 174.23C62.3505 178.42 60.7405 182.81 59.9205 187.48C59.7705 188.34 59.0905 188.72 58.4705 189.2C58.8005 186.94 59.2505 184.75 59.8705 182.59ZM54.7005 191.73C54.9105 190.23 55.2105 188.75 55.5805 187.28C56.5205 183.6 57.2705 179.88 58.3605 176.25C58.4905 175.8 58.7005 175.37 58.8305 174.92C59.0605 174.11 59.5604 173.76 60.4004 173.88C60.5104 174.05 60.3805 174.2 60.3205 174.32C58.8305 177.36 57.9805 180.6 57.2305 183.88C56.6405 186.47 56.1205 189.07 55.8705 191.72C55.8005 192.52 55.1404 192.79 54.6504 193.42C54.5304 192.71 54.6305 192.22 54.7005 191.73ZM33.2104 237.28C33.4004 236.17 33.4005 236.19 34.5305 236.12C36.1105 236.02 37.6505 235.69 39.2005 235.4C41.4405 234.98 43.6804 234.51 45.9604 234.3C46.1104 234.29 46.2705 234.22 46.4805 234.38C42.2805 236.56 37.7604 237.39 33.2104 238.05C33.0704 237.73 33.1704 237.5 33.2104 237.28ZM81.2405 175.35C81.2805 175.81 81.0405 176 80.6405 176.12C79.3505 176.5 78.0905 176.95 76.7905 177.28C74.6405 177.82 72.4805 178.29 70.3505 178.9C70.2305 178.94 70.1005 178.94 69.9405 178.96C70.4005 178.24 71.8405 177.09 72.5505 176.94C75.4705 176.33 78.3605 175.6 81.1505 174.55C81.3505 174.82 81.2205 175.1 81.2405 175.35ZM68.9604 177.06C68.5404 177.82 68.0805 178.59 67.8805 179.43C67.6405 180.46 66.9505 181.06 66.2405 181.68C66.0405 181.59 66.0805 181.45 66.1305 181.33C67.0505 178.7 68.1505 176.16 69.4905 173.72C70.0105 172.77 70.6704 172.35 71.8404 172.51C70.8504 174.06 69.8204 175.51 68.9604 177.06ZM27.4604 228.65C28.4604 230.58 29.4605 232.51 30.4805 234.43C31.1605 235.71 31.5605 237.09 32.0505 238.44C32.2205 238.92 32.0205 239.35 31.8705 239.94C29.9905 236.05 27.8405 232.43 27.0805 228.24C27.3205 228.26 27.3604 228.47 27.4604 228.65ZM73.9604 172.31C74.3504 171.77 74.8705 171.59 75.5505 171.53C74.7405 172.99 73.5505 174.09 72.8905 175.55C73.4305 174.92 74.0405 174.34 74.4905 173.66C75.0605 172.79 75.9005 172.14 76.3605 171.18C76.4705 170.95 76.8005 170.81 77.2705 170.86C76.2005 172.07 75.6805 173.55 74.5705 174.56C73.5505 175.49 72.3605 176.24 71.2505 177.06C71.2005 177.01 71.1505 176.95 71.1005 176.9C71.8905 175.27 72.9204 173.78 73.9604 172.31ZM80.5805 174.34C78.3305 175.23 75.9805 175.76 73.6405 176.36C73.5105 176.39 73.3805 176.41 73.2305 176.31C74.3205 175.35 75.4205 174.52 76.9505 174.33C78.4405 174.15 79.8305 173.53 81.2205 172.95C81.3805 174.01 81.3905 174.02 80.5805 174.34ZM34.4305 238.23C36.0205 238.01 37.5905 237.71 39.2505 237.32C37.3905 239.06 35.4005 239.95 32.7405 240.28C32.8005 238.45 32.8005 238.45 34.4305 238.23ZM69.3905 177.18C70.2705 175.68 71.2705 174.26 72.2005 172.79C72.4805 172.35 72.8005 172.09 73.3605 172.16C73.4505 172.41 73.2705 172.58 73.1405 172.75C72.1505 174.03 71.4104 175.45 70.7104 176.9C70.4204 177.51 70.0805 178.05 69.4905 178.44C69.0805 178.71 68.7605 179.12 68.4105 179.47C68.5405 178.59 68.9805 177.89 69.3905 177.18ZM81.3905 171.54C81.4805 172.02 81.5005 172.35 81.0705 172.54C79.5905 173.21 78.0705 173.76 76.3305 174.07C77.7105 172.41 79.6205 172.21 81.3905 171.54ZM29.6105 236.72C29.6705 236.69 29.7405 236.65 29.8005 236.62C30.2105 237.1 30.4105 237.71 30.6905 238.26C30.9905 238.86 31.2204 239.49 31.4604 240.11C31.7104 240.75 31.8005 241.4 31.3205 242.12C30.7505 240.33 30.1805 238.52 29.6105 236.72ZM75.8805 173.5C76.5805 172.3 77.4105 171.28 78.2905 170.29C78.5405 170 78.5605 170.02 79.3205 169.9C78.3205 171.26 77.5605 172.75 75.8805 173.5ZM81.7305 169.63C81.8505 170.03 81.6905 170.28 81.6705 170.54C81.6405 170.92 81.4605 171.14 81.0805 171.25C80.4805 171.42 79.9205 171.72 79.0805 171.86C79.9905 170.94 80.8405 170.31 81.7305 169.63ZM32.5905 241.71C32.4705 240.74 32.4705 240.74 33.2905 240.57C33.9005 240.44 34.5105 240.31 35.2405 240.16C34.5405 241.23 33.4505 241.22 32.5905 241.71ZM81.4805 169.05C80.7405 169.91 79.8705 170.4 79.1305 171.05C80.0505 169.55 80.3705 169.27 81.4805 169.05ZM32.3105 243.15C32.3205 242.13 32.4005 242.06 33.6905 241.77C33.2605 242.31 32.8205 242.71 32.3105 243.15Z" fill="url(#paint5_linear_31_1074)"/>
<path d="M55.8403 244.64C56.2803 244.33 56.6903 244.4 57.0903 244.37C62.2103 244.03 66.9903 242.58 71.3603 239.86C78.1203 235.64 84.9003 231.45 91.2103 226.55C91.5403 226.3 92.1403 226.14 91.9303 225.57C91.7203 225 91.1403 225.24 90.7403 225.28C88.2203 225.58 85.8103 226.3 83.4203 227.11C78.4803 228.79 73.7203 230.9 69.1603 233.43C66.8503 234.71 64.6703 236.22 62.5803 237.84C60.5903 239.38 58.6003 240.93 56.5603 242.41C54.7703 243.7 52.8503 244.13 50.6903 243.53C47.0403 242.53 43.4303 241.42 39.9903 239.82C39.2603 239.48 38.5703 239.06 37.8003 238.48C37.7103 239.14 38.1403 239.36 38.4603 239.57C39.4403 240.23 40.5303 240.69 41.6103 241.16C44.8603 242.57 48.2003 243.71 51.6603 244.49C52.9103 244.77 53.9803 245.35 54.9203 246.27C57.1903 248.49 59.3803 250.77 61.5703 253.07C65.4403 257.13 69.7803 260.57 74.9103 262.95C77.6803 264.23 80.5303 265.28 83.4203 266.25C88.5203 267.96 93.8303 268.86 99.0303 270.16C99.4303 270.26 99.9603 270.56 100.21 269.99C100.42 269.52 99.9303 269.29 99.6303 269.04C96.0803 266.06 92.4103 263.23 88.6703 260.5C85.3403 258.06 81.6103 256.33 77.8903 254.6C72.9203 252.29 67.9103 250.05 62.9203 247.77C61.2903 247.03 59.5803 246.55 57.5803 246C59.8703 246.04 61.7903 246.58 63.7503 246.86C67.6103 247.42 71.4803 247.89 75.3703 248.23C76.2003 248.3 76.9403 248.5 77.7103 248.98C83.6703 252.62 89.6703 256.2 95.6903 259.75C98.9303 261.66 102.41 263.04 106.08 263.86C109.05 264.52 112.07 264.96 115.11 265.24C118.51 265.55 121.88 266.05 125.26 266.54C127.51 266.87 129.76 267.17 132.02 267.47C132.33 267.51 132.74 267.68 132.9 267.3C133.09 266.86 132.7 266.67 132.37 266.49C130.26 265.35 128.15 264.22 126.05 263.06C123.17 261.47 120.29 259.87 117.22 258.67C114.53 257.62 111.79 256.72 109.03 255.86C106.12 254.95 103.2 254.08 100.29 253.17C97.1803 252.19 93.9903 251.54 90.8103 250.86C88.0303 250.27 85.2403 249.7 82.4603 249.11C82.1103 249.04 81.7303 249 81.3603 248.75C82.0803 248.57 82.7603 248.7 83.4203 248.7C88.5403 248.74 93.6503 248.58 98.7503 248.11C99.4803 248.04 100.19 248.04 100.9 248.33C104.75 249.91 108.79 250.87 112.77 252.03C118.26 253.62 123.79 253.88 129.42 253.03C131.83 252.67 134.26 252.47 136.69 252.25C139.58 251.98 142.37 251.28 145.16 250.55C145.44 250.48 145.75 250.42 145.75 250.06C145.75 249.7 145.44 249.61 145.16 249.55C143.64 249.26 142.13 248.95 140.61 248.7C137.32 248.14 134.05 247.51 130.72 247.26C128 247.06 125.28 247.22 122.56 247.11C119.35 246.99 116.15 246.85 112.94 246.71C112.79 246.7 112.63 246.64 112.44 246.59C112.7 246.27 113.03 246.32 113.33 246.26C116.85 245.66 120.37 245.03 123.95 244.84C125.24 244.77 126.52 244.48 127.78 244.13C128.64 243.89 129.52 243.69 130.4 243.56C137 242.6 142.83 239.88 148.09 235.86C149.83 234.53 151.45 233.04 153.22 231.75C153.69 231.41 154.06 230.88 154.51 230.48C154.63 230.38 154.68 230.21 154.6 230.04C154.51 229.87 154.34 229.84 154.18 229.85C153.98 229.86 153.78 229.91 153.58 229.96C151.01 230.59 148.45 231.22 145.89 231.84C141.23 232.97 136.85 234.82 132.68 237.14C130.59 238.3 128.61 239.68 126.65 241.05C125.08 242.15 123.44 243.13 121.77 244.05C121.27 244.33 120.72 244.48 120.16 244.59C113.25 245.91 106.31 246.95 99.3003 247.51C98.9103 247.54 98.5103 247.56 98.0103 247.59C98.4303 247.2 98.8503 247.2 99.2303 247.1C101.87 246.42 104.5 245.74 107.14 245.07C112.53 243.7 117.25 241.1 121.34 237.33C125.5 233.51 129.7 229.73 133.88 225.93C134 225.82 134.13 225.71 134.22 225.58C134.48 225.24 134.36 224.92 133.94 224.91C133.58 224.91 133.2 224.95 132.86 225.07C128.19 226.72 123.35 227.92 118.78 229.86C114.99 231.47 111.54 233.73 108.13 236.03C104.23 238.66 100.73 241.74 97.5803 245.22C96.9003 245.97 96.3003 246.78 95.4803 247.4C95.1303 247.67 94.8103 247.79 94.3803 247.8C88.4903 248.01 82.6003 247.95 76.7203 247.43C76.4503 247.41 76.1503 247.42 75.9303 247.21C76.0003 247.01 76.1803 247.02 76.3303 247C80.0703 246.39 83.6603 245.16 87.3203 244.23C89.4703 243.69 91.4003 242.61 93.3003 241.53C97.0603 239.4 100.55 236.88 103.88 234.12C107.82 230.85 111.84 227.68 115.83 224.47C115.96 224.37 116.1 224.28 116.21 224.16C116.44 223.9 116.33 223.58 115.98 223.55C115.75 223.53 115.49 223.58 115.27 223.65C109.6 225.54 103.75 226.86 98.1603 228.99C91.4903 231.54 85.1103 234.68 79.5603 239.27C77.5203 240.95 75.6403 242.82 74.0103 244.9C73.5003 245.55 72.8303 246.01 72.2403 246.56C71.9103 246.87 71.5203 246.86 71.1003 246.83C68.1803 246.57 65.2803 246.16 62.3903 245.72C60.2303 245.41 58.0703 245.02 55.8403 244.64ZM128.87 228.73C129.31 228.08 129.97 227.8 130.67 227.59C130.09 228 129.64 228.61 128.9 228.78C128.64 229.21 128.24 229.43 127.77 229.56C128.07 229.17 128.39 228.84 128.87 228.73ZM84.6203 228.07C84.5703 228.13 84.5203 228.21 84.4503 228.23C80.4503 229.7 76.7003 231.75 72.7703 233.39C70.6003 234.3 68.5203 235.39 66.6203 236.82C65.3803 237.76 64.0403 238.56 62.5003 239.38C62.6303 238.93 62.8303 238.8 63.0103 238.67C65.2603 237 67.5403 235.36 69.9903 234.02C74.2703 231.68 78.7403 229.75 83.3903 228.26C83.7703 228.14 84.1403 227.93 84.5603 227.99C84.9503 227.72 85.3603 227.55 86.1003 227.69C85.4503 227.88 85.0903 228.16 84.6203 228.07ZM100.74 245.25C100.85 245.14 100.95 245 101.08 244.93C105.07 242.92 108.94 240.68 112.99 238.8C116.69 237.08 120.25 235.17 123.36 232.49C123.64 232.25 123.95 232.06 124.26 231.86C124.53 231.69 124.82 231.54 125.11 231.38C125.12 231.6 125.07 231.71 124.98 231.78C121.84 234.44 118.45 236.73 114.84 238.72C111.28 240.69 107.56 242.31 103.89 244.04C102.87 244.52 101.88 245.08 100.75 245.3C100.5 245.62 100.18 245.73 99.6303 245.75C100.08 245.42 100.36 245.22 100.74 245.25ZM83.7703 250.12C86.4203 250.54 89.0603 251.02 91.6503 251.71C93.6903 252.26 95.7503 252.74 97.7603 253.37C100.16 254.12 102.53 254.97 104.9 255.83C109.25 257.4 113.71 258.67 117.97 260.5C121.47 262.01 124.79 263.88 128.36 265.67C127.44 265.61 126.83 265.25 126.18 265.05C122.38 263.88 118.66 262.46 114.99 260.93C110.76 259.16 106.49 257.5 102.17 255.95C97.9703 254.45 93.6803 253.19 89.4303 251.84C87.5503 251.24 85.6603 250.69 83.7703 250.12ZM96.1703 268.95C95.7603 268.89 95.5103 268.87 95.2803 268.81C89.9303 267.6 84.6203 266.29 79.4803 264.28C72.9703 261.73 67.3203 257.98 62.6003 252.83C62.4103 252.62 62.1003 252.47 62.1003 252C62.7103 252.42 63.2503 252.78 63.7703 253.15C72.9403 259.74 82.7503 265.03 93.7403 267.93C94.5203 268.14 95.3203 268.34 96.1703 268.95ZM112.51 226.17C102.34 234.76 90.6003 240.42 78.1503 244.75C89.4603 238.29 101.38 232.97 112.51 226.17ZM61.8703 249.31C63.4103 250 64.8603 250.8 66.2703 251.69C70.9503 254.63 75.9503 256.99 80.8503 259.53C85.7203 262.04 90.4003 264.9 95.3603 267.24C95.6803 267.39 96.0803 267.51 96.2003 268.11C83.9103 263.2 72.3503 257.21 61.8703 249.31ZM92.4103 265.03C90.9603 264.6 60.8703 248.14 60.0103 247.28C60.7903 247.59 61.3903 247.78 61.9503 248.05C66.8503 250.4 71.7503 252.75 76.6403 255.14C80.2503 256.9 83.8503 258.69 87.1403 261.04C88.8803 262.27 90.6003 263.55 92.4103 265.03ZM126.69 229.33C124.83 231.29 104.02 243.3 101.2 244.05C104.87 240.04 122.04 230.12 126.69 229.33ZM77.6403 243.97C86.3103 236.94 96.0903 232.04 106.75 228.82C97.0503 233.87 87.3503 238.92 77.6403 243.97ZM125.15 265.92C117.86 264.97 111.13 262.71 104.39 260.51C100.11 259.11 88.0303 253.61 85.2603 251.65C85.6103 251.64 85.8203 251.94 86.1303 252.04C89.2603 253.04 92.3403 254.14 95.3503 255.49C98.4903 256.9 101.73 258.1 104.93 259.37C107.64 260.45 110.35 261.55 113.09 262.57C116.33 263.78 119.74 264.41 123.09 265.26C123.71 265.41 124.36 265.52 125.15 265.92ZM107.66 227.35C107.36 227.72 107.02 227.78 106.72 227.89C105.09 228.51 103.43 229.08 101.81 229.73C97.4003 231.48 92.9603 233.16 88.8403 235.59C84.6703 238.05 80.5203 240.51 76.7603 243.59C76.5603 243.76 76.3703 243.99 75.9803 243.98C76.0703 243.53 76.4503 243.32 76.7103 243.04C82.8603 236.62 90.4903 232.67 98.7803 229.85C101.28 229 103.83 228.32 106.37 227.57C106.74 227.45 107.1 227.24 107.66 227.35ZM86.2603 251.38C98.5803 254.94 110.4 259.65 122.44 264.51C117.19 263.41 112.38 261.76 107.66 259.9C102.6 257.91 97.4703 256.1 92.5403 253.81C90.5203 252.88 88.2903 252.51 86.2603 251.38ZM115.45 264.4C114.69 264.67 114.17 264.56 113.66 264.49C112.53 264.35 111.4 264.23 110.28 264.04C106.1 263.32 102.01 262.35 98.2303 260.31C94.1503 258.1 90.3303 255.49 86.4003 253.06C86.3003 253 86.3203 252.92 86.5703 252.87C95.4703 258.09 105.01 262.08 115.45 264.4ZM127.19 230.79C127.26 230.89 127.33 230.99 127.39 231.09C126.22 232.13 125.05 233.18 123.87 234.21C121.3 236.46 118.69 238.65 115.83 240.51C111.85 243.1 107.34 244.33 102.81 245.48C102.7 245.51 102.59 245.46 102.59 245.24C105.47 243.91 108.38 242.57 111.28 241.22C114.15 239.88 116.87 238.26 119.57 236.59C122.3 234.9 124.6 232.65 127.19 230.79ZM102.51 234.37C101.37 235.53 100.06 236.46 98.7603 237.4C95.9303 239.46 92.9903 241.37 89.7703 242.75C86.1003 244.32 82.1003 244.69 78.2803 245.73C86.6003 242.46 94.8203 238.98 102.51 234.37ZM142.83 250.31C133.25 251.02 110.73 249.66 107 248.15C108.72 248.15 110.45 248.18 112.17 248.3C115.45 248.53 118.7 248.97 121.98 249.2C128.01 249.62 134.04 249.95 140.08 250.06C141.01 250.08 141.94 250 142.83 250.31ZM99.8703 243.93C107.63 235.99 117.07 231 127.69 228.12C122.77 230.15 117.76 232.01 113.24 234.89C108.69 237.78 104.19 240.74 99.8703 243.93ZM57.5003 247.28C58.6303 247.66 59.3703 248.23 60.1003 248.8C64.2403 252.02 68.6203 254.89 73.0303 257.71C74.7803 258.83 76.6103 259.79 78.4703 260.7C81.6303 262.24 84.7703 263.81 88.1103 265.46C82.0103 264.33 61.2803 252.03 57.5003 247.28ZM61.2503 242.77C61.4003 242.7 61.5403 242.62 61.6903 242.57C66.6703 240.86 71.4203 238.66 75.8503 235.81C78.1803 234.32 80.4603 232.76 82.7703 231.24C84.5403 230.08 86.1603 228.71 87.9703 227.62C88.4903 227.31 89.0203 227.04 89.6103 226.9C89.5003 227.12 89.3603 227.26 89.2003 227.38C85.2603 230.47 81.1403 233.29 76.8503 235.88C74.2103 237.48 71.5803 239.11 68.7803 240.43C66.4003 241.56 63.9103 242.39 61.2503 242.77ZM84.2703 229.59C77.0703 234.78 69.5003 239.3 60.9703 242.02C63.9003 240.73 66.7503 239.27 69.5103 237.63C73.1803 235.45 77.0503 233.64 80.6503 231.32C81.7603 230.59 82.9603 230.01 84.2703 229.59ZM137.22 249.46C127.13 249.26 117.11 248.14 106.88 247.48C107.73 247.26 108.41 247.26 109.09 247.29C110.83 247.37 112.58 247.43 114.32 247.56C118.13 247.85 121.92 248.28 125.75 248.28C128.15 248.28 130.55 248.34 132.92 248.68C134.36 248.89 135.83 248.98 137.22 249.46ZM150.03 233.34C148.44 236.19 136.55 242.13 132.18 242.24C138.36 239.78 144.25 236.74 150.03 233.34ZM130.02 241.02C133.81 238.15 144.86 233.24 147.22 233.34C141.33 235.74 135.93 238.94 130.02 241.02ZM62.2103 240.58C67.2703 236.62 72.9903 233.85 78.8203 231.27C79.0003 231.19 79.1903 231.12 79.3803 231.06C79.4003 231.05 79.4503 231.08 79.4703 231.11C79.5803 231.23 79.3603 231.2 79.7703 231.21C73.7903 234.4 68.0003 237.49 62.2103 240.58ZM109.64 250.05C115.72 251.27 121.87 251.83 128.05 252.24C121.7 253.27 115.64 251.88 109.64 250.05ZM111.99 249.73C118.59 250.4 125.23 250.53 131.81 251.47C125.13 251.68 118.53 250.99 111.99 249.73ZM148.64 233.36C144.84 236.25 131.73 242.25 128.92 242.42C135.78 240.03 142.03 236.32 148.64 233.36ZM135.4 237.02C132.53 238.68 129.65 240.34 126.57 242.12C127.71 240.92 133.77 237.35 135.4 237.02ZM81.4503 230.11C81.1803 230.41 80.9103 230.51 80.4303 230.55C80.8103 230.25 81.0403 230.06 81.4503 230.11ZM126.81 230.28C126.45 230.64 126.32 230.88 125.99 230.85C126.13 230.58 126.33 230.43 126.81 230.28ZM152.64 231.23C152.68 231.28 152.75 231.35 152.74 231.37C152.63 231.54 152.48 231.66 152.27 231.61C152.22 231.6 152.14 231.5 152.16 231.47C152.25 231.28 152.44 231.23 152.64 231.23Z" fill="url(#paint6_linear_31_1074)"/>
<path d="M25.9304 176.51C25.6404 173.6 25.3903 170.68 25.2803 167.75C25.2603 167.33 25.2804 166.93 25.6104 166.63C26.2004 166.07 26.6904 165.42 27.3604 164.95C29.5304 163.42 31.4804 161.65 33.2704 159.7C38.1404 154.39 41.6004 148.19 44.5004 141.65C46.9204 136.18 48.5403 130.41 50.7203 124.84C50.8103 124.62 50.8604 124.37 50.8604 124.13C50.8504 123.78 50.5404 123.65 50.2704 123.87C50.1504 123.97 50.0504 124.11 49.9404 124.23C46.5204 128.04 43.1504 131.9 39.6804 135.66C36.7504 138.84 34.0603 142.2 31.7303 145.84C30.5503 147.69 29.3703 149.56 28.7203 151.68C27.6103 155.29 26.1904 158.81 25.3904 162.51C25.3604 162.66 25.3603 162.84 25.1603 162.9C24.9603 162.66 24.9903 162.37 24.9803 162.09C24.7703 156.19 25.0104 150.31 25.5204 144.44C25.5604 144.01 25.6903 143.7 25.9803 143.37C26.6503 142.58 27.4804 142.02 28.2704 141.38C31.9104 138.42 35.1604 135.08 37.9904 131.32C40.4604 128.03 42.9004 124.71 44.7004 121.01C46.8704 116.55 48.3203 111.78 50.2103 107.2C50.3503 106.87 50.4104 106.49 50.4304 106.13C50.4504 105.71 50.1303 105.57 49.7803 105.81C49.6503 105.9 49.5303 106.02 49.4203 106.13C45.4103 110.11 41.4204 114.11 37.3904 118.06C33.4204 121.96 30.5704 126.53 28.9304 131.84C28.1204 134.44 27.3104 137.04 26.4904 139.63C26.3704 140.01 26.3604 140.43 25.9404 140.83C26.0004 140.33 26.0403 139.93 26.0903 139.54C27.0103 132.57 28.4103 125.68 30.0903 118.85C30.2303 118.29 30.4103 117.75 30.7103 117.27C31.7203 115.65 32.7803 114.07 33.9603 112.55C35.4303 110.66 36.9104 108.75 38.1804 106.73C40.7104 102.69 42.7903 98.4099 44.1503 93.8199C44.9003 91.2899 45.6704 88.7599 46.4304 86.2299C46.4904 86.0399 46.5404 85.84 46.5704 85.64C46.5904 85.48 46.5703 85.3099 46.4003 85.2099C46.2403 85.1199 46.0703 85.1599 45.9603 85.2699C45.5303 85.6999 44.9904 86.0399 44.6204 86.4899C43.2304 88.1899 41.6704 89.7299 40.2504 91.3999C35.9504 96.4499 32.9404 102.13 31.6404 108.67C31.4704 109.54 31.2204 110.41 30.9404 111.25C30.5304 112.49 30.1703 113.75 30.0303 115.04C29.6503 118.6 28.8404 122.08 28.0604 125.57C27.9904 125.87 28.0204 126.2 27.6904 126.44C27.6504 126.25 27.6003 126.09 27.6003 125.94C27.6303 122.73 27.6604 119.52 27.7004 116.31C27.7404 113.59 28.0403 110.88 27.9703 108.15C27.9003 104.81 27.4303 101.51 27.0403 98.2C26.8603 96.67 26.6403 95.14 26.4203 93.61C26.3803 93.33 26.3004 93.02 25.9404 93C25.5704 92.98 25.5103 93.28 25.4203 93.56C24.5403 96.31 23.7003 99.0599 23.2903 101.93C22.9403 104.34 22.6204 106.76 22.1304 109.15C20.9904 114.73 20.9604 120.27 22.2604 125.83C23.2104 129.87 23.9603 133.95 25.3403 137.87C25.6003 138.6 25.5504 139.31 25.4504 140.03C24.7204 145.1 24.3004 150.2 24.0704 155.31C24.0404 155.98 24.1303 156.66 23.9203 157.37C23.6803 156.98 23.6704 156.61 23.6204 156.25C23.1804 153.44 22.7504 150.63 22.3104 147.82C21.8004 144.61 21.3104 141.39 20.5004 138.24C19.7404 135.29 19.0204 132.32 18.2704 129.37C17.5504 126.57 16.8004 123.79 15.8904 121.05C14.8504 117.91 13.4003 114.96 11.9603 112C10.9103 109.84 9.90036 107.67 8.87036 105.51C8.71036 105.17 8.54033 104.77 8.09033 104.94C7.71033 105.08 7.85037 105.5 7.88037 105.81C8.07037 108.08 8.25033 110.34 8.46033 112.61C8.78033 116.01 9.10036 119.4 9.24036 122.81C9.36036 125.86 9.65033 128.89 10.1503 131.9C10.7803 135.61 11.9803 139.15 13.7203 142.49C16.9503 148.68 20.2103 154.86 23.5403 161C23.9703 161.8 24.1303 162.54 24.1603 163.38C24.3003 167.28 24.5704 171.17 24.9304 175.06C25.1104 177.03 25.5403 178.98 25.4703 181.27C25.0203 179.25 24.6303 177.51 23.9803 175.85C21.9603 170.75 19.9904 165.64 17.9304 160.55C16.3904 156.75 14.8603 152.93 12.5903 149.48C10.0503 145.61 7.42037 141.79 4.63037 138.1C4.39037 137.79 4.20033 137.28 3.71033 137.47C3.13033 137.69 3.40035 138.24 3.48035 138.64C4.50035 143.91 5.13037 149.25 6.57037 154.43C7.39037 157.37 8.29035 160.27 9.42035 163.1C11.5203 168.34 14.7403 172.85 18.5903 176.93C20.7703 179.23 22.9403 181.54 25.0303 183.93C25.9003 184.91 26.4204 186.01 26.6404 187.28C27.2404 190.78 28.2104 194.17 29.4504 197.49C29.8604 198.59 30.2604 199.71 30.8704 200.72C31.0704 201.05 31.2604 201.49 31.9304 201.43C31.4004 200.63 31.0103 199.93 30.7103 199.18C29.2903 195.66 28.3704 192 27.5604 188.31C27.0804 186.12 27.6004 184.23 28.9904 182.51C30.5704 180.54 32.2204 178.64 33.8604 176.73C35.5804 174.72 37.2104 172.62 38.6104 170.38C41.3704 165.96 43.7203 161.31 45.6603 156.47C46.5903 154.13 47.4404 151.75 47.8704 149.26C47.9404 148.86 48.2003 148.29 47.6503 148.06C47.0903 147.82 46.9104 148.41 46.6404 148.73C41.4204 154.78 36.8904 161.33 32.3204 167.86C29.3704 172.08 27.6804 176.78 27.0704 181.88C27.0204 182.28 27.0704 182.69 26.7404 183.11C26.4304 180.86 26.1504 178.69 25.9304 176.51ZM45.4803 112.05C45.6303 111.59 45.8704 111.21 46.3204 110.96C46.5204 110.23 47.1603 109.81 47.6003 109.25C47.3603 109.94 47.0404 110.59 46.3704 110.99C46.2304 111.48 45.8803 111.79 45.4803 112.05ZM45.2004 153.77C45.3004 154.52 45.1104 154.92 44.8204 155.29C44.8504 155.72 44.6303 156.07 44.4803 156.45C42.7503 161.02 40.5903 165.38 38.0403 169.54C36.5703 171.93 34.8103 174.11 33.0303 176.27C32.8903 176.45 32.7403 176.64 32.2903 176.74C33.1903 175.24 34.0604 173.94 35.0604 172.75C36.5904 170.93 37.7904 168.91 38.8104 166.79C40.6504 162.95 42.8904 159.31 44.5704 155.39C44.6004 155.32 44.6804 155.28 44.7404 155.23C44.6704 154.76 44.9604 154.41 45.2004 153.77ZM27.8604 139.31C27.9004 138.76 28.0304 138.44 28.3704 138.21C28.6404 137.1 29.2603 136.13 29.7903 135.14C31.7103 131.57 33.5303 127.93 35.6703 124.48C37.8403 120.99 40.3004 117.72 43.1204 114.72C43.1904 114.64 43.3103 114.6 43.5303 114.62C43.3603 114.89 43.1904 115.18 43.0104 115.44C42.8004 115.74 42.5903 116.04 42.3403 116.3C39.5103 119.27 37.4104 122.73 35.5004 126.33C33.4104 130.28 30.9704 134.03 28.7604 137.91C28.6904 138.04 28.5403 138.13 28.4203 138.24C28.4203 138.62 28.2004 138.89 27.8604 139.31ZM21.2404 149.19C20.1104 144.87 19.0803 140.53 17.7903 136.25C16.4703 131.86 15.0304 127.51 13.4904 123.19C12.1504 119.45 10.9303 115.66 9.96033 111.8C9.79033 111.13 9.46038 110.51 9.45038 109.59C11.0504 113.25 12.7504 116.66 14.0704 120.24C15.6804 124.59 16.7204 129.11 18.0604 133.54C18.7904 135.95 19.5204 138.36 20.1404 140.8C20.6604 142.84 21.0403 144.93 21.4803 146.99C22.0403 149.61 22.3803 152.27 22.6603 154.94C22.1903 153.02 21.7404 151.1 21.2404 149.19ZM5.39038 144.05C7.72038 155.18 12.5003 165.25 18.6003 174.75C18.9503 175.29 19.2703 175.84 19.6603 176.48C19.1903 176.46 19.0504 176.14 18.8604 175.94C13.9604 170.96 10.5104 165.13 8.30035 158.49C6.55035 153.26 5.53033 147.89 4.59033 142.48C4.55033 142.24 4.54037 142 4.50037 141.58C5.06037 142.46 5.22038 143.27 5.39038 144.05ZM27.7303 160.82C32.7003 148.61 38.9704 137.18 48.0704 127.47C40.7104 138.23 34.7803 149.87 27.7303 160.82ZM5.35034 141.59C5.95034 141.74 6.04036 142.15 6.18036 142.48C8.27036 147.55 10.8704 152.38 13.1304 157.37C15.4004 162.4 17.5004 167.51 20.2004 172.34C21.0104 173.79 21.7303 175.28 22.3503 176.85C14.9903 165.97 9.61034 154.12 5.35034 141.59ZM11.9504 151.01C14.1204 154.41 15.7203 158.1 17.2903 161.8C19.4203 166.8 21.5104 171.82 23.6104 176.84C23.8504 177.41 24.0103 178.02 24.2803 178.82C23.4703 177.92 8.59035 147.02 8.23035 145.54C9.61035 147.42 10.8004 149.2 11.9504 151.01ZM29.6404 137.85C30.5304 135.07 43.6103 114.91 45.6603 113.16C44.6203 117.75 33.8304 134.39 29.6404 137.85ZM45.1304 133.09C41.3604 143.56 35.9604 153.07 28.4904 161.37C34.0404 151.95 39.5804 142.52 45.1304 133.09ZM9.59033 114.89C10.2603 118.28 10.7204 121.71 11.7604 125.02C12.6404 127.8 13.5903 130.57 14.5303 133.33C15.6403 136.59 16.6603 139.89 17.9103 143.1C19.1003 146.17 20.0404 149.31 20.8804 152.48C20.9604 152.8 21.2503 153.02 21.2203 153.37C19.4003 150.5 14.5404 138.16 13.3604 133.81C11.5104 126.96 9.60033 120.13 9.03033 112.8C9.39033 113.6 9.46033 114.25 9.59033 114.89ZM46.3604 133.54C45.4804 136.03 44.6704 138.55 43.6904 141C40.4404 149.13 36.1004 156.55 29.3704 162.35C29.0804 162.6 28.8603 162.97 28.4003 163.04C28.4103 162.65 28.6504 162.48 28.8304 162.28C32.0904 158.68 34.7704 154.67 37.4404 150.63C40.0804 146.63 41.9903 142.29 43.9703 137.98C44.7003 136.39 45.3604 134.77 46.0604 133.17C46.1904 132.88 46.2603 132.55 46.6503 132.26C46.7203 132.82 46.4904 133.17 46.3604 133.54ZM19.4304 146C17.4004 140.95 15.8604 135.73 14.1304 130.58C12.5204 125.76 11.1203 120.88 10.2903 115.58C14.5303 127.86 18.6103 139.9 21.5303 152.39C20.5103 150.3 20.2604 148.05 19.4304 146ZM20.0704 152C20.0004 152.25 19.9204 152.26 19.8704 152.16C17.6504 148.1 15.2404 144.15 13.2504 139.97C11.4004 136.09 10.6503 131.95 10.1503 127.74C10.0203 126.61 9.96036 125.47 9.87036 124.34C9.83036 123.82 9.75036 123.3 10.0604 122.56C11.8204 133.11 15.3204 142.85 20.0704 152ZM38.0303 119.89C36.2203 122.49 34.4603 125.12 32.9803 127.93C31.4803 130.76 29.9904 133.6 28.5104 136.4C28.2904 136.39 28.2503 136.28 28.2803 136.17C29.6703 131.7 31.1303 127.27 33.9203 123.43C35.9303 120.66 38.2504 118.17 40.6304 115.72C41.7204 114.6 42.8304 113.48 43.9304 112.36C44.0304 112.43 44.1203 112.51 44.2203 112.58C42.2203 115.07 39.8603 117.25 38.0303 119.89ZM26.7604 160.65C28.0004 156.88 28.5704 152.91 30.3304 149.33C31.8704 146.18 33.9404 143.35 36.1404 140.63C37.1504 139.38 38.1504 138.12 39.3704 137.04C34.3604 144.48 30.4604 152.51 26.7604 160.65ZM25.6404 98.7C25.4404 104.74 25.4504 110.78 25.5604 116.82C25.6204 120.11 25.9004 123.38 25.9504 126.66C25.9804 128.38 25.9104 130.11 25.8304 131.83C24.5104 128.03 24.3203 105.46 25.5303 95.9399C25.8003 96.8499 25.6704 97.78 25.6404 98.7ZM39.4103 126.3C42.5203 121.93 44.6403 117.03 46.9203 112.22C43.4903 122.68 38.0204 131.85 29.6904 139.19C33.0904 135.03 36.2803 130.69 39.4103 126.3ZM7.57037 149.81C9.05037 153.23 10.4504 156.45 11.8204 159.69C12.6304 161.6 13.4904 163.48 14.5204 165.28C17.1204 169.83 19.7504 174.35 22.7504 178.65C23.2804 179.41 23.8104 180.18 24.1304 181.32C19.5904 177.3 8.38037 155.96 7.57037 149.81ZM31.5604 170.4C33.0204 167.67 34.7904 165.13 36.5204 162.58C39.3304 158.44 42.3603 154.47 45.6503 150.69C45.7803 150.54 45.9203 150.4 46.1503 150.3C45.9803 150.88 45.6803 151.4 45.3403 151.9C44.1603 153.66 42.7103 155.2 41.4603 156.91C39.8203 159.14 38.1503 161.34 36.5403 163.58C33.4603 167.86 31.0204 172.49 29.0504 177.37C28.9904 177.52 28.9004 177.66 28.8304 177.8C29.3504 175.17 30.3204 172.73 31.5604 170.4ZM41.2803 159.04C38.7803 162.51 36.7703 166.28 34.4003 169.83C32.6203 172.5 31.0204 175.27 29.5704 178.13C32.7204 169.76 37.6304 162.43 43.1904 155.5C42.7104 156.78 42.0703 157.96 41.2803 159.04ZM26.6404 105.92C26.8504 108.31 26.7903 110.71 26.6703 113.1C26.4703 116.92 26.7104 120.73 26.8004 124.55C26.8404 126.29 26.8204 128.04 26.8004 129.79C26.7904 130.47 26.7604 131.16 26.5004 131.99C26.3704 121.74 25.7603 111.67 26.0903 101.59C26.5003 103.01 26.5204 104.48 26.6404 105.92ZM33.0403 107C33.3703 102.65 39.9203 91.07 42.8503 89.64C39.1603 95.23 35.8203 100.95 33.0403 107ZM42.7103 92.4399C42.7003 94.7999 37.2203 105.58 34.1503 109.22C36.5303 103.42 40.0003 98.1999 42.7103 92.4399ZM41.3403 159.91C41.3203 160.32 41.3003 160.1 41.4203 160.21C41.4403 160.23 41.4703 160.28 41.4603 160.3C41.3903 160.49 41.3103 160.67 41.2203 160.85C38.3503 166.54 35.2804 172.11 31.0704 176.96C34.4604 171.34 37.8503 165.72 41.3403 159.91ZM22.8403 110.61C22.9203 116.8 23.1604 122.97 24.0704 129.11C22.5604 123.02 21.4803 116.9 22.8403 110.61ZM23.8104 106.89C24.4104 113.5 24.2004 120.15 24.5204 126.77C23.5904 120.17 23.2504 113.55 23.8104 106.89ZM32.6904 110.24C33.0104 107.44 39.6804 94.6599 42.7604 91.0199C39.4604 97.4699 35.4404 103.52 32.6904 110.24ZM32.8704 112.61C34.8104 109.62 36.6203 106.83 38.4203 104.05C38.0103 105.67 34.1304 111.53 32.8704 112.61ZM42.0303 159.28C42.0903 158.8 42.2104 158.55 42.5204 158.29C42.5604 158.71 42.3603 158.92 42.0303 159.28ZM44.1003 113.77C44.0903 113.44 44.3303 113.32 44.7103 112.98C44.5303 113.45 44.3803 113.65 44.1003 113.77ZM44.8304 87.61C44.8104 87.62 44.7104 87.5399 44.7004 87.4899C44.6604 87.2699 44.7903 87.13 44.9603 87.03C44.9803 87.02 45.0503 87.1 45.1003 87.14C45.0903 87.34 45.0304 87.52 44.8304 87.61Z" fill="url(#paint7_linear_31_1074)"/>
<path d="M86.1302 177.56C87.1002 176.13 88.1002 174.71 89.1602 173.34C89.3102 173.14 89.4702 172.97 89.7302 172.95C90.2102 172.92 90.6802 172.81 91.1602 172.85C92.7202 172.98 94.2902 172.92 95.8402 172.71C100.07 172.15 103.99 170.65 107.79 168.78C110.97 167.22 113.89 165.21 117 163.51C117.12 163.44 117.24 163.35 117.33 163.24C117.46 163.08 117.37 162.9 117.16 162.9C117.07 162.9 116.97 162.93 116.88 162.94C113.88 163.37 110.89 163.84 107.88 164.23C105.34 164.56 102.85 165.06 100.41 165.83C99.1702 166.22 97.9302 166.62 96.8302 167.34C94.9502 168.56 92.9802 169.61 91.2002 170.99C91.1302 171.04 91.0602 171.13 90.9502 171.08C90.9502 170.9 91.0702 170.77 91.1702 170.65C93.3102 167.89 95.6602 165.32 98.1202 162.84C98.3002 162.66 98.4802 162.57 98.7402 162.53C99.3402 162.43 99.9302 162.49 100.53 162.5C103.31 162.54 106.05 162.26 108.76 161.63C111.13 161.08 113.5 160.49 115.72 159.5C118.4 158.3 120.87 156.69 123.47 155.33C123.66 155.23 123.83 155.09 123.97 154.93C124.14 154.75 124.05 154.57 123.79 154.54C123.7 154.53 123.6 154.54 123.5 154.55C120.17 154.83 116.84 155.13 113.51 155.4C110.23 155.66 107.2 156.65 104.43 158.44C103.08 159.31 101.72 160.18 100.36 161.05C100.16 161.18 100 161.36 99.6602 161.38C99.8802 161.17 100.05 161.01 100.22 160.85C103.29 158.03 106.54 155.44 109.89 152.98C110.16 152.78 110.45 152.6 110.77 152.5C111.84 152.15 112.93 151.83 114.04 151.59C115.43 151.29 116.82 150.99 118.17 150.55C120.85 149.67 123.42 148.52 125.79 146.96C127.09 146.1 128.4 145.24 129.71 144.38C129.81 144.31 129.91 144.25 130 144.16C130.07 144.1 130.12 144.01 130.09 143.9C130.05 143.8 129.96 143.75 129.86 143.76C129.5 143.79 129.13 143.74 128.79 143.81C127.51 144.06 126.22 144.16 124.94 144.38C121.07 145.04 117.55 146.47 114.47 148.95C114.06 149.28 113.62 149.58 113.17 149.86C112.51 150.27 111.87 150.7 111.32 151.23C109.8 152.71 108.11 153.98 106.43 155.26C106.29 155.37 106.17 155.53 105.93 155.52C105.99 155.42 106.02 155.33 106.08 155.26C107.31 153.81 108.54 152.37 109.78 150.93C110.83 149.71 111.99 148.59 113 147.33C114.24 145.78 115.28 144.11 116.36 142.46C116.86 141.7 117.34 140.92 117.82 140.14C117.91 140 117.99 139.83 117.84 139.68C117.68 139.53 117.53 139.64 117.39 139.74C115.95 140.65 114.52 141.58 113.24 142.73C112.17 143.69 111.1 144.67 109.97 145.57C107.33 147.67 105.22 150.17 103.69 153.19C102.59 155.38 101.38 157.52 100.51 159.82C100.35 160.25 100.06 160.55 99.7402 160.84C97.4802 162.86 95.3602 165.02 93.3102 167.25C93.0402 167.54 92.8202 167.88 92.4602 168.13C92.5002 167.87 92.6402 167.69 92.7502 167.51C93.6202 166.07 94.4902 164.63 95.3602 163.18C96.3502 161.53 97.3502 159.88 98.1802 158.14C98.9602 156.51 99.7602 154.89 100.53 153.27C101.27 151.73 101.98 150.18 102.61 148.59C103.33 146.77 103.79 144.88 104.26 142.99C104.6 141.61 104.97 140.24 105.32 138.87C105.38 138.66 105.45 138.41 105.18 138.31C104.95 138.23 104.86 138.48 104.75 138.63C103.97 139.73 103.2 140.83 102.43 141.94C101.28 143.6 100.14 145.27 98.9102 146.87C97.8102 148.3 96.7802 149.79 95.8702 151.34C94.7502 153.26 93.9502 155.33 93.4702 157.5C92.5902 161.54 91.7202 165.58 90.9002 169.63C90.7902 170.15 90.5802 170.55 90.2802 170.95C88.8602 172.77 87.5102 174.64 86.2002 176.54C85.5302 177.5 84.9902 178.55 84.0902 179.56C84.6602 178.47 85.1402 177.54 85.4702 176.53C86.4902 173.45 87.5402 170.38 88.5402 167.29C89.2902 164.98 90.0402 162.67 90.3202 160.24C90.6402 157.52 90.8902 154.79 91.0302 152.05C91.0402 151.82 91.1402 151.51 90.8502 151.41C90.5002 151.29 90.4202 151.64 90.3002 151.86C88.7702 154.64 87.0202 157.3 85.7102 160.2C84.9702 161.84 84.2702 163.5 83.7102 165.22C82.6802 168.4 82.4202 171.67 82.6202 174.98C82.7302 176.85 82.8402 178.73 82.8902 180.6C82.9102 181.38 82.7302 182.07 82.3502 182.73C81.3002 184.55 80.4502 186.45 79.7502 188.43C79.5202 189.09 79.2802 189.74 79.1702 190.44C79.1402 190.66 79.0602 190.94 79.3802 191.16C79.4402 190.59 79.5302 190.13 79.6802 189.67C80.3702 187.53 81.3402 185.52 82.3802 183.54C82.9902 182.36 83.9502 181.7 85.2302 181.45C86.6902 181.16 88.1702 180.92 89.6402 180.68C91.1902 180.42 92.7202 180.09 94.2002 179.6C97.1302 178.64 99.9602 177.43 102.68 175.96C103.99 175.25 105.28 174.5 106.42 173.52C106.6 173.37 106.94 173.21 106.77 172.89C106.61 172.57 106.3 172.77 106.06 172.81C101.4 173.57 96.8502 174.82 92.3002 176.06C89.3602 176.86 86.8102 178.35 84.6002 180.43C84.4302 180.59 84.2902 180.8 83.9802 180.86C84.7102 179.72 85.4002 178.63 86.1302 177.56ZM119.48 155.72C119.72 155.57 119.98 155.49 120.27 155.55C120.64 155.3 121.09 155.35 121.5 155.26C121.13 155.48 120.74 155.66 120.28 155.58C120.04 155.75 119.77 155.75 119.48 155.72ZM103.52 174.55C103.28 174.93 103.04 175.04 102.77 175.09C102.62 175.3 102.39 175.37 102.18 175.49C99.6602 176.91 97.0302 178.07 94.2902 178.98C92.7202 179.51 91.0902 179.83 89.4602 180.13C89.3302 180.15 89.1902 180.19 88.9402 180.06C89.9202 179.72 90.8002 179.46 91.7102 179.3C93.0902 179.05 94.4102 178.59 95.6702 178.02C97.9602 176.98 100.36 176.17 102.61 175.03C102.65 175.01 102.7 175.03 102.75 175.02C102.9 174.8 103.16 174.75 103.52 174.55ZM101.13 161.4C101.36 161.17 101.54 161.07 101.78 161.09C102.33 160.69 102.97 160.48 103.59 160.24C105.82 159.35 108.02 158.39 110.31 157.64C112.62 156.88 114.98 156.33 117.4 156.04C117.46 156.03 117.53 156.06 117.62 156.15C117.44 156.21 117.26 156.28 117.07 156.32C116.86 156.37 116.65 156.43 116.44 156.46C114.03 156.73 111.76 157.51 109.53 158.42C107.08 159.42 104.55 160.2 102.07 161.11C101.99 161.14 101.89 161.12 101.79 161.13C101.65 161.3 101.45 161.34 101.13 161.4ZM94.3802 163.38C95.5102 160.99 96.6902 158.63 97.7302 156.2C98.8002 153.71 99.8002 151.18 100.74 148.64C101.55 146.43 102.44 144.25 103.46 142.13C103.64 141.76 103.73 141.35 104.07 140.93C103.41 143.2 102.88 145.39 102.13 147.52C101.21 150.11 99.9702 152.55 98.8902 155.07C98.3102 156.44 97.7202 157.81 97.0802 159.16C96.5402 160.29 95.9202 161.38 95.3402 162.48C94.6002 163.88 93.7502 165.22 92.8602 166.54C93.3602 165.48 93.8802 164.43 94.3802 163.38ZM89.1302 155.02C85.9602 160.96 84.3102 167.34 83.4702 173.97C83.4202 174.35 83.3602 174.72 83.3002 175.16C83.1002 174.97 83.1602 174.77 83.1402 174.61C82.8102 170.49 83.4602 166.53 84.9702 162.68C86.1602 159.64 87.7402 156.81 89.3702 154.01C89.4402 153.89 89.5302 153.77 89.6702 153.57C89.5902 154.18 89.3602 154.6 89.1302 155.02ZM92.9102 171.12C99.8002 167.47 106.98 164.66 114.81 163.71C107.37 165.8 100.26 168.82 92.9102 171.12ZM90.0502 153.89C90.2602 154.18 90.1502 154.41 90.0902 154.61C89.1102 157.7 88.4602 160.88 87.5902 164.01C86.7102 167.16 85.7202 170.27 85.1102 173.49C84.9302 174.46 84.6902 175.41 84.3702 176.35C85.1702 168.62 87.2302 161.2 90.0502 153.89ZM89.4702 160.67C89.1602 163.04 88.4902 165.32 87.8002 167.6C86.8702 170.68 85.9102 173.75 84.9602 176.82C84.8502 177.17 84.6902 177.51 84.5102 177.97C84.4802 177.25 89.4602 157.57 89.8602 156.77C89.7702 158.16 89.6302 159.42 89.4702 160.67ZM102.5 161.42C103.96 160.5 117.55 156.31 119.15 156.3C116.93 157.98 105.71 161.44 102.5 161.42ZM111.33 165.14C105.64 168.46 99.5802 170.73 93.0402 171.66C99.1402 169.49 105.24 167.31 111.33 165.14ZM102.11 143.38C101.13 145.17 100.03 146.9 99.2502 148.8C98.5902 150.4 97.9802 152.01 97.3502 153.63C96.6102 155.53 95.8302 157.42 95.1702 159.35C94.5502 161.2 93.7802 162.98 92.9502 164.74C92.8702 164.92 92.9102 165.13 92.7702 165.28C93.0302 163.29 95.5102 155.84 96.6302 153.42C98.3902 149.61 100.12 145.78 102.64 142.24C102.51 142.72 102.3 143.05 102.11 143.38ZM111.72 165.81C110.38 166.61 109.05 167.44 107.68 168.18C103.12 170.64 98.3302 172.35 93.0702 172.43C92.8502 172.43 92.6002 172.51 92.3702 172.37C92.5202 172.2 92.7002 172.21 92.8502 172.19C95.7002 171.8 98.4402 170.99 101.18 170.17C103.9 169.36 106.41 168.11 108.95 166.91C109.88 166.47 110.8 165.98 111.72 165.52C111.89 165.44 112.05 165.32 112.33 165.33C112.16 165.62 111.92 165.69 111.72 165.81ZM94.7702 161.24C95.7702 158.18 97.0502 155.22 98.2202 152.23C99.3202 149.43 100.54 146.69 102.18 143.96C99.4402 151.14 96.7202 158.16 93.3002 164.94C93.6202 163.6 94.3602 162.49 94.7702 161.24ZM92.7802 164.21C92.6502 164.3 92.6102 164.27 92.6302 164.21C93.1602 161.52 93.5702 158.82 94.2502 156.16C94.8902 153.7 96.1102 151.53 97.4802 149.43C97.8502 148.87 98.2502 148.33 98.6402 147.78C98.8202 147.53 98.9802 147.26 99.4002 147.04C96.2102 152.5 94.1002 158.25 92.7802 164.21ZM113.13 156.45C111.32 156.95 109.52 157.47 107.78 158.18C106.02 158.89 104.27 159.62 102.53 160.33C102.43 160.24 102.46 160.17 102.51 160.14C104.83 158.64 107.18 157.18 109.91 156.5C111.87 156.01 113.88 155.76 115.88 155.55C116.8 155.45 117.73 155.37 118.65 155.28C118.67 155.35 118.68 155.42 118.7 155.49C116.86 155.86 114.96 155.95 113.13 156.45ZM92.5302 170.68C94.5202 169.44 96.2902 167.85 98.4502 166.89C100.35 166.05 102.36 165.55 104.39 165.15C105.32 164.97 106.25 164.77 107.22 164.74C102.12 166.22 97.3002 168.39 92.5302 170.68ZM115.55 142.13C113.16 144.79 110.88 147.54 108.63 150.33C107.41 151.84 106.29 153.44 105.07 154.95C104.43 155.74 103.74 156.5 103.05 157.25C103.89 155.03 112.38 144.71 116.54 140.84C116.32 141.35 115.91 141.72 115.55 142.13ZM111.32 159.88C114.39 159.08 117.21 157.66 120.08 156.34C114.55 159.78 108.59 161.87 102.02 162.04C105.13 161.45 108.23 160.69 111.32 159.88ZM87.9402 158.47C87.3102 160.58 86.7202 162.58 86.1202 164.57C85.7702 165.74 85.4402 166.92 85.2202 168.13C84.6702 171.18 84.1502 174.23 83.8802 177.33C83.8302 177.87 83.7802 178.43 83.4902 179.07C82.9602 175.51 85.9702 161.57 87.9402 158.47ZM91.0102 176.92C92.7102 176.24 94.4802 175.76 96.2302 175.25C99.0802 174.44 101.96 173.79 104.89 173.32C105.01 173.3 105.12 173.29 105.26 173.33C104.96 173.53 104.63 173.65 104.29 173.75C103.09 174.1 101.84 174.25 100.63 174.55C99.0402 174.94 97.4502 175.3 95.8602 175.71C92.8402 176.49 89.9702 177.66 87.2202 179.13C87.1402 179.17 87.0502 179.2 86.9602 179.24C88.1902 178.25 89.5602 177.51 91.0102 176.92ZM99.7302 175.46C97.2802 176.08 94.9302 177.03 92.5102 177.75C90.6902 178.29 88.9102 178.93 87.1702 179.68C91.7802 177.08 96.7902 175.61 101.94 174.58C101.24 174.98 100.5 175.26 99.7302 175.46ZM113.26 145.79C112.45 146.96 111.51 148.02 110.54 149.06C109 150.72 107.66 152.54 106.25 154.31C105.61 155.12 104.93 155.9 104.26 156.69C104 157 103.72 157.3 103.29 157.57C107.12 152.87 110.67 148.07 114.65 143.61C114.3 144.41 113.75 145.08 113.26 145.79ZM115.76 148.71C117.56 146.86 124.93 144.1 126.81 144.56C123 145.69 119.31 147.02 115.76 148.71ZM125.67 145.77C124.77 146.84 118.19 149.65 115.41 150.14C118.7 148.41 122.26 147.36 125.67 145.77ZM99.4302 175.87C99.2702 176.05 99.3402 175.94 99.3502 176.04C99.3502 176.06 99.3502 176.09 99.3302 176.1C99.2302 176.16 99.1202 176.21 99.0102 176.26C95.5502 177.75 92.0402 179.12 88.2802 179.72C91.9702 178.45 95.6402 177.18 99.4302 175.87ZM109.76 146.47C107.45 149.31 105.21 152.2 103.29 155.33C104.91 152 106.75 148.81 109.76 146.47ZM111.6 145.15C109.36 148.38 106.74 151.32 104.38 154.44C106.46 151.1 108.82 147.96 111.6 145.15ZM114.36 150.05C115.57 148.9 123.45 145.63 126.23 145.15C122.29 146.82 118.16 148.04 114.36 150.05ZM113.54 151.19C115.56 150.57 117.43 149.99 119.31 149.41C118.52 149.99 114.53 151.18 113.54 151.19ZM99.9802 175.85C100.19 175.66 100.34 175.58 100.58 175.59C100.44 175.79 100.27 175.81 99.9802 175.85ZM118.2 155.98C118.32 155.82 118.48 155.86 118.78 155.85C118.52 156 118.38 156.03 118.2 155.98ZM128.47 144.38C128.46 144.38 128.44 144.3 128.46 144.28C128.52 144.16 128.64 144.15 128.75 144.17C128.76 144.17 128.76 144.24 128.77 144.27C128.69 144.36 128.59 144.42 128.47 144.38Z" fill="url(#paint8_linear_31_1074)"/>
<path d="M75.6204 222.76C75.6904 222.46 75.9004 222.33 76.0704 222.16C78.2004 220.03 79.7504 217.55 80.6204 214.67C81.9704 210.21 83.3504 205.75 84.2404 201.16C84.2904 200.92 84.4904 200.62 84.1804 200.45C83.8704 200.28 83.7004 200.61 83.5504 200.78C82.5604 201.88 81.7704 203.13 81.0304 204.41C79.5004 207.05 78.2104 209.82 77.1804 212.69C76.6604 214.14 76.2804 215.65 75.9804 217.17C75.7004 218.62 75.4204 220.07 75.0904 221.5C74.8004 222.76 74.1204 223.69 72.9404 224.26C70.9504 225.22 68.9304 226.13 66.8004 226.74C66.3404 226.87 65.8804 226.95 65.3204 226.99C65.5404 227.32 65.8104 227.24 66.0304 227.22C66.7204 227.14 67.3704 226.92 68.0304 226.71C70.0104 226.08 71.9204 225.29 73.7404 224.31C74.4004 223.95 75.1004 223.8 75.8604 223.84C77.7104 223.94 79.5604 224.1 81.4104 224.27C84.6804 224.57 87.9204 224.41 91.0904 223.48C92.8004 222.98 94.4704 222.34 96.1104 221.65C99.0204 220.44 101.7 218.79 104.5 217.36C104.71 217.25 105.06 217.18 104.96 216.83C104.87 216.54 104.57 216.63 104.34 216.64C101.63 216.69 98.9204 216.86 96.2204 217.1C93.8104 217.31 91.5004 217.98 89.1904 218.65C86.1104 219.55 83.0404 220.49 79.9604 221.41C78.9604 221.71 78.0204 222.16 76.9204 222.69C77.9404 221.83 79.0004 221.32 79.9704 220.69C81.8904 219.45 83.7804 218.16 85.6204 216.82C86.0204 216.53 86.4204 216.34 86.9404 216.25C90.9704 215.56 94.9904 214.82 99.0104 214.07C101.17 213.66 103.24 212.93 105.17 211.88C106.74 211.03 108.23 210.06 109.68 209.01C111.3 207.84 112.98 206.76 114.65 205.67C115.77 204.95 116.88 204.21 117.99 203.48C118.14 203.38 118.39 203.29 118.32 203.07C118.24 202.8 117.99 202.87 117.77 202.92C116.4 203.23 115.03 203.55 113.66 203.85C111.78 204.26 109.9 204.66 108.07 205.32C106.48 205.89 104.92 206.55 103.38 207.23C101.75 207.95 100.12 208.69 98.4904 209.41C96.7404 210.18 95.0904 211.12 93.4204 212.04C91.9704 212.85 90.5204 213.68 89.0604 214.49C88.8804 214.59 88.7004 214.72 88.4404 214.75C88.6904 214.4 89.0404 214.19 89.3304 213.93C91.6004 211.97 93.7904 209.93 95.8604 207.76C96.1604 207.45 96.4604 207.17 96.8904 207.03C99.1904 206.24 101.35 205.11 103.54 204.09C106.57 202.68 109.11 200.66 111.26 198.11C112.18 197.02 113.18 196 114.16 194.97C115.33 193.74 116.29 192.36 117.24 190.96C117.34 190.82 117.45 190.68 117.31 190.52C117.17 190.36 117 190.44 116.85 190.52C116.07 190.97 115.28 191.43 114.51 191.9C112.85 192.92 111.16 193.9 109.6 195.08C108.32 196.04 107.18 197.16 105.95 198.16C104.49 199.34 103.02 200.52 101.56 201.69C101.49 201.75 101.4 201.78 101.3 201.83C101.29 201.59 101.46 201.48 101.57 201.34C102.89 199.72 104.2 198.09 105.7 196.62C106.24 196.09 106.69 195.47 107.11 194.83C107.4 194.39 107.71 193.97 108.05 193.57C110.59 190.6 112.11 187.16 112.88 183.36C113.13 182.1 113.28 180.82 113.56 179.57C113.63 179.24 113.6 178.87 113.64 178.51C113.65 178.42 113.61 178.32 113.51 178.28C113.41 178.24 113.32 178.29 113.25 178.36C113.17 178.44 113.1 178.54 113.03 178.64C112.14 179.9 111.26 181.17 110.36 182.43C108.74 184.72 107.53 187.23 106.58 189.85C106.11 191.17 105.77 192.54 105.43 193.9C105.16 194.99 104.82 196.05 104.44 197.1C104.33 197.42 104.14 197.69 103.94 197.96C101.4 201.2 98.7504 204.34 95.8704 207.29C95.7104 207.46 95.5404 207.62 95.3304 207.83C95.3604 207.49 95.5504 207.33 95.6804 207.14C96.5804 205.82 97.4804 204.51 98.3804 203.2C100.23 200.52 101.3 197.55 101.66 194.32C102.02 191.03 102.41 187.75 102.79 184.46C102.8 184.37 102.82 184.27 102.81 184.18C102.79 183.93 102.61 183.84 102.43 183.99C102.27 184.13 102.12 184.29 102.02 184.48C100.6 187.01 98.9304 189.4 97.6604 192.02C96.6104 194.19 95.9604 196.51 95.3404 198.84C94.6404 201.5 94.2804 204.21 94.2304 206.95C94.2204 207.54 94.2704 208.13 94.1504 208.72C94.1004 208.97 94.0004 209.15 93.8204 209.32C91.3004 211.68 88.6904 213.92 85.9004 215.96C85.7704 216.05 85.6404 216.17 85.4604 216.17C85.4104 216.06 85.5004 215.99 85.5504 215.92C86.9604 214.21 88.0704 212.29 89.3304 210.47C90.0704 209.4 90.5004 208.18 90.9304 206.97C91.7604 204.58 92.3304 202.13 92.7404 199.63C93.2204 196.67 93.7704 193.72 94.2904 190.77C94.3104 190.68 94.3404 190.58 94.3404 190.49C94.3404 190.28 94.1704 190.19 94.0104 190.31C93.9004 190.39 93.8104 190.51 93.7404 190.63C91.9704 193.65 89.9004 196.48 88.2604 199.58C86.3004 203.28 84.7004 207.12 84.0204 211.28C83.7704 212.81 83.6604 214.35 83.7404 215.9C83.7704 216.38 83.6404 216.84 83.6004 217.32C83.5804 217.58 83.4004 217.73 83.2004 217.88C81.8104 218.89 80.3804 219.83 78.9404 220.75C77.8504 221.41 76.7504 222.06 75.6204 222.76ZM101.68 187.6C101.62 187.14 101.8 186.77 102.04 186.4C101.94 186.81 101.98 187.25 101.72 187.61C101.77 187.9 101.68 188.15 101.52 188.39C101.49 188.11 101.51 187.84 101.68 187.6ZM81.9204 204.36C81.9204 204.41 81.9304 204.46 81.9104 204.5C80.7104 206.69 79.8504 209.04 78.7504 211.27C78.1404 212.51 77.6504 213.79 77.3604 215.15C77.1704 216.04 76.8904 216.91 76.5304 217.87C76.4104 217.62 76.4504 217.49 76.4804 217.36C76.8304 215.76 77.2004 214.16 77.7604 212.62C78.7504 209.94 79.9704 207.37 81.4504 204.92C81.5704 204.72 81.6504 204.49 81.8604 204.35C81.9304 204.08 82.0404 203.85 82.4204 203.62C82.2104 203.96 82.1604 204.22 81.9204 204.36ZM95.6404 205.72C95.6504 205.63 95.6404 205.53 95.6704 205.45C96.6504 203.03 97.4904 200.55 98.5604 198.16C99.5304 195.98 100.36 193.76 100.7 191.38C100.73 191.17 100.79 190.96 100.85 190.76C100.9 190.58 100.98 190.4 101.04 190.22C101.13 190.31 101.15 190.38 101.14 190.44C100.78 192.82 100.17 195.14 99.3504 197.4C98.5404 199.64 97.5204 201.79 96.5804 203.97C96.3204 204.57 96.1004 205.2 95.6804 205.73C95.6904 205.97 95.5904 206.14 95.3604 206.36C95.4204 206.06 95.4704 205.86 95.6404 205.72ZM90.0404 214.41C91.3704 213.57 92.7204 212.77 94.1304 212.08C95.2404 211.53 96.3304 210.95 97.4604 210.46C98.8104 209.87 100.18 209.33 101.55 208.79C104.07 207.8 106.53 206.65 109.11 205.81C111.23 205.12 113.42 204.67 115.68 204.08C115.25 204.41 114.85 204.48 114.48 204.65C112.35 205.6 110.17 206.41 107.96 207.15C105.41 208 102.89 208.91 100.39 209.9C97.9604 210.86 95.5904 211.95 93.1904 213C92.1404 213.45 91.0904 213.93 90.0404 214.41ZM102.76 217.93C102.55 218.06 102.44 218.15 102.31 218.21C99.4804 219.74 96.6404 221.21 93.6004 222.3C89.7504 223.68 85.8104 224.21 81.7504 223.76C81.5904 223.74 81.3904 223.8 81.2104 223.59C81.6404 223.54 82.0204 223.49 82.3904 223.45C88.9704 222.82 95.3304 221.37 101.3 218.42C101.72 218.21 102.15 217.99 102.76 217.93ZM93.4804 192.78C92.3104 200.49 89.3104 207.5 85.5004 214.21C87.9904 207 91.1904 200.06 93.4804 192.78ZM80.0804 222.49C81.0204 222.2 81.9704 222 82.9304 221.84C86.1304 221.33 89.2404 220.45 92.3804 219.67C95.4904 218.9 98.6604 218.35 101.75 217.48C101.95 217.42 102.17 217.32 102.46 217.54C95.1404 220.12 87.7404 221.94 80.0804 222.49ZM99.5904 217.65C98.7804 218.02 79.1804 222.36 78.4704 222.31C78.9304 222.14 79.2704 222 79.6204 221.9C82.6904 221.05 85.7504 220.19 88.8204 219.36C91.0904 218.75 93.3704 218.15 95.7204 217.91C96.9804 217.79 98.2204 217.7 99.5904 217.65ZM100.94 188.71C100.88 190.29 96.3404 203.6 95.3804 205.02C95.4604 201.84 99.2004 190.85 100.94 188.71ZM84.9704 214.06C86.0904 207.62 88.5104 201.69 91.9604 196.17C89.6304 202.13 87.3004 208.1 84.9704 214.06ZM114.36 205.43C110.78 207.82 106.95 209.42 103.12 211.04C100.69 212.07 93.2504 214.3 91.2704 214.51C91.4204 214.37 91.6304 214.42 91.8004 214.35C93.5604 213.58 95.3504 212.88 97.1904 212.32C99.1204 211.73 101.01 211.01 102.91 210.34C104.52 209.77 106.14 209.21 107.74 208.61C109.64 207.89 111.38 206.86 113.18 205.94C113.54 205.76 113.86 205.56 114.36 205.43ZM91.8004 195.17C91.8104 195.45 91.6804 195.6 91.6004 195.77C91.1204 196.67 90.6104 197.56 90.1404 198.47C88.8704 200.94 87.5604 203.39 86.6804 206.05C85.7904 208.74 84.9104 211.43 84.4404 214.23C84.4104 214.38 84.4204 214.56 84.2504 214.7C84.1204 214.46 84.2004 214.23 84.2104 214C84.4504 208.8 86.2904 204.12 88.8504 199.68C89.6204 198.34 90.4904 197.06 91.3104 195.75C91.4304 195.57 91.5104 195.34 91.8004 195.17ZM91.6204 214.01C98.4204 210.83 105.44 208.35 112.62 205.86C109.88 207.4 107.13 208.52 104.33 209.53C101.33 210.6 98.3804 211.78 95.3204 212.67C94.0804 213.03 92.9504 213.72 91.6204 214.01ZM109.5 208.5C109.27 208.91 109 209.06 108.75 209.23C108.2 209.6 107.65 209.99 107.09 210.33C104.97 211.62 102.8 212.77 100.34 213.33C97.6904 213.93 95.0004 214.25 92.3304 214.7C92.2604 214.71 92.2404 214.67 92.3304 214.55C98.2604 213.42 104.01 211.5 109.5 208.5ZM101.73 189.16C101.8 189.18 101.87 189.2 101.94 189.21C101.82 190.12 101.71 191.03 101.59 191.94C101.33 193.92 101.02 195.89 100.47 197.82C99.7104 200.49 98.2004 202.77 96.6504 205.03C96.6104 205.08 96.5504 205.11 96.4604 205.01C97.2204 203.31 97.9804 201.6 98.7404 199.89C99.4904 198.19 100.06 196.43 100.61 194.66C101.16 192.86 101.3 190.98 101.73 189.16ZM92.2304 200.25C92.1804 201.2 91.9504 202.12 91.7404 203.03C91.2804 205.03 90.7304 207 89.8404 208.85C88.8304 210.95 87.2104 212.66 85.9204 214.59C88.3304 209.94 90.6204 205.25 92.2304 200.25ZM116.14 191.74C112.19 195.74 101.74 203.82 99.5204 204.59C100.28 203.93 101.05 203.27 101.86 202.66C103.39 201.5 105 200.44 106.53 199.28C109.35 197.14 112.13 194.96 114.84 192.68C115.25 192.34 115.63 191.94 116.14 191.74ZM94.7504 205.48C95.1104 198.99 97.3504 193.16 100.92 187.79C99.5304 190.58 98.0404 193.33 97.1604 196.34C96.2704 199.37 95.4304 202.41 94.7504 205.48ZM77.3704 223.28C78.0104 223.01 78.5604 222.98 79.1004 222.95C82.1604 222.78 85.2004 222.35 88.2304 221.9C89.4304 221.72 90.6104 221.44 91.7804 221.12C93.7704 220.58 95.7504 220.06 97.8604 219.5C94.7404 221.35 80.8704 223.92 77.3704 223.28ZM77.2804 219.85C77.3204 219.76 77.3504 219.67 77.4004 219.59C78.9304 216.92 80.1804 214.12 81.0404 211.15C81.4904 209.6 81.9004 208.03 82.3304 206.47C82.6604 205.28 82.8504 204.05 83.2304 202.87C83.3404 202.53 83.4704 202.21 83.6704 201.92C83.7104 202.06 83.7004 202.18 83.6704 202.29C83.1204 205.17 82.3904 208 81.5004 210.79C80.9504 212.51 80.4204 214.25 79.7004 215.91C79.0804 217.33 78.3104 218.66 77.2804 219.85ZM82.3504 205.17C81.1804 210.23 79.5804 215.14 76.8704 219.62C77.6604 217.92 78.3604 216.18 78.9404 214.4C79.7204 212.03 80.7304 209.73 81.4204 207.33C81.6304 206.58 81.9404 205.86 82.3504 205.17ZM113.35 193.53C108.83 197.33 103.98 200.7 99.2104 204.35C99.5004 203.93 99.8004 203.66 100.11 203.42C100.91 202.78 101.7 202.14 102.52 201.53C104.31 200.19 106.15 198.92 107.83 197.44C108.89 196.51 109.97 195.62 111.14 194.85C111.86 194.37 112.54 193.85 113.35 193.53ZM112.78 181.48C113.18 183.35 110.23 190.55 108.34 192.28C110.12 188.82 111.54 185.21 112.78 181.48ZM106.92 192.58C107.49 189.85 110.46 183.43 111.54 182.57C109.87 185.9 108.72 189.38 106.92 192.58ZM76.8604 218.51C77.5604 214.82 79.0204 211.39 80.6004 208.01C80.6504 207.9 80.7104 207.8 80.7704 207.7C80.7804 207.69 80.8104 207.68 80.8304 207.69C80.9204 207.7 80.8204 207.78 81.0004 207.62C79.5904 211.33 78.2204 214.92 76.8604 218.51ZM101.42 204.41C104.57 202.61 107.5 200.48 110.37 198.28C107.97 201.19 104.76 202.91 101.42 204.41ZM102.33 203.36C105.49 201.11 108.48 198.61 111.73 196.49C108.87 199.16 105.7 201.4 102.33 203.36ZM112.17 182.03C111.61 184.77 108.14 192.46 106.97 193.62C109.07 189.92 110.4 185.88 112.17 182.03ZM107.75 188.74C107.12 190.58 106.5 192.42 105.82 194.39C105.86 193.43 107.16 189.52 107.75 188.74ZM81.3104 206.49C81.3104 206.73 81.2304 206.87 81.0304 207.08C81.0804 206.79 81.1104 206.62 81.3104 206.49ZM101.37 189.09C101.35 189.38 101.38 189.54 101.23 189.66C101.18 189.48 101.21 189.34 101.37 189.09ZM113.11 179.55C113.14 179.56 113.21 179.56 113.21 179.57C113.23 179.69 113.21 179.8 113.09 179.86C113.06 179.87 112.99 179.86 112.99 179.84C112.96 179.72 113.02 179.63 113.11 179.55Z" fill="url(#paint9_linear_31_1074)"/>
<path d="M52.9401 166.61C53.8701 165.17 54.8201 163.75 55.8401 162.37C55.9901 162.17 56.1401 162 56.4001 161.97C56.8701 161.93 57.3301 161.81 57.8201 161.84C59.3701 161.93 60.9101 161.84 62.4401 161.6C66.6101 160.95 70.4601 159.38 74.1701 157.45C77.2801 155.84 80.1301 153.79 83.1601 152.04C83.2801 151.97 83.4001 151.88 83.4801 151.77C83.6001 151.61 83.5101 151.44 83.3001 151.44C83.2101 151.44 83.1101 151.47 83.0201 151.49C80.0601 151.99 77.1101 152.51 74.1501 152.97C71.6501 153.35 69.1901 153.9 66.8001 154.72C65.5801 155.13 64.3601 155.56 63.2901 156.29C61.4601 157.53 59.5301 158.62 57.8101 160.02C57.7401 160.08 57.6701 160.16 57.5601 160.11C57.5601 159.93 57.6801 159.8 57.7701 159.68C59.8301 156.91 62.0901 154.31 64.4701 151.81C64.6401 151.63 64.8201 151.53 65.0701 151.49C65.6601 151.37 66.2501 151.42 66.8401 151.42C69.5901 151.39 72.2901 151.06 74.9601 150.38C77.2901 149.78 79.6201 149.15 81.8001 148.12C84.4201 146.88 86.8301 145.23 89.3701 143.82C89.5501 143.72 89.7201 143.57 89.8601 143.41C90.0201 143.22 89.9301 143.05 89.6801 143.03C89.5901 143.02 89.4901 143.04 89.4001 143.05C86.1101 143.4 82.8301 143.77 79.5401 144.11C76.3001 144.44 73.3301 145.49 70.6301 147.32C69.3101 148.21 67.9901 149.1 66.6601 149.99C66.4701 150.12 66.3101 150.31 65.9701 150.34C66.1801 150.13 66.3401 149.97 66.5101 149.81C69.4801 146.96 72.6401 144.33 75.9001 141.81C76.1701 141.61 76.4501 141.42 76.7601 141.31C77.8201 140.94 78.8801 140.6 79.9701 140.34C81.3301 140.01 82.7101 139.68 84.0301 139.22C86.6701 138.3 89.1801 137.1 91.4801 135.5C92.7501 134.62 94.0201 133.74 95.3001 132.86C95.4001 132.79 95.4901 132.72 95.5801 132.64C95.6501 132.57 95.7001 132.49 95.6601 132.38C95.6201 132.28 95.5201 132.24 95.4301 132.25C95.0801 132.29 94.7001 132.25 94.3701 132.32C93.1101 132.59 91.8301 132.72 90.5801 132.97C86.7701 133.71 83.3201 135.2 80.3301 137.72C79.9301 138.06 79.5001 138.36 79.0601 138.65C78.4201 139.07 77.7901 139.51 77.2601 140.05C75.7801 141.54 74.1401 142.84 72.5101 144.14C72.3701 144.25 72.2601 144.41 72.0201 144.4C72.0701 144.3 72.1101 144.21 72.1601 144.14C73.3501 142.68 74.5301 141.23 75.7301 139.77C76.7401 138.54 77.8701 137.41 78.8401 136.14C80.0301 134.58 81.0201 132.91 82.0501 131.25C82.5301 130.48 82.9901 129.7 83.4501 128.92C83.5301 128.78 83.6101 128.61 83.4601 128.46C83.3001 128.32 83.1601 128.43 83.0101 128.53C81.6001 129.47 80.2101 130.42 78.9701 131.58C77.9301 132.56 76.9001 133.54 75.8001 134.46C73.2401 136.59 71.2001 139.11 69.7601 142.14C68.7201 144.33 67.5701 146.47 66.7601 148.77C66.6101 149.2 66.3301 149.51 66.0201 149.8C63.8301 151.85 61.7801 154.03 59.8001 156.28C59.5401 156.57 59.3301 156.92 58.9801 157.17C59.0101 156.91 59.1501 156.73 59.2501 156.55C60.0701 155.1 60.9101 153.66 61.7301 152.21C62.6701 150.55 63.6201 148.91 64.4101 147.16C65.1401 145.53 65.9001 143.92 66.6301 142.29C67.3201 140.75 68.0001 139.2 68.5801 137.61C69.2501 135.8 69.6701 133.92 70.0901 132.04C70.4001 130.67 70.7301 129.31 71.0501 127.94C71.1001 127.73 71.1701 127.48 70.9001 127.39C70.6701 127.32 70.5901 127.56 70.4801 127.71C69.7401 128.81 68.9901 129.92 68.2601 131.03C67.1601 132.7 66.0701 134.37 64.8901 135.98C63.8301 137.42 62.8501 138.91 61.9901 140.47C60.9201 142.39 60.1801 144.45 59.7501 146.62C58.9601 150.63 58.2001 154.65 57.4701 158.67C57.3801 159.19 57.1801 159.59 56.8901 159.99C55.5301 161.82 54.2301 163.7 52.9701 165.61C52.3301 166.58 51.8201 167.63 50.9501 168.65C51.4901 167.56 51.9401 166.63 52.2501 165.62C53.1901 162.55 54.1601 159.49 55.0801 156.41C55.7701 154.11 56.4601 151.8 56.6901 149.4C56.9501 146.7 57.1401 144 57.2101 141.28C57.2201 141.05 57.3101 140.75 57.0201 140.66C56.6701 140.55 56.6001 140.9 56.4901 141.11C55.0301 143.89 53.3601 146.56 52.1301 149.46C51.4301 151.1 50.7801 152.76 50.2601 154.47C49.3101 157.64 49.1301 160.87 49.4001 164.15C49.5501 166 49.7001 167.85 49.7901 169.7C49.8301 170.47 49.6601 171.16 49.3001 171.82C48.3001 173.64 47.5001 175.55 46.8501 177.52C46.6301 178.17 46.4101 178.83 46.3201 179.52C46.2901 179.74 46.2201 180.01 46.5401 180.23C46.5901 179.67 46.6701 179.21 46.8101 178.75C47.4501 176.62 48.3701 174.61 49.3401 172.63C49.9201 171.45 50.8501 170.78 52.1101 170.5C53.5501 170.18 55.0001 169.91 56.4501 169.64C57.9701 169.35 59.4801 168.99 60.9401 168.47C63.8201 167.46 66.5901 166.19 69.2501 164.69C70.5301 163.96 71.7901 163.18 72.9001 162.2C73.0801 162.04 73.4001 161.88 73.2401 161.57C73.0701 161.26 72.7701 161.46 72.5301 161.51C67.9401 162.37 63.4601 163.7 58.9901 165.02C56.1001 165.87 53.6101 167.4 51.4701 169.51C51.3001 169.67 51.1701 169.88 50.8701 169.95C51.5801 168.78 52.2501 167.69 52.9401 166.61ZM85.4501 144.29C85.6901 144.14 85.9401 144.05 86.2301 144.1C86.5901 143.84 87.0301 143.88 87.4401 143.79C87.0701 144.02 86.6901 144.2 86.2401 144.14C86.0001 144.3 85.7301 144.31 85.4501 144.29ZM70.0701 163.26C69.8401 163.64 69.6101 163.75 69.3401 163.81C69.2001 164.02 68.9701 164.1 68.7601 164.22C66.3001 165.68 63.7201 166.88 61.0301 167.85C59.4901 168.4 57.8801 168.76 56.2801 169.1C56.1501 169.13 56.0101 169.16 55.7701 169.05C56.7301 168.69 57.6001 168.42 58.4901 168.24C59.8501 167.97 61.1401 167.48 62.3801 166.88C64.6301 165.8 66.9801 164.95 69.1801 163.77C69.2201 163.75 69.2701 163.76 69.3201 163.76C69.4601 163.51 69.7201 163.46 70.0701 163.26ZM67.4301 150.31C67.6501 150.08 67.8301 149.98 68.0601 149.99C68.5901 149.58 69.2201 149.36 69.8301 149.11C72.0201 148.18 74.1701 147.18 76.4201 146.39C78.6901 145.59 81.0101 144.99 83.4001 144.65C83.4601 144.64 83.5301 144.66 83.6201 144.75C83.4401 144.81 83.2601 144.88 83.0801 144.93C82.8701 144.99 82.6701 145.05 82.4601 145.08C80.0801 145.4 77.8501 146.22 75.6701 147.17C73.2701 148.21 70.7901 149.04 68.3601 150C68.2801 150.03 68.1801 150.02 68.0901 150.03C67.9301 150.2 67.7301 150.24 67.4301 150.31ZM60.7901 152.4C61.8501 150.01 62.9701 147.65 63.9401 145.23C64.9401 142.74 65.8701 140.22 66.7501 137.68C67.5101 135.48 68.3301 133.3 69.3001 131.18C69.4701 130.81 69.5501 130.41 69.8801 129.98C69.2701 132.24 68.8001 134.42 68.1001 136.54C67.2401 139.12 66.0701 141.56 65.0601 144.08C64.5101 145.45 63.9601 146.82 63.3601 148.16C62.8501 149.29 62.2601 150.38 61.7101 151.48C61.0101 152.88 60.1901 154.22 59.3401 155.55C59.8201 154.5 60.3201 153.46 60.7901 152.4ZM55.4201 144.26C52.4201 150.2 50.9201 156.55 50.2401 163.13C50.2001 163.5 50.1501 163.88 50.0901 164.31C49.8801 164.13 49.9401 163.93 49.9201 163.77C49.5001 159.7 50.0601 155.78 51.4701 151.93C52.5801 148.9 54.0801 146.07 55.6301 143.26C55.7001 143.14 55.7801 143.02 55.9201 142.82C55.8501 143.41 55.6301 143.84 55.4201 144.26ZM59.5001 160.1C66.2401 156.34 73.2801 153.4 80.9901 152.29C73.6901 154.51 66.7301 157.66 59.5001 160.1ZM56.3001 143.12C56.5201 143.41 56.4101 143.63 56.3501 143.83C55.4501 146.91 54.8801 150.07 54.0801 153.18C53.2801 156.31 52.3701 159.42 51.8401 162.61C51.6801 163.57 51.4701 164.52 51.1701 165.46C51.7901 157.79 53.6701 150.41 56.3001 143.12ZM55.8801 149.84C55.6301 152.19 55.0101 154.46 54.3801 156.73C53.5201 159.8 52.6501 162.85 51.7701 165.91C51.6701 166.26 51.5201 166.6 51.3501 167.06C51.3101 166.35 55.8001 146.78 56.1801 145.98C56.1101 147.34 56.0101 148.59 55.8801 149.84ZM68.7701 150.29C70.1901 149.34 83.5401 144.91 85.1201 144.86C82.9701 146.58 71.9501 150.24 68.7701 150.29ZM77.6001 153.78C72.0501 157.19 66.1001 159.56 59.6501 160.63C65.6301 158.34 71.6101 156.06 77.6001 153.78ZM68.0001 132.46C67.0701 134.25 66.0201 135.99 65.2901 137.88C64.6701 139.47 64.1001 141.09 63.5201 142.69C62.8301 144.59 62.1001 146.47 61.4901 148.39C60.9101 150.23 60.2001 152.01 59.4201 153.76C59.3401 153.94 59.3901 154.14 59.2501 154.29C59.4701 152.32 61.7601 144.89 62.8101 142.47C64.4701 138.66 66.0901 134.84 68.5101 131.28C68.3801 131.8 68.1801 132.13 68.0001 132.46ZM78.0001 154.43C76.6901 155.25 75.4001 156.1 74.0501 156.86C69.5901 159.39 64.8901 161.19 59.7001 161.39C59.4801 161.4 59.2401 161.48 59.0001 161.35C59.1401 161.18 59.3201 161.19 59.4701 161.16C62.2801 160.71 64.9701 159.85 67.6701 158.98C70.3401 158.12 72.8001 156.83 75.2801 155.58C76.1901 155.12 77.0901 154.62 77.9901 154.15C78.1601 154.06 78.3101 153.94 78.5901 153.95C78.4201 154.24 78.1901 154.31 78.0001 154.43ZM61.1301 150.28C62.0501 147.23 63.2501 144.28 64.3401 141.29C65.3601 138.5 66.5101 135.76 68.0701 133.03C65.5201 140.19 62.9801 147.19 59.7501 153.97C60.0501 152.64 60.7501 151.52 61.1301 150.28ZM59.2201 153.26C59.1001 153.35 59.0601 153.33 59.0701 153.26C59.5401 150.59 59.8801 147.9 60.5001 145.26C61.0701 142.81 62.2401 140.64 63.5501 138.54C63.9001 137.98 64.2901 137.43 64.6701 136.88C64.8401 136.63 64.9901 136.36 65.4101 136.13C62.3601 141.61 60.4001 147.34 59.2201 153.26ZM79.1801 145.15C77.4001 145.68 75.6401 146.24 73.9301 146.98C72.2101 147.72 70.4901 148.48 68.7901 149.22C68.6901 149.13 68.7101 149.07 68.7701 149.03C71.0401 147.49 73.3301 146 76.0101 145.26C77.9401 144.73 79.9201 144.44 81.9001 144.19C82.8101 144.08 83.7201 143.97 84.6401 143.86C84.6601 143.93 84.6701 144 84.6901 144.07C82.8601 144.48 80.9801 144.61 79.1801 145.15ZM59.1201 159.66C61.0601 158.39 62.7801 156.78 64.8901 155.79C66.7501 154.91 68.7301 154.38 70.7301 153.94C71.6501 153.74 72.5701 153.52 73.5201 153.48C68.5101 155.05 63.7901 157.29 59.1201 159.66ZM81.2601 130.93C78.9601 133.62 76.7601 136.38 74.6001 139.19C73.4301 140.71 72.3601 142.31 71.1801 143.83C70.5601 144.63 69.9001 145.39 69.2301 146.15C70.0201 143.93 78.1801 133.54 82.2101 129.63C82.0101 130.14 81.6101 130.52 81.2601 130.93ZM77.4601 148.58C80.4801 147.72 83.2401 146.25 86.0401 144.89C80.6501 148.42 74.7901 150.61 68.3001 150.92C71.3801 150.26 74.4301 149.45 77.4601 148.58ZM54.3101 147.69C53.7301 149.79 53.2001 151.78 52.6401 153.76C52.3101 154.93 52.0201 156.1 51.8301 157.3C51.3501 160.33 50.9001 163.36 50.7001 166.42C50.6701 166.96 50.6201 167.51 50.3501 168.15C49.7601 164.65 52.4301 150.8 54.3101 147.69ZM57.7501 165.88C59.4201 165.17 61.1501 164.65 62.8801 164.12C65.6801 163.25 68.5201 162.55 71.4001 162.02C71.5101 162 71.6301 161.99 71.7701 162.03C71.4801 162.23 71.1501 162.36 70.8201 162.47C69.6401 162.84 68.4101 163.02 67.2101 163.34C65.6501 163.76 64.0801 164.16 62.5201 164.59C59.5501 165.42 56.7401 166.65 54.0601 168.16C53.9801 168.21 53.8901 168.24 53.8001 168.28C55.0001 167.25 56.3301 166.49 57.7501 165.88ZM66.3501 164.24C63.9401 164.91 61.6401 165.9 59.2601 166.66C57.4701 167.23 55.7301 167.91 54.0201 168.69C58.5201 166.01 63.4501 164.46 68.5201 163.32C67.8301 163.73 67.1001 164.03 66.3501 164.24ZM79.0801 134.6C78.3001 135.77 77.4001 136.84 76.4701 137.89C74.9801 139.56 73.7001 141.39 72.3401 143.17C71.7201 143.98 71.0701 144.77 70.4301 145.56C70.1801 145.87 69.9101 146.17 69.4901 146.46C73.1801 141.73 76.5801 136.9 80.4201 132.41C80.0801 133.22 79.5501 133.89 79.0801 134.6ZM81.6101 137.43C83.3501 135.56 90.5801 132.67 92.4401 133.08C88.7101 134.29 85.0901 135.68 81.6101 137.43ZM91.3501 134.31C90.4801 135.38 84.0301 138.31 81.3001 138.85C84.5101 137.07 88.0101 135.95 91.3501 134.31ZM66.0601 164.65C65.9001 164.83 65.9701 164.72 65.9901 164.82C65.9901 164.84 65.9901 164.87 65.9801 164.88C65.8801 164.94 65.7801 165 65.6701 165.04C62.2801 166.59 58.8401 168.02 55.1401 168.69C58.7301 167.37 62.3401 166.03 66.0601 164.65ZM75.6301 135.35C73.4101 138.21 71.2601 141.12 69.4301 144.26C70.9601 140.92 72.7101 137.73 75.6301 135.35ZM77.4201 134.01C75.2801 137.25 72.7501 140.21 70.4801 143.36C72.4701 140 74.7401 136.85 77.4201 134.01ZM80.2601 138.78C81.4301 137.62 89.1501 134.21 91.8901 133.67C88.0301 135.42 83.9801 136.71 80.2601 138.78ZM79.4801 139.93C81.4601 139.27 83.3101 138.66 85.1501 138.05C84.3701 138.64 80.4501 139.9 79.4801 139.93ZM66.6101 164.62C66.8101 164.43 66.9601 164.35 67.2001 164.35C67.0501 164.55 66.8901 164.58 66.6101 164.62ZM84.1901 144.57C84.3001 144.41 84.4601 144.45 84.7601 144.43C84.5001 144.58 84.3601 144.62 84.1901 144.57ZM94.0901 132.87C94.0801 132.87 94.0601 132.79 94.0701 132.77C94.1301 132.65 94.2401 132.64 94.3601 132.66C94.3701 132.66 94.3801 132.73 94.3801 132.76C94.3001 132.85 94.2101 132.91 94.0901 132.87Z" fill="url(#paint10_linear_31_1074)"/>
<path d="M207.1 263.82C205.283 263.82 203.81 265.293 203.81 267.11C203.81 268.927 205.283 270.4 207.1 270.4C208.917 270.4 210.39 268.927 210.39 267.11C210.39 265.293 208.917 263.82 207.1 263.82Z" fill="url(#paint11_linear_31_1074)"/>
<path d="M196.14 263.82C194.323 263.82 192.85 265.293 192.85 267.11C192.85 268.927 194.323 270.4 196.14 270.4C197.957 270.4 199.43 268.927 199.43 267.11C199.43 265.293 197.957 263.82 196.14 263.82Z" fill="url(#paint12_linear_31_1074)"/>
<path d="M185.19 263.82C183.373 263.82 181.9 265.293 181.9 267.11C181.9 268.927 183.373 270.4 185.19 270.4C187.007 270.4 188.48 268.927 188.48 267.11C188.48 265.293 187.007 263.82 185.19 263.82Z" fill="url(#paint13_linear_31_1074)"/>
<path d="M174.23 263.81C172.413 263.81 170.94 265.283 170.94 267.1C170.94 268.917 172.413 270.39 174.23 270.39C176.047 270.39 177.52 268.917 177.52 267.1C177.52 265.283 176.047 263.81 174.23 263.81Z" fill="url(#paint14_linear_31_1074)"/>
<path d="M163.28 263.81C161.463 263.81 159.99 265.283 159.99 267.1C159.99 268.917 161.463 270.39 163.28 270.39C165.097 270.39 166.57 268.917 166.57 267.1C166.57 265.283 165.097 263.81 163.28 263.81Z" fill="url(#paint15_linear_31_1074)"/>
<defs>
<linearGradient id="paint0_linear_31_1074" x1="6.41308" y1="4.31292" x2="0.169767" y2="2.26101" gradientUnits="userSpaceOnUse">
<stop stop-color="#FFDF9E"/>
<stop offset="1" stop-color="#873F16"/>
</linearGradient>
<linearGradient id="paint1_linear_31_1074" x1="6.41308" y1="15.2676" x2="0.169761" y2="13.2157" gradientUnits="userSpaceOnUse">
<stop stop-color="#FFDF9E"/>
<stop offset="1" stop-color="#873F16"/>
</linearGradient>
<linearGradient id="paint2_linear_31_1074" x1="6.41308" y1="26.2223" x2="0.169767" y2="24.1704" gradientUnits="userSpaceOnUse">
<stop stop-color="#FFDF9E"/>
<stop offset="1" stop-color="#873F16"/>
</linearGradient>
<linearGradient id="paint3_linear_31_1074" x1="6.41308" y1="37.177" x2="0.169762" y2="35.1252" gradientUnits="userSpaceOnUse">
<stop stop-color="#FFDF9E"/>
<stop offset="1" stop-color="#873F16"/>
</linearGradient>
<linearGradient id="paint4_linear_31_1074" x1="6.41308" y1="48.1317" x2="0.169767" y2="46.0797" gradientUnits="userSpaceOnUse">
<stop stop-color="#FFDF9E"/>
<stop offset="1" stop-color="#873F16"/>
</linearGradient>
<linearGradient id="paint5_linear_31_1074" x1="-28.5235" y1="326.392" x2="151.056" y2="54.4165" gradientUnits="userSpaceOnUse">
<stop stop-color="#B27229"/>
<stop offset="0.2957" stop-color="#FBD05A"/>
<stop offset="0.6398" stop-color="#F5EE98"/>
<stop offset="0.8817" stop-color="#FBC53E"/>
<stop offset="1" stop-color="#A26227"/>
</linearGradient>
<linearGradient id="paint6_linear_31_1074" x1="190.17" y1="199.545" x2="-28.236" y2="310.842" gradientUnits="userSpaceOnUse">
<stop stop-color="#B27229"/>
<stop offset="0.2957" stop-color="#FBD05A"/>
<stop offset="0.6398" stop-color="#F5EE98"/>
<stop offset="0.8817" stop-color="#FBC53E"/>
<stop offset="1" stop-color="#A26227"/>
</linearGradient>
<linearGradient id="paint7_linear_31_1074" x1="78.6775" y1="51.2943" x2="-43.7714" y2="263.658" gradientUnits="userSpaceOnUse">
<stop stop-color="#B27229"/>
<stop offset="0.2957" stop-color="#FBD05A"/>
<stop offset="0.6398" stop-color="#F5EE98"/>
<stop offset="0.8817" stop-color="#FBC53E"/>
<stop offset="1" stop-color="#A26227"/>
</linearGradient>
<linearGradient id="paint8_linear_31_1074" x1="157.057" y1="137.086" x2="20.9022" y2="195.086" gradientUnits="userSpaceOnUse">
<stop stop-color="#B27229"/>
<stop offset="0.2957" stop-color="#FBD05A"/>
<stop offset="0.6398" stop-color="#F5EE98"/>
<stop offset="0.8817" stop-color="#FBC53E"/>
<stop offset="1" stop-color="#A26227"/>
</linearGradient>
<linearGradient id="paint9_linear_31_1074" x1="140.79" y1="202.153" x2="19.8883" y2="203.569" gradientUnits="userSpaceOnUse">
<stop stop-color="#B27229"/>
<stop offset="0.2957" stop-color="#FBD05A"/>
<stop offset="0.6398" stop-color="#F5EE98"/>
<stop offset="0.8817" stop-color="#FBC53E"/>
<stop offset="1" stop-color="#A26227"/>
</linearGradient>
<linearGradient id="paint10_linear_31_1074" x1="71.9979" y1="104.903" x2="69.6238" y2="225.789" gradientUnits="userSpaceOnUse">
<stop stop-color="#B27229"/>
<stop offset="0.2957" stop-color="#FBD05A"/>
<stop offset="0.6398" stop-color="#F5EE98"/>
<stop offset="0.8817" stop-color="#FBC53E"/>
<stop offset="1" stop-color="#A26227"/>
</linearGradient>
<linearGradient id="paint11_linear_31_1074" x1="206.07" y1="270.229" x2="208.122" y2="263.985" gradientUnits="userSpaceOnUse">
<stop stop-color="#FFDF9E"/>
<stop offset="1" stop-color="#873F16"/>
</linearGradient>
<linearGradient id="paint12_linear_31_1074" x1="195.115" y1="270.228" x2="197.167" y2="263.985" gradientUnits="userSpaceOnUse">
<stop stop-color="#FFDF9E"/>
<stop offset="1" stop-color="#873F16"/>
</linearGradient>
<linearGradient id="paint13_linear_31_1074" x1="184.16" y1="270.227" x2="186.213" y2="263.984" gradientUnits="userSpaceOnUse">
<stop stop-color="#FFDF9E"/>
<stop offset="1" stop-color="#873F16"/>
</linearGradient>
<linearGradient id="paint14_linear_31_1074" x1="173.206" y1="270.227" x2="175.258" y2="263.983" gradientUnits="userSpaceOnUse">
<stop stop-color="#FFDF9E"/>
<stop offset="1" stop-color="#873F16"/>
</linearGradient>
<linearGradient id="paint15_linear_31_1074" x1="162.251" y1="270.226" x2="164.304" y2="263.983" gradientUnits="userSpaceOnUse">
<stop stop-color="#FFDF9E"/>
<stop offset="1" stop-color="#873F16"/>
</linearGradient>
</defs>
</svg>
