<svg width="211" height="271" viewBox="0 0 211 271" fill="none" xmlns="http://www.w3.org/2000/svg">
<path d="M207.1 270.4C208.917 270.4 210.39 268.927 210.39 267.11C210.39 265.293 208.917 263.82 207.1 263.82C205.283 263.82 203.81 265.293 203.81 267.11C203.81 268.927 205.283 270.4 207.1 270.4Z" fill="url(#paint0_linear_30_600)"/>
<path d="M207.1 259.45C208.917 259.45 210.39 257.977 210.39 256.16C210.39 254.343 208.917 252.87 207.1 252.87C205.283 252.87 203.81 254.343 203.81 256.16C203.81 257.977 205.283 259.45 207.1 259.45Z" fill="url(#paint1_linear_30_600)"/>
<path d="M207.1 248.49C208.917 248.49 210.39 247.017 210.39 245.2C210.39 243.383 208.917 241.91 207.1 241.91C205.283 241.91 203.81 243.383 203.81 245.2C203.81 247.017 205.283 248.49 207.1 248.49Z" fill="url(#paint2_linear_30_600)"/>
<path d="M207.1 237.54C208.917 237.54 210.39 236.067 210.39 234.25C210.39 232.433 208.917 230.96 207.1 230.96C205.283 230.96 203.81 232.433 203.81 234.25C203.81 236.067 205.283 237.54 207.1 237.54Z" fill="url(#paint3_linear_30_600)"/>
<path d="M207.1 226.58C208.917 226.58 210.39 225.107 210.39 223.29C210.39 221.473 208.917 220 207.1 220C205.283 220 203.81 221.473 203.81 223.29C203.81 225.107 205.283 226.58 207.1 226.58Z" fill="url(#paint4_linear_30_600)"/>
<path d="M134.01 63.64C133.18 65.11 132.65 66.71 132.43 68.4C132.19 70.17 131.84 71.91 131.46 73.65C131.13 75.16 130.87 76.69 130.71 78.22C130.33 81.87 129.67 85.47 129.01 89.07C128.49 91.85 128 94.62 127.92 97.46C127.89 98.64 127.72 99.8 127.43 100.95C127.36 101.21 127.3 101.48 127.3 101.74C127.29 102.18 127.5 102.35 127.93 102.27C128.13 102.24 128.32 102.17 128.51 102.1C130.1 101.48 131.74 100.96 133.29 100.22C135.19 99.31 137.21 98.82 139.29 98.59C142.13 98.28 144.97 97.98 147.81 97.68C150.6 97.39 153.3 96.73 155.95 95.82C157.45 95.3 158.83 94.55 160.11 93.6C161.63 92.48 162.91 91.1 164.22 89.74C166.33 87.56 168.77 85.77 171.19 83.96C173.89 81.93 176.11 79.51 177.58 76.43C178.57 74.36 179.87 72.48 181.2 70.62C182.06 69.42 182.88 68.18 183.52 66.85C185.1 63.55 185.98 60.04 186.54 56.44C186.83 54.56 186.74 52.68 186.39 50.82C185.91 48.34 185.34 45.89 184.56 43.49C183.45 40.07 182.43 36.62 181.43 33.17C180.93 31.46 180.53 29.7 179.79 28.09C179.17 26.72 179.09 25.41 179.24 23.99C179.33 23.12 179.38 22.25 179.45 21.38C179.5 20.71 179.49 20.04 179.43 19.37C179.41 19.17 179.37 18.97 179.3 18.79C179.26 18.68 179.15 18.56 178.99 18.59C178.84 18.61 178.75 18.73 178.73 18.86C178.7 19.02 178.7 19.19 178.71 19.36C178.83 21.35 178.53 23.32 178.43 25.3C178.42 25.57 178.4 25.83 178.19 26.05C177.09 27.23 176.07 28.49 174.77 29.46C172.71 30.99 170.51 32.26 168.1 33.16C165.46 34.15 162.86 35.25 160.35 36.55C157.99 37.78 155.76 39.19 153.86 41.1C151.2 43.76 148.46 46.34 145.69 48.89C143.49 50.91 141.35 53 139.44 55.3C137.22 57.81 135.64 60.75 134.01 63.64ZM172.31 49.76C172.2 50.07 172 50.13 171.7 50.15C163.82 50.56 156.08 51.76 148.48 53.92C145.83 54.67 143.24 55.62 140.68 56.62C140.35 56.75 140.02 56.94 139.55 56.95C140.26 55.83 141.07 54.88 141.92 53.95C142.21 53.64 142.61 53.54 142.98 53.4C147.54 51.62 152.25 50.44 157.08 49.7C162.09 48.92 167.11 48.19 172.15 47.67C172.33 47.65 172.55 47.71 172.7 47.51C172.52 47.25 172.27 47.41 172.07 47.43C165.15 48.08 158.25 48.95 151.44 50.39C148.97 50.91 146.57 51.67 144.2 52.52C143.9 52.63 143.61 52.84 143.12 52.75C143.79 51.92 144.42 51.22 145.38 50.81C148.75 49.37 152.3 48.7 155.88 48.09C161.64 47.11 167.39 46.1 173.15 45.11C173.38 45.07 173.61 45.06 174.05 45.01C173.43 46.69 172.86 48.22 172.31 49.76ZM173.05 52.6C172.98 52.36 172.95 52.07 172.67 51.93C172.39 52.09 172.61 52.3 172.65 52.45C174.12 57.55 174.68 62.79 175.12 68.05C175.41 71.54 175.16 75.03 174.9 78.52C174.78 80.14 173.67 80.82 172.73 81.87C172.56 81.37 172.71 81.06 172.77 80.74C173.87 74.95 174.07 69.13 173.33 63.28C173.08 61.28 172.84 59.28 172.55 57.28C172.39 56.15 172.09 55.04 171.77 53.95C171.69 53.69 171.56 53.46 171.72 53.18C172.36 52.03 172.63 50.73 173.11 49.52C173.16 49.4 173.2 49.26 173.42 49.2C173.81 49.87 174.08 50.62 174.31 51.36C176.77 59.1 177.91 66.98 176.98 75.11C176.81 76.63 176.09 77.78 175.21 79.13C176.03 70.03 175.47 61.24 173.05 52.6ZM134.46 65.38C134.6 65.05 134.92 65.01 135.19 64.9C140.98 62.49 146.98 60.77 153.18 59.81C155.27 59.48 157.38 59.25 159.49 59.08C162.17 58.87 164.84 58.52 167.5 58.13C167.86 58.08 168.22 57.96 168.65 58.14C168.32 58.99 167.84 59.73 167.38 60.5C167.22 60.77 166.97 60.79 166.7 60.85C164.99 61.23 163.24 61.38 161.5 61.41C155.16 61.55 149.04 62.86 143 64.71C140.88 65.36 138.75 65.97 136.63 66.63C135.68 66.92 134.76 67.29 133.69 67.66C133.85 66.76 134.17 66.08 134.46 65.38ZM132.25 73.98C132.34 73.44 132.65 73.18 133.14 73.01C134.95 72.37 136.8 71.9 138.66 71.47C144.71 70.07 150.76 68.72 156.84 67.45C158.68 67.07 160.49 66.54 162.34 66.24C162.69 66.18 163.05 66.05 163.52 66.25C162.66 67.42 162.01 68.64 160.4 69.02C158.05 69.59 155.71 70.17 153.34 70.63C149.71 71.32 146.15 72.28 142.58 73.24C141.32 73.58 140.03 73.81 138.75 74.11C136.44 74.65 134.09 75.07 131.82 76.33C131.89 75.41 132.13 74.7 132.25 73.98ZM132.66 72.55C133.19 70.35 132.6 70.78 134.83 70.04C139.16 68.59 143.55 67.34 148.01 66.32C151.05 65.62 154.07 64.76 157.17 64.4C159.5 64.12 161.85 63.89 164.21 64.03C164.41 64.04 164.61 64.01 164.79 64.13C164.46 65.36 164.05 65.69 162.87 65.83C162.04 65.93 161.2 66.06 160.39 66.24C153.28 67.82 146.17 69.41 139.06 71C136.93 71.48 134.83 72.05 132.69 72.73C132.67 72.62 132.65 72.58 132.66 72.55ZM136.5 61.71C136.72 61.35 137.17 61.29 137.55 61.16C140.09 60.29 142.72 59.72 145.3 58.98C150.18 57.59 155.19 57.15 160.21 56.7C163.16 56.44 166.05 55.86 168.98 55.43C169.31 55.38 169.63 55.26 170 55.41C169.82 56.14 169.38 56.74 169.09 57.41C168.96 57.72 168.7 57.69 168.43 57.72C163.5 58.33 158.54 58.63 153.62 59.35C147.51 60.24 141.62 61.92 135.88 64.18C135.61 64.29 135.36 64.49 134.98 64.4C135.34 63.41 135.98 62.59 136.5 61.71ZM165.76 63.04C165.48 63.58 165.1 63.71 164.54 63.67C162.89 63.55 161.25 63.68 159.61 63.77C156.71 63.94 153.89 64.53 151.08 65.2C146.08 66.38 141.11 67.68 136.22 69.23C135.23 69.54 134.26 69.91 133.15 70.38C133.26 69.71 133.36 69.18 133.42 68.64C133.46 68.29 133.66 68.13 133.97 68.02C134.83 67.72 135.65 67.34 136.52 67.1C140.76 65.92 144.94 64.55 149.21 63.49C152.91 62.57 156.65 62.02 160.45 61.8C162.49 61.69 164.55 61.65 166.55 61.14C166.64 61.12 166.74 61.15 166.97 61.16C166.52 61.86 166.08 62.42 165.76 63.04ZM171.96 50.67C171.47 52.47 171.47 52.51 169.51 52.73C164.21 53.34 158.96 54.28 153.68 55.08C149.83 55.66 146.02 56.44 142.23 57.37C141.15 57.63 140.09 57.92 139.05 58.31C138.9 58.37 138.75 58.47 138.58 58.36C138.71 57.81 139.2 57.7 139.62 57.53C142.57 56.33 145.56 55.22 148.62 54.33C154.73 52.54 160.97 51.47 167.29 50.81C168.56 50.68 169.83 50.57 171.1 50.47C171.36 50.45 171.63 50.36 171.94 50.54C171.96 50.6 171.97 50.64 171.96 50.67ZM132.8 78.76C134.07 78.14 135.31 77.48 136.67 77.09C138.57 76.54 140.47 75.96 142.34 75.31C144.44 74.57 146.63 74.21 148.8 73.78C151.93 73.17 155.05 72.5 158.15 71.76C158.47 71.68 158.78 71.53 159.22 71.63C158.63 72.52 157.92 73.25 157.23 74C157.11 74.14 156.93 74.14 156.76 74.15C155.07 74.24 153.46 74.77 151.83 75.15C147.68 76.11 143.51 77.02 139.47 78.42C136.71 79.38 133.95 80.33 131.35 81.69C131.29 81.72 131.22 81.71 131.08 81.73C130.96 80.28 131.5 79.4 132.8 78.76ZM139.71 58.46C143.7 57.39 147.72 56.49 151.8 55.8C157.26 54.88 162.72 53.96 168.21 53.19C169.14 53.06 170.07 52.96 171.09 52.83C170.96 53.56 170.61 54.12 170.37 54.73C170.29 54.94 170.13 55.02 169.9 55.03C167.18 55.15 164.53 55.85 161.82 56.1C158.81 56.37 155.8 56.66 152.8 57.01C148.61 57.5 144.59 58.71 140.54 59.82C139.42 60.13 138.32 60.51 137.05 60.9C137.54 59.46 138.38 58.82 139.71 58.46ZM172.13 57.31C172.78 61.49 173.39 65.68 173.41 69.92C173.43 73.89 172.96 77.82 172.24 81.72C172.06 82.7 171.31 83.02 170.7 83.52C170.4 83.34 170.57 83.12 170.6 82.96C171.34 79.38 171.32 75.76 171.31 72.14C171.29 67.3 170.68 62.5 170.07 57.71C169.99 57.11 170.04 56.59 170.32 56.07C170.66 55.42 170.88 54.71 171.36 54.03C171.71 55.16 171.96 56.23 172.13 57.31ZM174.79 42.67C174.3 44.64 174.29 44.59 172.27 44.9C169.42 45.33 166.57 45.84 163.73 46.32C159.93 46.97 156.13 47.65 152.32 48.29C150.42 48.61 148.58 49.1 146.8 49.83C146.47 49.96 146.15 50.15 145.65 50.14C147.1 48.67 148.5 47.39 150.47 46.85C152.74 46.23 155.06 45.85 157.37 45.43C162.69 44.47 168 43.49 173.32 42.53C173.78 42.45 174.25 42.42 174.78 42.36C174.79 42.54 174.81 42.61 174.79 42.67ZM167.77 66.28C167.75 71.83 167.5 77.36 166.5 82.83C166.2 84.45 165.78 86.04 165.31 87.62C165.1 88.33 164.47 88.62 164.06 89.06C163.85 89.04 163.85 88.93 163.87 88.84C164.81 83.77 165.04 78.64 165.22 73.5C165.32 70.72 165.41 67.93 165.37 65.14C165.37 64.9 165.35 64.67 165.49 64.46C166.15 63.53 166.64 62.49 167.52 61.42C167.71 63.21 167.77 64.74 167.77 66.28ZM175.77 39.19C175.7 39.51 175.45 39.46 175.22 39.49C168.11 40.36 161.15 42.04 154.13 43.39C153.64 43.48 153.16 43.62 152.63 43.65C153.76 42.56 154.62 41.2 156.26 40.7C158.19 40.11 160.15 39.69 162.14 39.35C166.08 38.68 170.01 37.95 173.94 37.26C174.66 37.13 175.4 37.04 176.18 37.11C176.19 37.85 175.91 38.5 175.77 39.19ZM153.31 43.94C160.61 42.47 167.89 40.91 175.26 39.8C175.32 39.79 175.39 39.81 175.52 39.82C175.53 40.5 175.25 41.11 175.09 41.75C175.02 42.05 174.79 42.06 174.55 42.09C168.91 42.74 163.4 44.13 157.8 45C156.64 45.18 155.49 45.39 154.33 45.59C152.71 45.87 151.11 46.23 149.51 46.7C150.56 45.47 151.59 44.29 153.31 43.94ZM130.66 83.87C130.64 82.78 131.16 82.14 132.17 81.7C135.74 80.14 139.39 78.79 143.14 77.73C147.18 76.59 151.27 75.68 155.35 74.69C155.72 74.6 156.11 74.42 156.66 74.59C155.94 75.42 155.29 76.2 154.61 76.96C154.4 77.18 154.06 77.18 153.76 77.22C150.13 77.77 146.61 78.75 143.11 79.84C140.87 80.54 138.61 81.19 136.36 81.87C134.78 82.34 133.24 82.91 131.77 83.65C131.45 83.81 131.14 84.03 130.71 84.05C130.67 83.94 130.66 83.91 130.66 83.87ZM177.99 41.69C179.2 45.14 180.55 48.53 182.05 51.87C183.22 54.49 183.97 57.23 184.15 60.12C184.26 61.88 183.94 63.51 183.21 65.12C183.01 65.02 183.08 64.85 183.06 64.72C183.05 64.55 183.03 64.38 183.03 64.22C183.09 61.15 182.34 58.24 181.28 55.38C180.44 53.11 179.35 50.96 178.29 48.79C177.65 47.49 177.1 46.16 176.7 44.77C176.6 44.42 176.53 44.03 176.34 43.73C175.66 42.67 175.76 41.59 176.15 40.47C176.35 39.91 176.45 39.33 176.6 38.76C176.67 38.76 176.73 38.76 176.8 38.76C177.2 39.74 177.65 40.7 177.99 41.69ZM131.61 77.18C131.65 76.85 131.88 76.76 132.12 76.63C133.1 76.09 134.11 75.67 135.2 75.4C136.5 75.08 137.8 74.72 139.12 74.46C142.36 73.83 145.49 72.78 148.7 72.05C151.02 71.52 153.37 71.06 155.7 70.58C157.41 70.23 159.1 69.8 160.77 69.26C160.9 69.22 161.01 69.14 161.26 69.3C160.79 69.96 160.28 70.6 159.7 71.18C159.64 71.24 159.53 71.29 159.43 71.29C157.3 71.4 155.29 72.1 153.21 72.48C152.09 72.69 150.98 72.97 149.85 73.15C145.09 73.93 140.55 75.52 135.95 76.9C134.36 77.38 132.94 78.21 131.35 79.19C131.45 78.36 131.54 77.77 131.61 77.18ZM158.14 88.42C159.02 83.09 159.78 77.75 160.03 72.35C160.04 72.18 160.01 72.01 160.12 71.87C160.61 71.29 161.11 70.72 161.75 69.98C161.77 70.84 161.8 71.52 161.8 72.21C161.81 76.29 161.15 80.3 160.64 84.32C160.26 87.32 159.56 90.24 158.55 93.11C158.18 94.16 157.52 94.58 156.48 94.8C157.18 92.66 157.79 90.57 158.14 88.42ZM163.71 70.48C163.61 76.77 163.03 83 161.76 89.16C161.68 89.55 161.58 89.94 161.48 90.33C160.94 92.39 160.73 92.65 158.81 93.68C158.58 93.45 158.78 93.24 158.86 93.04C159.93 90.38 160.55 87.6 160.9 84.76C161.4 80.77 162.07 76.79 162.1 72.75C162.11 71.79 162.26 70.81 162.01 69.86C161.95 69.62 162 69.41 162.16 69.2C162.6 68.65 163.02 68.09 163.45 67.54C163.51 67.55 163.58 67.57 163.64 67.58C163.67 68.56 163.73 69.53 163.71 70.48ZM147.55 86.02C146.57 89.65 144.85 92.95 143.12 96.26C143.09 96.32 143.03 96.37 143.02 96.43C142.71 97.5 141.94 97.76 140.84 97.6C141.28 96.82 141.7 96.08 142.11 95.33C143.16 93.41 144.05 91.4 144.57 89.28C144.85 88.14 145.44 87.42 146.24 86.7C147.21 85.83 148.11 84.87 149.03 83.94C149.29 83.68 149.56 83.42 149.91 83.2C150.05 83.57 149.89 83.88 149.82 84.18C148.84 88.53 147.22 92.64 145.26 96.63C145.04 97.09 144.77 97.31 144.27 97.31C143.9 97.3 143.54 97.32 143.11 97.32C143.14 97 143.36 96.72 143.53 96.41C144.99 93.76 146.38 91.08 147.36 88.21C147.64 87.4 147.92 86.57 147.91 85.61C147.63 85.77 147.59 85.89 147.55 86.02ZM151.24 79.68C146.11 81.01 141.02 82.48 136.05 84.32C134.22 85 132.44 85.77 130.79 86.81C130.65 86.9 130.52 87.01 130.24 86.93C130.32 86.33 130.4 85.71 130.48 85.09C130.53 84.65 130.88 84.51 131.22 84.35C132.38 83.82 133.53 83.26 134.75 82.9C139.51 81.5 144.2 79.86 149.01 78.63C150.57 78.23 152.13 77.87 153.96 77.61C153.14 78.7 152.41 79.38 151.24 79.68ZM165.76 87.09C167.08 83.04 167.52 78.84 167.82 74.62C168.1 70.57 168.27 66.51 167.97 62.45C167.96 62.38 167.98 62.31 167.96 62.25C167.41 60.98 168.2 60.07 168.85 59.07C169.05 59.26 169 59.49 169 59.69C169.03 60.9 169.29 62.09 169.39 63.29C169.61 65.87 169.65 68.45 169.52 71.03C169.27 75.72 168.94 80.4 168.05 85.03C167.97 85.45 167.84 85.76 167.47 86.02C166.92 86.4 166.43 86.86 165.92 87.29C165.91 87.3 165.87 87.27 165.84 87.26C165.81 87.21 165.75 87.14 165.76 87.09ZM179.4 70.13C179.69 65.83 179.06 61.63 178.13 57.46C177.33 53.92 176.36 50.43 174.76 47.16C174.3 46.22 174.59 45.53 175.05 44.64C175.32 45.21 175.53 45.65 175.74 46.1C178.11 51.11 179.71 56.34 180.52 61.82C180.88 64.29 180.83 66.77 180.77 69.25C180.74 70.27 179.93 70.84 179.47 71.64C179.29 71.12 179.36 70.63 179.4 70.13ZM184.13 57.08C183.64 54.74 182.82 52.5 181.81 50.34C180.66 47.88 179.72 45.33 178.77 42.79C178.26 41.41 177.71 40.04 177.15 38.68C176.91 38.1 176.84 37.53 177.04 36.93C177.23 36.37 177.27 35.76 177.57 35.13C177.98 35.54 178.11 36.02 178.24 36.49C179.29 40.36 180.86 44.03 182.59 47.62C184.31 51.19 185.03 54.91 185.04 58.82C185.04 59.05 185.02 59.29 184.96 59.52C184.89 59.84 184.78 60.15 184.69 60.47C184.32 59.35 184.36 58.2 184.13 57.08ZM177.88 57.96C178.94 62.58 179.3 67.25 179 71.97C178.99 72.17 179 72.39 178.91 72.56C178.43 73.42 177.92 74.27 177.3 75.32C177.44 73.75 177.62 72.42 177.66 71.09C177.84 64.86 176.93 58.77 175.18 52.79C174.78 51.44 174.39 50.08 173.68 48.85C173.55 48.62 173.52 48.43 173.62 48.2C173.79 47.8 173.93 47.4 174.16 46.79C175.97 50.48 177.01 54.18 177.88 57.96ZM161.8 36.95C162.16 36.79 162.58 36.73 162.97 36.7C166.69 36.36 170.33 35.55 174 34.9C174.76 34.77 175.53 34.71 176.3 34.62C176.72 34.57 176.86 34.75 176.73 35.15C176.72 35.18 176.72 35.22 176.71 35.25C176.45 36.58 176.45 36.55 175.12 36.68C172.64 36.93 170.22 37.5 167.78 37.94C165.4 38.37 163.03 38.83 160.65 39.22C159.23 39.45 157.85 39.87 156.44 40.15C158.11 38.84 159.91 37.82 161.8 36.95ZM183.58 44.05C185.26 47.83 186.14 51.74 185.69 55.89C185.66 56.16 185.61 56.42 185.56 56.68C185.54 56.78 185.51 56.87 185.45 57.07C185.25 56.83 185.28 56.61 185.28 56.41C185.16 53.45 184.43 50.65 183.18 47.97C181.72 44.84 180.33 41.68 179.17 38.43C178.72 37.17 178.45 35.84 177.88 34.63C177.57 33.98 177.98 33.39 178.09 32.77C179.55 36.72 181.89 40.23 183.58 44.05ZM159 79.79C158.51 83.99 157.99 88.19 156.87 92.28C156.67 92.99 156.42 93.69 156.24 94.4C156.12 94.88 155.87 95.16 155.39 95.28C154.91 95.4 154.43 95.56 153.87 95.72C154.29 94.47 154.7 93.35 155.05 92.2C156.17 88.57 156.76 84.82 157.5 81.1C157.94 78.92 158.25 76.74 158.28 74.51C158.29 73.79 158.66 73.27 159.68 72.46C159.7 75.01 159.28 77.39 159 79.79ZM152.37 94.3C152.86 92.8 153.23 91.27 153.57 89.73C154.19 86.84 155.14 84.04 155.69 81.13C155.95 79.71 156.32 78.31 156.23 76.85C156.22 76.65 156.21 76.45 156.36 76.28C156.85 75.71 157.35 75.14 158.02 74.64C157.94 75.66 157.94 76.69 157.76 77.69C156.85 82.78 156.05 87.89 154.5 92.83C154.27 93.57 153.98 94.28 153.76 95.02C153.56 95.69 153.13 96.01 152.47 96.08C152.27 96.1 152.08 96.16 151.71 96.23C151.96 95.49 152.18 94.9 152.37 94.3ZM147.2 84.75C146.95 85.02 146.59 85 146.27 85.08C141.76 86.29 137.27 87.53 132.86 89.07C131.85 89.42 130.86 89.85 129.84 90.25C129.66 90 129.84 89.75 129.83 89.51C129.79 88.7 130.26 88.32 130.96 88.08C132.32 87.61 133.66 87.05 135.03 86.62C138.17 85.65 141.33 84.73 144.48 83.79C145.7 83.42 146.92 83.04 148.14 82.68C148.45 82.59 148.76 82.42 149.26 82.56C148.53 83.34 147.86 84.05 147.2 84.75ZM181.15 64.67C180.83 59.88 179.74 55.25 178.02 50.78C177.25 48.78 176.38 46.81 175.49 44.86C175.18 44.18 175.16 43.6 175.54 42.98C175.76 42.94 175.75 43.14 175.77 43.23C176.64 46.42 178.15 49.34 179.56 52.31C180.88 55.07 181.95 57.93 182.42 60.98C182.67 62.61 182.72 64.25 182.72 65.9C182.72 66.25 182.63 66.56 182.47 66.86C182.08 67.56 181.68 68.26 181.29 68.95C181.12 67.47 181.24 66.07 181.15 64.67ZM168.56 84.01C169.54 78.21 170 72.36 169.99 66.47C169.99 64.86 169.85 63.25 169.63 61.65C169.49 60.59 169.42 59.51 169.32 58.44C169.29 58.16 169.37 57.93 169.65 57.69C169.97 58.67 170.02 59.63 170.12 60.58C170.58 64.68 171.02 68.79 170.97 72.93C170.93 76.45 170.86 79.98 170.22 83.46C170.16 83.77 170.11 84.02 169.82 84.21C169.39 84.5 168.98 84.83 168.49 85.21C168.37 84.7 168.5 84.35 168.56 84.01ZM165.04 66.25C164.86 73.36 164.92 80.49 163.72 87.54C163.65 87.94 163.59 88.34 163.52 88.73C163.26 90.1 162.95 90.54 161.65 91.42C161.56 91.14 161.7 90.91 161.76 90.67C163.03 85.6 163.58 80.43 163.92 75.23C164.09 72.58 164.13 69.93 163.95 67.28C163.9 66.54 164.53 66.13 164.86 65.44C165.08 65.79 165.04 66.03 165.04 66.25ZM130.75 87.28C132.76 85.97 134.97 85.07 137.22 84.28C141.78 82.68 146.44 81.39 151.09 80.06C151.24 80.02 151.41 79.95 151.62 80.1C151.06 80.66 150.53 81.2 150 81.74C149.85 81.89 149.7 82 149.49 82.04C146.22 82.69 143.1 83.86 139.89 84.73C136.64 85.6 133.47 86.69 130.36 87.96C130.31 87.98 130.24 87.96 130.11 87.96C130.18 87.5 130.51 87.44 130.75 87.28ZM130.51 90.43C132.27 89.69 134.06 89.02 135.89 88.47C139.1 87.52 142.32 86.59 145.54 85.65C145.82 85.57 146.09 85.46 146.48 85.49C145.88 86.38 145.17 87.03 144.52 87.73C144.32 87.94 144.05 87.95 143.79 88.01C141.08 88.64 138.37 89.28 135.67 89.93C133.87 90.36 132.14 90.99 130.43 91.69C130.16 91.8 129.88 91.91 129.6 92.02C129.52 90.85 129.52 90.85 130.51 90.43ZM153.11 84.59C152.26 88.36 151.37 92.11 149.78 95.66C149.64 95.98 149.68 96.51 149.46 96.63C149.05 96.86 148.51 96.87 148.05 96.84C147.86 96.67 147.98 96.56 148.02 96.45C150.04 91.63 151.56 86.67 152.37 81.51C152.55 80.37 153.13 79.66 154.11 78.82C153.87 80.92 153.52 82.77 153.11 84.59ZM142.33 89.85C141.77 90.6 141.1 90.95 140.15 91.17C136.72 91.99 133.25 92.66 129.92 93.84C129.74 93.91 129.55 94.01 129.34 93.93C129.3 92.63 129.29 92.61 130.41 92.14C132.49 91.26 134.62 90.57 136.82 90.06C139.07 89.55 141.32 89 143.75 88.42C143.17 88.99 142.69 89.37 142.33 89.85ZM150.52 87.81C149.72 90.61 148.77 93.37 147.74 96.1C147.49 96.76 147.16 97.09 146.45 97.07C146.16 97.06 145.86 97.17 145.38 97.26C145.61 96.74 145.72 96.45 145.87 96.17C148.04 91.98 149.65 87.59 150.47 82.92C150.62 82.06 151.3 81.68 151.92 81.2C151.59 83.46 151.14 85.65 150.52 87.81ZM155.69 78.67C155.48 80.17 155.18 81.65 154.81 83.12C153.87 86.8 153.12 90.52 152.03 94.15C151.9 94.6 151.69 95.03 151.56 95.48C151.33 96.29 150.83 96.64 149.99 96.52C149.88 96.35 150.01 96.2 150.07 96.08C151.56 93.04 152.41 89.8 153.16 86.52C153.75 83.93 154.27 81.33 154.52 78.68C154.59 77.88 155.25 77.61 155.74 76.98C155.86 77.69 155.76 78.18 155.69 78.67ZM177.18 33.12C176.99 34.23 176.99 34.21 175.86 34.28C174.28 34.38 172.74 34.71 171.19 35C168.95 35.42 166.71 35.89 164.43 36.1C164.28 36.11 164.12 36.18 163.91 36.02C168.11 33.84 172.63 33.01 177.18 32.35C177.32 32.67 177.22 32.9 177.18 33.12ZM129.15 95.05C129.11 94.59 129.35 94.4 129.75 94.28C131.04 93.9 132.3 93.45 133.6 93.12C135.75 92.58 137.91 92.11 140.04 91.5C140.16 91.46 140.29 91.46 140.45 91.44C139.99 92.16 138.55 93.31 137.84 93.46C134.92 94.07 132.03 94.8 129.24 95.85C129.04 95.58 129.17 95.3 129.15 95.05ZM141.43 93.34C141.85 92.58 142.31 91.81 142.51 90.97C142.75 89.94 143.44 89.34 144.15 88.72C144.35 88.81 144.31 88.95 144.26 89.07C143.34 91.7 142.24 94.24 140.9 96.68C140.38 97.63 139.72 98.05 138.55 97.89C139.54 96.34 140.57 94.89 141.43 93.34ZM182.93 41.75C181.93 39.82 180.93 37.89 179.91 35.97C179.23 34.69 178.83 33.31 178.34 31.96C178.17 31.48 178.37 31.05 178.52 30.46C180.4 34.35 182.55 37.97 183.31 42.16C183.07 42.14 183.03 41.93 182.93 41.75ZM136.43 98.09C136.04 98.63 135.52 98.81 134.84 98.87C135.65 97.41 136.84 96.31 137.5 94.85C136.96 95.48 136.35 96.06 135.9 96.74C135.33 97.61 134.49 98.26 134.03 99.22C133.92 99.45 133.59 99.59 133.12 99.54C134.19 98.33 134.71 96.85 135.82 95.84C136.84 94.91 138.03 94.16 139.14 93.34C139.19 93.39 139.24 93.45 139.29 93.5C138.5 95.13 137.47 96.62 136.43 98.09ZM129.81 96.06C132.06 95.17 134.41 94.64 136.75 94.04C136.88 94.01 137.01 93.99 137.16 94.09C136.07 95.05 134.97 95.88 133.44 96.07C131.95 96.25 130.56 96.87 129.17 97.45C129.01 96.39 129 96.38 129.81 96.06ZM175.96 32.17C174.37 32.39 172.8 32.69 171.14 33.08C173 31.34 174.99 30.45 177.65 30.12C177.59 31.95 177.59 31.95 175.96 32.17ZM141 93.22C140.12 94.72 139.12 96.14 138.19 97.61C137.91 98.05 137.59 98.31 137.03 98.24C136.94 97.99 137.12 97.82 137.25 97.65C138.24 96.37 138.98 94.95 139.68 93.5C139.97 92.89 140.31 92.35 140.9 91.96C141.31 91.69 141.63 91.28 141.98 90.93C141.85 91.81 141.41 92.51 141 93.22ZM129 98.86C128.91 98.38 128.89 98.05 129.32 97.86C130.8 97.19 132.32 96.64 134.06 96.33C132.68 97.99 130.77 98.19 129 98.86ZM180.78 33.68C180.72 33.71 180.65 33.75 180.59 33.78C180.18 33.3 179.98 32.69 179.7 32.14C179.4 31.54 179.17 30.91 178.93 30.29C178.68 29.65 178.59 29 179.07 28.28C179.64 30.07 180.21 31.88 180.78 33.68ZM134.51 96.9C133.81 98.1 132.98 99.12 132.1 100.11C131.85 100.4 131.83 100.38 131.07 100.5C132.07 99.14 132.83 97.65 134.51 96.9ZM128.66 100.77C128.54 100.37 128.7 100.12 128.72 99.86C128.75 99.48 128.93 99.26 129.31 99.15C129.91 98.98 130.47 98.68 131.31 98.54C130.4 99.46 129.55 100.09 128.66 100.77ZM177.8 28.69C177.92 29.66 177.92 29.66 177.1 29.83C176.49 29.96 175.88 30.09 175.15 30.24C175.85 29.17 176.94 29.18 177.8 28.69ZM128.91 101.35C129.65 100.49 130.52 100 131.26 99.35C130.34 100.85 130.02 101.13 128.91 101.35ZM178.08 27.25C178.07 28.27 177.99 28.34 176.7 28.63C177.13 28.09 177.57 27.69 178.08 27.25Z" fill="url(#paint5_linear_30_600)"/>
<path d="M154.55 25.76C154.11 26.07 153.7 26 153.3 26.03C148.18 26.37 143.4 27.82 139.03 30.54C132.27 34.76 125.49 38.95 119.18 43.85C118.85 44.1 118.25 44.26 118.46 44.83C118.67 45.4 119.25 45.16 119.65 45.12C122.17 44.82 124.58 44.1 126.97 43.29C131.91 41.61 136.67 39.5 141.23 36.97C143.54 35.69 145.72 34.18 147.81 32.56C149.8 31.02 151.79 29.47 153.83 27.99C155.62 26.7 157.54 26.27 159.7 26.87C163.35 27.87 166.96 28.98 170.4 30.58C171.13 30.92 171.82 31.34 172.59 31.92C172.68 31.26 172.25 31.04 171.93 30.83C170.95 30.17 169.86 29.71 168.78 29.24C165.53 27.83 162.19 26.69 158.73 25.91C157.48 25.63 156.41 25.05 155.47 24.13C153.2 21.91 151.01 19.63 148.82 17.33C144.95 13.27 140.61 9.83004 135.48 7.45004C132.71 6.17004 129.86 5.12004 126.97 4.15004C121.87 2.44004 116.56 1.54004 111.36 0.240039C110.96 0.140039 110.43 -0.159963 110.18 0.410037C109.97 0.880037 110.46 1.11004 110.76 1.36004C114.31 4.34004 117.98 7.17004 121.72 9.90004C125.05 12.34 128.78 14.07 132.5 15.8C137.47 18.11 142.48 20.35 147.47 22.63C149.1 23.37 150.81 23.85 152.81 24.4C150.52 24.36 148.6 23.82 146.64 23.54C142.78 22.98 138.91 22.51 135.02 22.17C134.19 22.1 133.45 21.9 132.68 21.42C126.72 17.78 120.72 14.2 114.7 10.65C111.46 8.74004 107.98 7.36004 104.31 6.54004C101.34 5.88004 98.3199 5.44004 95.2799 5.16004C91.8799 4.85004 88.5099 4.35004 85.1299 3.86004C82.8799 3.53004 80.6299 3.23004 78.3699 2.93004C78.0599 2.89004 77.6498 2.72004 77.4898 3.10004C77.2998 3.54004 77.6898 3.73004 78.0198 3.91004C80.1298 5.05004 82.2399 6.18004 84.3399 7.34004C87.2199 8.93004 90.0998 10.53 93.1698 11.73C95.8598 12.78 98.5998 13.68 101.36 14.54C104.27 15.45 107.19 16.32 110.1 17.23C113.21 18.21 116.4 18.86 119.58 19.54C122.36 20.13 125.15 20.7 127.93 21.29C128.28 21.36 128.66 21.4 129.03 21.65C128.31 21.83 127.63 21.7 126.97 21.7C121.85 21.66 116.74 21.82 111.64 22.29C110.91 22.36 110.2 22.36 109.49 22.07C105.64 20.49 101.6 19.53 97.6199 18.37C92.1299 16.78 86.5999 16.52 80.9699 17.37C78.5599 17.73 76.1298 17.93 73.6998 18.15C70.8098 18.42 68.0198 19.12 65.2298 19.85C64.9498 19.92 64.6398 19.98 64.6398 20.34C64.6398 20.7 64.9498 20.79 65.2298 20.85C66.7498 21.14 68.2599 21.45 69.7799 21.7C73.0699 22.26 76.3398 22.89 79.6698 23.14C82.3898 23.34 85.1098 23.18 87.8298 23.29C91.0398 23.41 94.2398 23.55 97.4498 23.69C97.5998 23.7 97.7598 23.76 97.9498 23.81C97.6898 24.13 97.3599 24.08 97.0599 24.14C93.5399 24.74 90.0199 25.37 86.4399 25.56C85.1499 25.63 83.8698 25.92 82.6098 26.27C81.7498 26.51 80.8698 26.71 79.9898 26.84C73.3898 27.8 67.5598 30.52 62.2998 34.54C60.5598 35.87 58.9398 37.36 57.1698 38.65C56.6998 38.99 56.3299 39.52 55.8799 39.92C55.7599 40.02 55.7099 40.19 55.7899 40.36C55.8799 40.53 56.0498 40.56 56.2098 40.55C56.4098 40.54 56.6099 40.49 56.8099 40.44C59.3799 39.81 61.9399 39.18 64.4999 38.56C69.1599 37.43 73.5398 35.58 77.7098 33.26C79.7998 32.1 81.7798 30.72 83.7398 29.35C85.3098 28.25 86.9499 27.27 88.6199 26.35C89.1199 26.07 89.6698 25.92 90.2298 25.81C97.1398 24.49 104.08 23.45 111.09 22.89C111.48 22.86 111.88 22.84 112.38 22.81C111.96 23.2 111.54 23.2 111.16 23.3C108.52 23.98 105.89 24.66 103.25 25.33C97.8599 26.7 93.1398 29.3 89.0498 33.07C84.8898 36.89 80.6898 40.67 76.5098 44.47C76.3898 44.58 76.2598 44.69 76.1698 44.82C75.9098 45.16 76.0298 45.48 76.4498 45.49C76.8098 45.49 77.1899 45.45 77.5299 45.33C82.1999 43.68 87.0398 42.48 91.6098 40.54C95.3998 38.93 98.8498 36.67 102.26 34.37C106.16 31.74 109.66 28.66 112.81 25.18C113.49 24.43 114.09 23.62 114.91 23C115.26 22.73 115.58 22.61 116.01 22.6C121.9 22.39 127.79 22.45 133.67 22.97C133.94 22.99 134.24 22.98 134.46 23.19C134.39 23.39 134.21 23.38 134.06 23.4C130.32 24.01 126.73 25.24 123.07 26.17C120.92 26.71 118.99 27.79 117.09 28.87C113.33 31 109.84 33.52 106.51 36.28C102.57 39.55 98.5499 42.72 94.5599 45.93C94.4299 46.03 94.2899 46.12 94.1799 46.24C93.9499 46.5 94.0599 46.82 94.4099 46.85C94.6399 46.87 94.8999 46.82 95.1199 46.75C100.79 44.86 106.64 43.54 112.23 41.41C118.9 38.86 125.28 35.72 130.83 31.13C132.87 29.45 134.75 27.58 136.38 25.5C136.89 24.85 137.56 24.39 138.15 23.84C138.48 23.53 138.87 23.54 139.29 23.57C142.21 23.83 145.11 24.24 148 24.68C150.16 24.99 152.32 25.38 154.55 25.76ZM81.5198 41.67C81.0798 42.32 80.4199 42.6 79.7199 42.81C80.2999 42.4 80.7498 41.79 81.4898 41.62C81.7498 41.19 82.1499 40.97 82.6199 40.84C82.3199 41.23 81.9998 41.56 81.5198 41.67ZM125.77 42.33C125.82 42.27 125.87 42.19 125.94 42.17C129.94 40.7 133.69 38.65 137.62 37.01C139.79 36.1 141.87 35.01 143.77 33.58C145.01 32.64 146.35 31.84 147.89 31.02C147.76 31.47 147.56 31.6 147.38 31.73C145.13 33.4 142.85 35.04 140.4 36.38C136.12 38.72 131.65 40.65 127 42.14C126.62 42.26 126.25 42.47 125.83 42.41C125.44 42.68 125.03 42.85 124.29 42.71C124.94 42.52 125.3 42.24 125.77 42.33ZM109.65 25.15C109.54 25.26 109.44 25.4 109.31 25.47C105.32 27.48 101.45 29.72 97.3999 31.6C93.6999 33.32 90.1399 35.23 87.0299 37.91C86.7499 38.15 86.4399 38.34 86.1299 38.54C85.8599 38.71 85.5699 38.86 85.2799 39.02C85.2699 38.8 85.3199 38.69 85.4099 38.62C88.5499 35.96 91.9398 33.67 95.5498 31.68C99.1098 29.71 102.83 28.09 106.5 26.36C107.52 25.88 108.51 25.32 109.64 25.1C109.89 24.78 110.21 24.67 110.76 24.65C110.31 24.98 110.03 25.18 109.65 25.15ZM126.62 20.28C123.97 19.86 121.33 19.38 118.74 18.69C116.7 18.14 114.64 17.66 112.63 17.03C110.23 16.28 107.86 15.43 105.49 14.57C101.14 13 96.6798 11.73 92.4198 9.90004C88.9198 8.39004 85.5999 6.52004 82.0299 4.73004C82.9499 4.79004 83.5598 5.15004 84.2098 5.35004C88.0098 6.52004 91.7299 7.94004 95.3999 9.47004C99.6299 11.24 103.9 12.9 108.22 14.45C112.42 15.95 116.71 17.21 120.96 18.56C122.84 19.16 124.73 19.71 126.62 20.28ZM114.22 1.45004C114.63 1.51004 114.88 1.53004 115.11 1.59004C120.46 2.80004 125.77 4.11004 130.91 6.12004C137.42 8.67004 143.07 12.42 147.79 17.57C147.98 17.78 148.29 17.93 148.29 18.4C147.68 17.98 147.14 17.62 146.62 17.25C137.45 10.66 127.64 5.37004 116.65 2.47004C115.87 2.26004 115.07 2.06004 114.22 1.45004ZM97.8799 44.23C108.05 35.64 119.79 29.98 132.24 25.65C120.93 32.11 109.01 37.43 97.8799 44.23ZM148.52 21.09C146.98 20.4 145.53 19.6 144.12 18.71C139.44 15.77 134.44 13.41 129.54 10.87C124.67 8.36004 119.99 5.50004 115.03 3.16004C114.71 3.01004 114.31 2.89004 114.19 2.29004C126.48 7.20004 138.04 13.19 148.52 21.09ZM117.98 5.37004C119.43 5.80004 149.52 22.26 150.38 23.12C149.6 22.81 149 22.62 148.44 22.35C143.54 20 138.64 17.65 133.75 15.26C130.14 13.5 126.54 11.71 123.25 9.36004C121.51 8.13004 119.79 6.85004 117.98 5.37004ZM83.6998 41.07C85.5598 39.11 106.37 27.1 109.19 26.35C105.52 30.36 88.3498 40.28 83.6998 41.07ZM132.75 26.43C124.08 33.46 114.3 38.36 103.64 41.58C113.34 36.53 123.04 31.48 132.75 26.43ZM85.2398 4.48004C92.5298 5.43004 99.2599 7.69004 106 9.89004C110.28 11.29 122.36 16.79 125.13 18.75C124.78 18.76 124.57 18.46 124.26 18.36C121.13 17.36 118.05 16.26 115.04 14.91C111.9 13.5 108.66 12.3 105.46 11.03C102.75 9.95004 100.04 8.85004 97.2998 7.83004C94.0598 6.62004 90.6498 5.99004 87.2998 5.14004C86.6798 4.99004 86.0298 4.88004 85.2398 4.48004ZM102.73 43.05C103.03 42.68 103.37 42.62 103.67 42.51C105.3 41.89 106.96 41.32 108.58 40.67C112.99 38.92 117.43 37.24 121.55 34.81C125.72 32.35 129.87 29.89 133.63 26.81C133.83 26.64 134.02 26.41 134.41 26.42C134.32 26.87 133.94 27.08 133.68 27.36C127.53 33.78 119.9 37.73 111.61 40.55C109.11 41.4 106.56 42.08 104.02 42.83C103.65 42.95 103.29 43.16 102.73 43.05ZM124.13 19.02C111.81 15.46 99.9898 10.75 87.9498 5.89004C93.1998 6.99004 98.0098 8.64004 102.73 10.5C107.79 12.49 112.92 14.3 117.85 16.59C119.87 17.52 122.1 17.89 124.13 19.02ZM94.9399 6.00004C95.6999 5.73004 96.2198 5.84004 96.7298 5.91004C97.8598 6.05004 98.9898 6.17004 100.11 6.36004C104.29 7.08004 108.38 8.05004 112.16 10.09C116.24 12.3 120.06 14.91 123.99 17.34C124.09 17.4 124.07 17.48 123.82 17.53C114.92 12.31 105.38 8.32004 94.9399 6.00004ZM83.1998 39.61C83.1298 39.51 83.0599 39.41 82.9999 39.31C84.1699 38.27 85.3398 37.22 86.5198 36.19C89.0898 33.94 91.6999 31.75 94.5599 29.89C98.5399 27.3 103.05 26.07 107.58 24.92C107.69 24.89 107.8 24.94 107.8 25.16C104.92 26.49 102.01 27.83 99.1098 29.18C96.2398 30.52 93.5199 32.14 90.8199 33.81C88.0899 35.5 85.7898 37.75 83.1998 39.61ZM107.88 36.03C109.02 34.87 110.33 33.94 111.63 33C114.46 30.94 117.4 29.03 120.62 27.65C124.29 26.08 128.29 25.71 132.11 24.67C123.79 27.94 115.57 31.42 107.88 36.03ZM67.5599 20.09C77.1399 19.38 99.6598 20.74 103.39 22.25C101.67 22.25 99.9399 22.22 98.2199 22.1C94.9399 21.87 91.6899 21.43 88.4099 21.2C82.3799 20.78 76.3499 20.45 70.3099 20.34C69.3799 20.32 68.4499 20.4 67.5599 20.09ZM110.52 26.47C102.76 34.41 93.3198 39.4 82.6998 42.28C87.6198 40.25 92.6299 38.39 97.1499 35.51C101.7 32.62 106.2 29.66 110.52 26.47ZM152.89 23.12C151.76 22.74 151.02 22.17 150.29 21.6C146.15 18.38 141.77 15.51 137.36 12.69C135.61 11.57 133.78 10.61 131.92 9.70004C128.76 8.16004 125.62 6.59004 122.28 4.94004C128.38 6.07004 149.11 18.37 152.89 23.12ZM149.14 27.63C148.99 27.7 148.85 27.78 148.7 27.83C143.72 29.54 138.97 31.74 134.54 34.59C132.21 36.08 129.93 37.64 127.62 39.16C125.85 40.32 124.23 41.69 122.42 42.78C121.9 43.09 121.37 43.36 120.78 43.5C120.89 43.28 121.03 43.14 121.19 43.02C125.13 39.93 129.25 37.11 133.54 34.52C136.18 32.92 138.81 31.29 141.61 29.97C143.99 28.84 146.48 28.01 149.14 27.63ZM126.12 40.81C133.32 35.62 140.89 31.1 149.42 28.38C146.49 29.67 143.64 31.13 140.88 32.77C137.21 34.95 133.34 36.76 129.74 39.08C128.63 39.81 127.43 40.39 126.12 40.81ZM73.1698 20.94C83.2598 21.14 93.2798 22.26 103.51 22.92C102.66 23.14 101.98 23.14 101.3 23.11C99.5598 23.03 97.8099 22.97 96.0699 22.84C92.2599 22.55 88.4698 22.12 84.6398 22.12C82.2398 22.12 79.8399 22.06 77.4699 21.72C76.0299 21.51 74.5598 21.42 73.1698 20.94ZM60.3598 37.06C61.9498 34.21 73.8398 28.27 78.2098 28.16C72.0298 30.62 66.1398 33.66 60.3598 37.06ZM80.3699 29.38C76.5799 32.25 65.5298 37.16 63.1698 37.06C69.0598 34.66 74.4599 31.46 80.3699 29.38ZM148.18 29.82C143.12 33.78 137.4 36.55 131.57 39.13C131.39 39.21 131.2 39.28 131.01 39.34C130.99 39.35 130.94 39.32 130.92 39.29C130.81 39.17 131.03 39.2 130.62 39.19C136.6 36 142.39 32.91 148.18 29.82ZM100.75 20.35C94.6699 19.13 88.5199 18.57 82.3399 18.16C88.6899 17.13 94.7499 18.52 100.75 20.35ZM98.3999 20.67C91.7999 20 85.1598 19.87 78.5798 18.93C85.2598 18.72 91.8599 19.41 98.3999 20.67ZM61.7499 37.04C65.5499 34.15 78.6599 28.15 81.4699 27.98C74.6099 30.37 68.3599 34.08 61.7499 37.04ZM74.9898 33.38C77.8598 31.72 80.7399 30.06 83.8199 28.28C82.6799 29.48 76.6198 33.05 74.9898 33.38ZM128.94 40.29C129.21 39.99 129.48 39.89 129.96 39.85C129.58 40.15 129.35 40.34 128.94 40.29ZM83.5798 40.12C83.9398 39.76 84.0699 39.52 84.3999 39.55C84.2599 39.82 84.0598 39.97 83.5798 40.12ZM57.7499 39.17C57.7099 39.12 57.6399 39.05 57.6499 39.03C57.7599 38.86 57.9099 38.74 58.1199 38.79C58.1699 38.8 58.2498 38.9 58.2298 38.93C58.1398 39.12 57.9499 39.17 57.7499 39.17Z" fill="url(#paint6_linear_30_600)"/>
<path d="M184.46 93.89C184.75 96.8 185 99.72 185.11 102.65C185.13 103.07 185.11 103.47 184.78 103.77C184.19 104.33 183.7 104.98 183.03 105.45C180.86 106.98 178.91 108.75 177.12 110.7C172.25 116.01 168.79 122.21 165.89 128.75C163.47 134.22 161.85 139.99 159.67 145.56C159.58 145.78 159.53 146.03 159.53 146.27C159.54 146.62 159.85 146.75 160.12 146.53C160.24 146.43 160.34 146.29 160.45 146.17C163.87 142.36 167.24 138.5 170.71 134.74C173.64 131.56 176.33 128.2 178.66 124.56C179.84 122.71 181.02 120.84 181.67 118.72C182.78 115.11 184.2 111.59 185 107.89C185.03 107.74 185.03 107.56 185.23 107.5C185.43 107.74 185.4 108.03 185.41 108.31C185.62 114.21 185.38 120.09 184.87 125.96C184.83 126.39 184.7 126.7 184.41 127.03C183.74 127.82 182.91 128.38 182.12 129.02C178.48 131.98 175.23 135.32 172.4 139.08C169.93 142.37 167.49 145.69 165.69 149.39C163.52 153.85 162.07 158.62 160.18 163.2C160.04 163.53 159.98 163.91 159.96 164.27C159.94 164.69 160.26 164.83 160.61 164.59C160.74 164.5 160.86 164.38 160.97 164.27C164.98 160.29 168.97 156.29 173 152.34C176.97 148.44 179.82 143.87 181.46 138.56C182.27 135.96 183.08 133.36 183.9 130.77C184.02 130.39 184.03 129.97 184.45 129.57C184.39 130.07 184.35 130.47 184.3 130.86C183.38 137.83 181.98 144.72 180.3 151.55C180.16 152.11 179.98 152.65 179.68 153.13C178.67 154.75 177.61 156.33 176.43 157.85C174.96 159.74 173.48 161.65 172.21 163.67C169.68 167.71 167.6 171.99 166.24 176.58C165.49 179.11 164.72 181.64 163.96 184.17C163.9 184.36 163.85 184.56 163.82 184.76C163.8 184.92 163.82 185.09 163.99 185.19C164.15 185.28 164.32 185.24 164.43 185.13C164.86 184.7 165.4 184.36 165.77 183.91C167.16 182.21 168.72 180.67 170.14 179C174.44 173.95 177.45 168.27 178.75 161.73C178.92 160.86 179.17 159.99 179.45 159.15C179.86 157.91 180.22 156.65 180.36 155.36C180.74 151.8 181.55 148.32 182.33 144.83C182.4 144.53 182.37 144.2 182.7 143.96C182.74 144.15 182.79 144.31 182.79 144.46C182.76 147.67 182.73 150.88 182.69 154.09C182.65 156.81 182.35 159.52 182.42 162.25C182.49 165.59 182.96 168.89 183.35 172.2C183.53 173.73 183.75 175.26 183.97 176.79C184.01 177.07 184.09 177.38 184.45 177.4C184.82 177.42 184.88 177.12 184.97 176.84C185.85 174.09 186.69 171.34 187.1 168.47C187.45 166.06 187.77 163.64 188.26 161.25C189.4 155.67 189.43 150.13 188.13 144.57C187.18 140.53 186.43 136.45 185.05 132.53C184.79 131.8 184.84 131.09 184.94 130.37C185.67 125.3 186.09 120.2 186.32 115.09C186.35 114.42 186.26 113.74 186.47 113.03C186.71 113.42 186.72 113.79 186.77 114.15C187.21 116.96 187.64 119.77 188.08 122.58C188.59 125.79 189.08 129.01 189.89 132.16C190.65 135.11 191.37 138.08 192.12 141.03C192.84 143.83 193.59 146.61 194.5 149.35C195.54 152.49 196.99 155.44 198.43 158.4C199.48 160.56 200.49 162.73 201.52 164.89C201.68 165.23 201.85 165.63 202.3 165.46C202.68 165.32 202.54 164.9 202.51 164.59C202.32 162.32 202.14 160.06 201.93 157.79C201.61 154.39 201.29 151 201.15 147.59C201.03 144.54 200.74 141.51 200.24 138.5C199.61 134.79 198.41 131.25 196.67 127.91C193.44 121.72 190.18 115.54 186.85 109.4C186.42 108.6 186.26 107.86 186.23 107.02C186.09 103.12 185.82 99.23 185.46 95.34C185.28 93.37 184.85 91.42 184.92 89.13C185.37 91.15 185.76 92.89 186.41 94.55C188.43 99.65 190.4 104.76 192.46 109.85C194 113.65 195.53 117.47 197.8 120.92C200.34 124.79 202.97 128.61 205.76 132.3C206 132.61 206.19 133.12 206.68 132.93C207.26 132.71 206.99 132.16 206.91 131.76C205.89 126.49 205.26 121.15 203.82 115.97C203 113.03 202.1 110.13 200.97 107.3C198.87 102.06 195.65 97.55 191.8 93.47C189.62 91.17 187.45 88.86 185.36 86.47C184.49 85.49 183.97 84.39 183.75 83.12C183.15 79.62 182.18 76.23 180.94 72.91C180.53 71.81 180.13 70.69 179.52 69.68C179.32 69.35 179.13 68.91 178.46 68.97C178.99 69.77 179.38 70.47 179.68 71.22C181.1 74.74 182.02 78.4 182.83 82.09C183.31 84.28 182.79 86.17 181.4 87.89C179.82 89.86 178.17 91.76 176.53 93.67C174.81 95.68 173.18 97.78 171.78 100.02C169.02 104.44 166.67 109.09 164.73 113.93C163.8 116.27 162.95 118.65 162.52 121.14C162.45 121.54 162.19 122.11 162.74 122.34C163.3 122.58 163.48 121.99 163.75 121.67C168.97 115.62 173.5 109.07 178.07 102.54C181.02 98.32 182.71 93.62 183.32 88.52C183.37 88.12 183.32 87.71 183.65 87.29C183.96 89.54 184.24 91.71 184.46 93.89ZM164.91 158.35C164.76 158.81 164.52 159.19 164.07 159.44C163.87 160.17 163.23 160.59 162.79 161.15C163.03 160.46 163.35 159.81 164.02 159.41C164.16 158.92 164.51 158.61 164.91 158.35ZM165.19 116.63C165.09 115.88 165.28 115.48 165.57 115.11C165.54 114.68 165.76 114.33 165.91 113.95C167.64 109.38 169.8 105.02 172.35 100.86C173.82 98.47 175.58 96.29 177.36 94.13C177.5 93.95 177.65 93.76 178.1 93.66C177.2 95.16 176.33 96.46 175.33 97.65C173.8 99.47 172.6 101.49 171.58 103.61C169.74 107.45 167.5 111.09 165.82 115.01C165.79 115.08 165.71 115.12 165.65 115.17C165.72 115.64 165.43 115.99 165.19 116.63ZM182.53 131.09C182.49 131.64 182.36 131.96 182.02 132.19C181.75 133.3 181.13 134.27 180.6 135.26C178.68 138.83 176.86 142.47 174.72 145.92C172.55 149.41 170.09 152.68 167.27 155.68C167.2 155.76 167.08 155.8 166.86 155.78C167.03 155.51 167.2 155.22 167.38 154.96C167.59 154.66 167.8 154.36 168.05 154.1C170.88 151.13 172.98 147.67 174.89 144.07C176.98 140.12 179.42 136.37 181.63 132.49C181.7 132.36 181.85 132.27 181.97 132.16C181.97 131.78 182.19 131.51 182.53 131.09ZM189.15 121.21C190.28 125.53 191.31 129.87 192.6 134.15C193.92 138.54 195.36 142.89 196.9 147.21C198.24 150.95 199.46 154.74 200.43 158.6C200.6 159.27 200.93 159.89 200.94 160.81C199.34 157.15 197.64 153.74 196.32 150.16C194.71 145.81 193.67 141.29 192.33 136.86C191.6 134.45 190.87 132.04 190.25 129.6C189.73 127.56 189.35 125.47 188.91 123.41C188.35 120.79 188.01 118.13 187.73 115.46C188.2 117.38 188.65 119.3 189.15 121.21ZM205 126.35C202.67 115.22 197.89 105.15 191.79 95.65C191.44 95.11 191.12 94.56 190.73 93.92C191.2 93.94 191.34 94.26 191.53 94.46C196.43 99.44 199.88 105.27 202.09 111.91C203.84 117.14 204.86 122.51 205.8 127.92C205.84 128.16 205.85 128.4 205.89 128.82C205.33 127.94 205.17 127.13 205 126.35ZM182.66 109.58C177.69 121.79 171.42 133.22 162.32 142.93C169.68 132.17 175.61 120.53 182.66 109.58ZM205.04 128.81C204.44 128.66 204.35 128.25 204.21 127.92C202.12 122.85 199.52 118.02 197.26 113.03C194.99 108 192.89 102.89 190.19 98.06C189.38 96.61 188.66 95.12 188.04 93.55C195.4 104.43 200.78 116.28 205.04 128.81ZM198.44 119.39C196.27 115.99 194.67 112.3 193.1 108.6C190.97 103.6 188.88 98.58 186.78 93.56C186.54 92.99 186.38 92.38 186.11 91.58C186.92 92.48 201.8 123.38 202.16 124.86C200.78 122.98 199.59 121.2 198.44 119.39ZM180.75 132.55C179.86 135.33 166.78 155.49 164.73 157.24C165.77 152.65 176.56 136.01 180.75 132.55ZM165.26 137.31C169.03 126.84 174.43 117.33 181.9 109.03C176.35 118.45 170.81 127.88 165.26 137.31ZM200.8 155.51C200.13 152.12 199.67 148.69 198.63 145.38C197.75 142.6 196.8 139.83 195.86 137.07C194.75 133.81 193.73 130.51 192.48 127.3C191.29 124.23 190.35 121.09 189.51 117.92C189.43 117.6 189.14 117.38 189.17 117.03C190.99 119.9 195.85 132.24 197.03 136.59C198.88 143.44 200.79 150.27 201.36 157.6C201 156.8 200.93 156.15 200.8 155.51ZM164.03 136.86C164.91 134.37 165.72 131.85 166.7 129.4C169.95 121.27 174.29 113.85 181.02 108.05C181.31 107.8 181.53 107.43 181.99 107.36C181.98 107.75 181.74 107.92 181.56 108.12C178.3 111.72 175.62 115.73 172.95 119.77C170.31 123.77 168.4 128.11 166.42 132.42C165.69 134.01 165.03 135.63 164.33 137.23C164.2 137.52 164.13 137.85 163.74 138.14C163.67 137.58 163.9 137.23 164.03 136.86ZM190.96 124.4C192.99 129.45 194.53 134.67 196.26 139.82C197.87 144.64 199.27 149.52 200.1 154.82C195.86 142.54 191.78 130.5 188.86 118.01C189.88 120.1 190.13 122.35 190.96 124.4ZM190.32 118.4C190.39 118.15 190.47 118.14 190.52 118.24C192.74 122.3 195.15 126.25 197.14 130.43C198.99 134.31 199.74 138.45 200.24 142.66C200.37 143.79 200.43 144.93 200.52 146.06C200.56 146.58 200.64 147.1 200.33 147.84C198.57 137.29 195.07 127.55 190.32 118.4ZM172.36 150.51C174.17 147.91 175.93 145.28 177.41 142.47C178.91 139.64 180.4 136.8 181.88 134C182.1 134.01 182.14 134.12 182.11 134.23C180.72 138.7 179.26 143.13 176.47 146.97C174.46 149.74 172.14 152.23 169.76 154.68C168.67 155.8 167.56 156.92 166.46 158.04C166.36 157.97 166.27 157.89 166.17 157.82C168.17 155.33 170.53 153.15 172.36 150.51ZM183.63 109.75C182.39 113.52 181.82 117.49 180.06 121.07C178.52 124.22 176.45 127.05 174.25 129.77C173.24 131.02 172.24 132.28 171.02 133.36C176.03 125.92 179.93 117.89 183.63 109.75ZM184.75 171.7C184.95 165.66 184.94 159.62 184.83 153.58C184.77 150.29 184.49 147.02 184.44 143.74C184.41 142.02 184.48 140.29 184.56 138.57C185.88 142.37 186.07 164.94 184.86 174.46C184.59 173.55 184.72 172.62 184.75 171.7ZM170.98 144.1C167.87 148.47 165.75 153.37 163.47 158.18C166.9 147.72 172.37 138.55 180.7 131.21C177.3 135.37 174.11 139.71 170.98 144.1ZM202.82 120.59C201.34 117.17 199.94 113.95 198.57 110.71C197.76 108.8 196.9 106.92 195.87 105.12C193.27 100.57 190.64 96.05 187.64 91.75C187.11 90.99 186.58 90.22 186.26 89.08C190.8 93.1 202.01 114.44 202.82 120.59ZM178.83 100C177.37 102.73 175.6 105.27 173.87 107.82C171.06 111.96 168.03 115.93 164.74 119.71C164.61 119.86 164.47 120 164.24 120.1C164.41 119.52 164.71 119 165.05 118.5C166.23 116.74 167.68 115.2 168.93 113.49C170.57 111.26 172.24 109.06 173.85 106.82C176.93 102.54 179.37 97.91 181.34 93.03C181.4 92.88 181.49 92.74 181.56 92.6C181.04 95.23 180.07 97.67 178.83 100ZM169.11 111.36C171.61 107.89 173.62 104.12 175.99 100.57C177.77 97.9 179.37 95.13 180.82 92.27C177.67 100.64 172.76 107.97 167.2 114.9C167.68 113.62 168.32 112.44 169.11 111.36ZM183.75 164.48C183.54 162.09 183.6 159.69 183.72 157.3C183.92 153.48 183.68 149.67 183.59 145.85C183.55 144.11 183.57 142.36 183.59 140.61C183.6 139.93 183.63 139.24 183.89 138.41C184.02 148.66 184.63 158.73 184.3 168.81C183.89 167.39 183.87 165.92 183.75 164.48ZM177.35 163.4C177.02 167.75 170.47 179.33 167.54 180.76C171.23 175.17 174.57 169.45 177.35 163.4ZM167.68 177.96C167.69 175.6 173.17 164.82 176.24 161.18C173.86 166.98 170.39 172.2 167.68 177.96ZM169.05 110.49C169.07 110.08 169.09 110.3 168.97 110.19C168.95 110.17 168.92 110.12 168.93 110.1C169 109.91 169.08 109.73 169.17 109.55C172.04 103.86 175.11 98.29 179.32 93.44C175.93 99.06 172.54 104.68 169.05 110.49ZM187.55 159.79C187.47 153.6 187.23 147.43 186.32 141.29C187.83 147.38 188.91 153.5 187.55 159.79ZM186.58 163.51C185.98 156.9 186.19 150.25 185.87 143.63C186.8 150.23 187.14 156.85 186.58 163.51ZM177.7 160.16C177.38 162.96 170.71 175.74 167.63 179.38C170.93 172.93 174.95 166.88 177.7 160.16ZM177.52 157.79C175.58 160.78 173.77 163.57 171.97 166.35C172.38 164.73 176.26 158.87 177.52 157.79ZM168.36 111.12C168.3 111.6 168.18 111.85 167.87 112.11C167.83 111.69 168.03 111.48 168.36 111.12ZM166.29 156.63C166.3 156.96 166.06 157.08 165.68 157.42C165.86 156.95 166.01 156.75 166.29 156.63ZM165.56 182.79C165.58 182.78 165.68 182.86 165.69 182.91C165.73 183.13 165.6 183.27 165.43 183.37C165.41 183.38 165.34 183.3 165.29 183.26C165.3 183.06 165.36 182.88 165.56 182.79Z" fill="url(#paint7_linear_30_600)"/>
<path d="M124.26 92.84C123.29 94.27 122.29 95.6901 121.23 97.0601C121.08 97.2601 120.92 97.4301 120.66 97.4501C120.18 97.4801 119.71 97.5901 119.23 97.5501C117.67 97.4201 116.1 97.4801 114.55 97.6901C110.32 98.2501 106.4 99.75 102.6 101.62C99.4199 103.18 96.4999 105.19 93.3899 106.89C93.2699 106.96 93.1499 107.05 93.0599 107.16C92.9299 107.32 93.0199 107.5 93.2299 107.5C93.3199 107.5 93.4199 107.47 93.5099 107.46C96.5099 107.03 99.4999 106.56 102.51 106.17C105.05 105.84 107.54 105.34 109.98 104.57C111.22 104.18 112.46 103.78 113.56 103.06C115.44 101.84 117.41 100.79 119.19 99.4101C119.26 99.3601 119.33 99.2701 119.44 99.3201C119.44 99.5001 119.32 99.6301 119.22 99.7501C117.08 102.51 114.73 105.08 112.27 107.56C112.09 107.74 111.91 107.83 111.65 107.87C111.05 107.97 110.46 107.91 109.86 107.9C107.08 107.86 104.34 108.14 101.63 108.77C99.2599 109.32 96.8899 109.91 94.6699 110.9C91.9899 112.1 89.5199 113.71 86.9199 115.07C86.7299 115.17 86.5599 115.31 86.4199 115.47C86.2499 115.65 86.3399 115.83 86.5999 115.86C86.6899 115.87 86.7899 115.86 86.8899 115.85C90.2199 115.57 93.5499 115.27 96.8799 115C100.16 114.74 103.19 113.75 105.96 111.96C107.31 111.09 108.67 110.22 110.03 109.35C110.23 109.22 110.39 109.04 110.73 109.02C110.51 109.23 110.34 109.39 110.17 109.55C107.1 112.37 103.85 114.96 100.5 117.42C100.23 117.62 99.9399 117.8 99.6199 117.9C98.5499 118.25 97.4599 118.57 96.3499 118.81C94.9599 119.11 93.5699 119.41 92.2199 119.85C89.5399 120.73 86.9699 121.88 84.5999 123.44C83.2999 124.3 81.9899 125.16 80.6799 126.02C80.5799 126.09 80.4799 126.15 80.3899 126.24C80.3199 126.3 80.2699 126.39 80.2999 126.5C80.3399 126.6 80.4299 126.65 80.5299 126.64C80.8899 126.61 81.2599 126.66 81.5999 126.59C82.8799 126.34 84.1699 126.24 85.4499 126.02C89.3199 125.36 92.8399 123.93 95.9199 121.45C96.3299 121.12 96.7699 120.82 97.2199 120.54C97.8799 120.13 98.5199 119.7 99.0699 119.17C100.59 117.69 102.28 116.42 103.96 115.14C104.1 115.03 104.22 114.87 104.46 114.88C104.4 114.98 104.37 115.07 104.31 115.14C103.08 116.59 101.85 118.03 100.61 119.47C99.5599 120.69 98.3999 121.81 97.3899 123.07C96.1499 124.62 95.1099 126.29 94.0299 127.94C93.5299 128.7 93.0499 129.48 92.5699 130.26C92.4799 130.4 92.3999 130.57 92.5499 130.72C92.7099 130.87 92.8599 130.76 92.9999 130.66C94.4399 129.75 95.8699 128.82 97.1499 127.67C98.2199 126.71 99.2899 125.73 100.42 124.83C103.06 122.73 105.17 120.23 106.7 117.21C107.8 115.02 109.01 112.88 109.88 110.58C110.04 110.15 110.33 109.85 110.65 109.56C112.91 107.54 115.03 105.38 117.08 103.15C117.35 102.86 117.57 102.52 117.93 102.27C117.89 102.53 117.75 102.71 117.64 102.89C116.77 104.33 115.9 105.77 115.03 107.22C114.04 108.87 113.04 110.52 112.21 112.26C111.43 113.89 110.63 115.51 109.86 117.13C109.12 118.67 108.41 120.22 107.78 121.81C107.06 123.63 106.6 125.52 106.13 127.41C105.79 128.79 105.42 130.16 105.07 131.53C105.01 131.74 104.94 131.99 105.21 132.09C105.44 132.17 105.53 131.92 105.64 131.77C106.42 130.67 107.19 129.57 107.96 128.46C109.11 126.8 110.25 125.13 111.48 123.53C112.58 122.1 113.61 120.61 114.52 119.06C115.64 117.14 116.44 115.07 116.92 112.9C117.8 108.86 118.67 104.82 119.49 100.77C119.6 100.25 119.81 99.8501 120.11 99.4501C121.53 97.6301 122.88 95.7601 124.19 93.8601C124.86 92.9001 125.4 91.85 126.3 90.84C125.73 91.93 125.25 92.86 124.92 93.87C123.9 96.95 122.85 100.02 121.85 103.11C121.1 105.42 120.35 107.73 120.07 110.16C119.75 112.88 119.5 115.61 119.36 118.35C119.35 118.58 119.25 118.89 119.54 118.99C119.89 119.11 119.97 118.76 120.09 118.54C121.62 115.76 123.37 113.1 124.68 110.2C125.42 108.56 126.12 106.9 126.68 105.18C127.71 102 127.97 98.7301 127.77 95.4201C127.66 93.5501 127.55 91.6701 127.5 89.8001C127.48 89.0201 127.66 88.3301 128.04 87.6701C129.09 85.8501 129.94 83.9501 130.64 81.9701C130.87 81.3101 131.11 80.6601 131.22 79.9601C131.25 79.7401 131.33 79.4601 131.01 79.2401C130.95 79.8101 130.86 80.2701 130.71 80.7301C130.02 82.8701 129.05 84.8801 128.01 86.8601C127.4 88.0401 126.44 88.7001 125.16 88.9501C123.7 89.2401 122.22 89.4801 120.75 89.7201C119.2 89.9801 117.67 90.3101 116.19 90.8001C113.26 91.7601 110.43 92.9701 107.71 94.4401C106.4 95.1501 105.11 95.9001 103.97 96.8801C103.79 97.0301 103.45 97.19 103.62 97.51C103.78 97.83 104.09 97.63 104.33 97.59C108.99 96.83 113.54 95.58 118.09 94.34C121.03 93.54 123.58 92.0501 125.79 89.9701C125.96 89.8101 126.1 89.6001 126.41 89.5401C125.68 90.6801 124.99 91.77 124.26 92.84ZM90.9099 114.68C90.6699 114.83 90.4099 114.91 90.1199 114.85C89.7499 115.1 89.2999 115.05 88.8899 115.14C89.2599 114.92 89.6499 114.74 90.1099 114.82C90.3499 114.65 90.6199 114.65 90.9099 114.68ZM106.87 95.8501C107.11 95.4701 107.35 95.3601 107.62 95.3101C107.77 95.1001 108 95.0301 108.21 94.9101C110.73 93.4901 113.36 92.3301 116.1 91.4201C117.67 90.8901 119.3 90.5701 120.93 90.2701C121.06 90.2501 121.2 90.21 121.45 90.34C120.47 90.68 119.59 90.9401 118.68 91.1001C117.3 91.3501 115.98 91.8101 114.72 92.3801C112.43 93.4201 110.03 94.23 107.78 95.37C107.74 95.39 107.69 95.3701 107.64 95.3801C107.49 95.6001 107.23 95.6501 106.87 95.8501ZM109.26 109C109.03 109.23 108.85 109.33 108.61 109.31C108.06 109.71 107.42 109.92 106.8 110.16C104.57 111.05 102.37 112.01 100.08 112.76C97.7699 113.52 95.4099 114.07 92.9899 114.36C92.9299 114.37 92.8599 114.34 92.7699 114.25C92.9499 114.19 93.1299 114.12 93.3199 114.08C93.5299 114.03 93.7399 113.97 93.9499 113.94C96.3599 113.67 98.6299 112.89 100.86 111.98C103.31 110.98 105.84 110.2 108.32 109.29C108.4 109.26 108.5 109.28 108.6 109.27C108.74 109.1 108.94 109.06 109.26 109ZM116.01 107.02C114.88 109.41 113.7 111.77 112.66 114.2C111.59 116.69 110.59 119.22 109.65 121.76C108.84 123.97 107.95 126.15 106.93 128.27C106.75 128.64 106.66 129.05 106.32 129.47C106.98 127.2 107.51 125.01 108.26 122.88C109.18 120.29 110.42 117.85 111.5 115.33C112.08 113.96 112.67 112.59 113.31 111.24C113.85 110.11 114.47 109.02 115.05 107.92C115.79 106.52 116.64 105.18 117.53 103.86C117.03 104.92 116.51 105.97 116.01 107.02ZM121.26 115.38C124.43 109.44 126.08 103.06 126.92 96.43C126.97 96.05 127.03 95.6801 127.09 95.2401C127.29 95.4301 127.23 95.63 127.25 95.79C127.58 99.91 126.93 103.87 125.42 107.72C124.23 110.76 122.65 113.59 121.02 116.39C120.95 116.51 120.86 116.63 120.72 116.83C120.8 116.22 121.03 115.8 121.26 115.38ZM117.48 99.2801C110.59 102.93 103.41 105.74 95.5799 106.69C103.02 104.6 110.13 101.58 117.48 99.2801ZM120.34 116.51C120.13 116.22 120.24 115.99 120.3 115.79C121.28 112.7 121.93 109.52 122.8 106.39C123.68 103.24 124.67 100.13 125.28 96.9101C125.46 95.9401 125.7 94.9901 126.02 94.0501C125.22 101.78 123.16 109.2 120.34 116.51ZM120.92 109.73C121.23 107.36 121.9 105.08 122.59 102.8C123.52 99.7201 124.48 96.6501 125.43 93.5801C125.54 93.2301 125.7 92.8901 125.88 92.4301C125.91 93.1501 120.93 112.83 120.53 113.63C120.62 112.24 120.76 110.98 120.92 109.73ZM107.89 108.98C106.43 109.9 92.8399 114.09 91.2399 114.1C93.4599 112.42 104.68 108.96 107.89 108.98ZM99.0599 105.26C104.75 101.94 110.81 99.6701 117.35 98.7401C111.25 100.91 105.15 103.09 99.0599 105.26ZM108.28 127.02C109.26 125.23 110.36 123.5 111.14 121.6C111.8 120 112.41 118.39 113.04 116.77C113.78 114.87 114.56 112.98 115.22 111.05C115.84 109.2 116.61 107.42 117.44 105.66C117.52 105.48 117.48 105.27 117.62 105.12C117.36 107.11 114.88 114.56 113.76 116.98C112 120.79 110.27 124.62 107.75 128.16C107.88 127.68 108.09 127.35 108.28 127.02ZM98.6699 104.59C100.01 103.79 101.34 102.96 102.71 102.22C107.27 99.7601 112.06 98.0501 117.32 97.9701C117.54 97.9701 117.79 97.8901 118.02 98.0301C117.87 98.2001 117.69 98.1901 117.54 98.2101C114.69 98.6001 111.95 99.41 109.21 100.23C106.49 101.04 103.98 102.29 101.44 103.49C100.51 103.93 99.5899 104.42 98.6699 104.88C98.4999 104.96 98.3399 105.08 98.0599 105.07C98.2299 104.78 98.4699 104.71 98.6699 104.59ZM115.62 109.16C114.62 112.22 113.34 115.18 112.17 118.17C111.07 120.97 109.85 123.71 108.21 126.44C110.95 119.26 113.67 112.24 117.09 105.46C116.77 106.8 116.03 107.91 115.62 109.16ZM117.61 106.19C117.74 106.1 117.78 106.13 117.76 106.19C117.23 108.88 116.82 111.58 116.14 114.24C115.5 116.7 114.28 118.87 112.91 120.97C112.54 121.53 112.14 122.07 111.75 122.62C111.57 122.87 111.41 123.14 110.99 123.36C114.18 117.9 116.29 112.15 117.61 106.19ZM97.2599 113.95C99.0699 113.45 100.87 112.93 102.61 112.22C104.37 111.51 106.12 110.78 107.86 110.07C107.96 110.16 107.93 110.23 107.88 110.26C105.56 111.76 103.21 113.22 100.48 113.9C98.5199 114.39 96.5099 114.64 94.5099 114.85C93.5899 114.95 92.6599 115.03 91.7399 115.12C91.7199 115.05 91.7099 114.98 91.6899 114.91C93.5299 114.54 95.4299 114.45 97.2599 113.95ZM117.86 99.7201C115.87 100.96 114.1 102.55 111.94 103.51C110.04 104.35 108.03 104.85 106 105.25C105.07 105.43 104.14 105.63 103.17 105.66C108.27 104.18 113.09 102.01 117.86 99.7201ZM94.8399 128.27C97.2299 125.61 99.5099 122.86 101.76 120.07C102.98 118.56 104.1 116.96 105.32 115.45C105.96 114.66 106.65 113.9 107.34 113.15C106.5 115.37 98.0099 125.69 93.8499 129.56C94.0699 129.05 94.4799 128.68 94.8399 128.27ZM99.0699 110.52C95.9999 111.32 93.1799 112.74 90.3099 114.06C95.8399 110.62 101.8 108.53 108.37 108.36C105.26 108.95 102.16 109.71 99.0699 110.52ZM122.45 111.93C123.08 109.82 123.67 107.82 124.27 105.83C124.62 104.66 124.95 103.48 125.17 102.27C125.72 99.2201 126.24 96.1701 126.51 93.0701C126.56 92.5301 126.61 91.9701 126.9 91.3301C127.43 94.8901 124.42 108.83 122.45 111.93ZM119.38 93.48C117.68 94.16 115.91 94.64 114.16 95.15C111.31 95.96 108.43 96.6101 105.5 97.0801C105.38 97.1001 105.27 97.1101 105.13 97.0701C105.43 96.8701 105.76 96.75 106.1 96.65C107.3 96.3 108.55 96.1501 109.76 95.8501C111.35 95.4601 112.94 95.1001 114.53 94.6901C117.55 93.9101 120.42 92.7401 123.17 91.2701C123.25 91.2301 123.34 91.2001 123.43 91.1601C122.2 92.1501 120.83 92.89 119.38 93.48ZM110.66 94.9401C113.11 94.3201 115.46 93.3701 117.88 92.6501C119.7 92.1101 121.48 91.4701 123.22 90.7201C118.61 93.3201 113.6 94.7901 108.45 95.8201C109.15 95.4201 109.89 95.1401 110.66 94.9401ZM97.1299 124.61C97.9399 123.44 98.8799 122.38 99.8499 121.34C101.39 119.68 102.73 117.86 104.14 116.09C104.78 115.28 105.46 114.5 106.13 113.71C106.39 113.4 106.67 113.1 107.1 112.83C103.27 117.53 99.7199 122.33 95.7399 126.79C96.0899 125.99 96.6399 125.32 97.1299 124.61ZM94.6299 121.69C92.8299 123.54 85.4599 126.3 83.5799 125.84C87.3899 124.71 91.0799 123.38 94.6299 121.69ZM84.7199 124.63C85.6199 123.56 92.1999 120.75 94.9799 120.26C91.6899 121.99 88.1299 123.04 84.7199 124.63ZM110.96 94.5301C111.12 94.3501 111.05 94.4601 111.04 94.3601C111.04 94.3401 111.04 94.3101 111.06 94.3001C111.16 94.2401 111.27 94.1901 111.38 94.1401C114.84 92.6501 118.35 91.2801 122.11 90.6801C118.42 91.9501 114.75 93.2201 110.96 94.5301ZM100.63 123.93C102.94 121.09 105.18 118.2 107.1 115.07C105.48 118.4 103.64 121.59 100.63 123.93ZM98.7899 125.25C101.03 122.02 103.65 119.08 106.01 115.96C103.93 119.3 101.57 122.44 98.7899 125.25ZM96.0299 120.35C94.8199 121.5 86.9399 124.77 84.1599 125.25C88.0999 123.58 92.2299 122.36 96.0299 120.35ZM96.8499 119.21C94.8299 119.83 92.9599 120.41 91.0799 120.99C91.8699 120.41 95.8599 119.22 96.8499 119.21ZM110.41 94.5501C110.2 94.7401 110.05 94.8201 109.81 94.8101C109.95 94.6101 110.12 94.5901 110.41 94.5501ZM92.1899 114.42C92.0699 114.58 91.9099 114.54 91.6099 114.55C91.8699 114.4 92.0099 114.37 92.1899 114.42ZM81.9199 126.02C81.9299 126.02 81.9499 126.1 81.9299 126.12C81.8699 126.24 81.7499 126.25 81.6399 126.23C81.6299 126.23 81.6299 126.16 81.6199 126.13C81.6999 126.04 81.7999 125.98 81.9199 126.02Z" fill="url(#paint8_linear_30_600)"/>
<path d="M134.77 47.64C134.7 47.94 134.49 48.07 134.32 48.24C132.19 50.37 130.64 52.85 129.77 55.73C128.42 60.19 127.04 64.65 126.15 69.24C126.1 69.48 125.9 69.78 126.21 69.95C126.52 70.12 126.69 69.79 126.84 69.62C127.83 68.52 128.62 67.27 129.36 65.99C130.89 63.35 132.18 60.58 133.21 57.71C133.73 56.26 134.11 54.75 134.41 53.23C134.69 51.78 134.97 50.33 135.3 48.9C135.59 47.64 136.27 46.71 137.45 46.14C139.44 45.18 141.46 44.27 143.59 43.66C144.05 43.53 144.51 43.45 145.07 43.41C144.85 43.08 144.58 43.16 144.36 43.18C143.67 43.26 143.02 43.48 142.36 43.69C140.38 44.32 138.47 45.11 136.65 46.09C135.99 46.45 135.29 46.6 134.53 46.56C132.68 46.46 130.83 46.3 128.98 46.13C125.71 45.83 122.47 45.99 119.3 46.92C117.59 47.42 115.92 48.06 114.28 48.75C111.37 49.96 108.69 51.61 105.89 53.04C105.68 53.15 105.33 53.22 105.43 53.57C105.52 53.86 105.82 53.77 106.05 53.76C108.76 53.71 111.47 53.54 114.17 53.3C116.58 53.09 118.89 52.42 121.2 51.75C124.28 50.85 127.35 49.91 130.43 48.99C131.43 48.69 132.37 48.24 133.47 47.71C132.45 48.57 131.39 49.08 130.42 49.71C128.5 50.95 126.61 52.24 124.77 53.58C124.37 53.87 123.97 54.06 123.45 54.15C119.42 54.84 115.4 55.58 111.38 56.33C109.22 56.74 107.15 57.47 105.22 58.52C103.65 59.37 102.16 60.34 100.71 61.39C99.0897 62.56 97.4097 63.64 95.7397 64.73C94.6197 65.45 93.5097 66.19 92.3997 66.92C92.2497 67.02 91.9997 67.11 92.0697 67.33C92.1497 67.6 92.3997 67.53 92.6197 67.48C93.9897 67.17 95.3597 66.85 96.7297 66.55C98.6097 66.14 100.49 65.74 102.32 65.08C103.91 64.51 105.47 63.85 107.01 63.17C108.64 62.45 110.27 61.71 111.9 60.99C113.65 60.22 115.3 59.28 116.97 58.36C118.42 57.55 119.87 56.72 121.33 55.91C121.51 55.81 121.69 55.68 121.95 55.65C121.7 56 121.35 56.21 121.06 56.47C118.79 58.43 116.6 60.47 114.53 62.64C114.23 62.95 113.93 63.23 113.5 63.37C111.2 64.16 109.04 65.29 106.85 66.31C103.82 67.72 101.28 69.74 99.1297 72.29C98.2097 73.38 97.2097 74.4 96.2297 75.43C95.0597 76.66 94.0997 78.04 93.1497 79.44C93.0497 79.58 92.9397 79.72 93.0797 79.88C93.2197 80.04 93.3897 79.96 93.5397 79.88C94.3197 79.43 95.1097 78.97 95.8797 78.5C97.5397 77.48 99.2297 76.5 100.79 75.32C102.07 74.36 103.21 73.24 104.44 72.24C105.9 71.06 107.37 69.88 108.83 68.71C108.9 68.65 108.99 68.62 109.09 68.57C109.1 68.81 108.93 68.92 108.82 69.06C107.5 70.68 106.19 72.31 104.69 73.78C104.15 74.31 103.7 74.93 103.28 75.57C102.99 76.01 102.68 76.43 102.34 76.83C99.7997 79.8 98.2797 83.24 97.5097 87.04C97.2597 88.3 97.1097 89.58 96.8297 90.83C96.7597 91.16 96.7897 91.53 96.7497 91.89C96.7397 91.98 96.7797 92.08 96.8797 92.12C96.9797 92.16 97.0697 92.11 97.1397 92.04C97.2197 91.96 97.2897 91.86 97.3597 91.76C98.2497 90.5 99.1297 89.23 100.03 87.97C101.65 85.68 102.86 83.17 103.81 80.55C104.28 79.23 104.62 77.86 104.96 76.5C105.23 75.41 105.57 74.35 105.95 73.3C106.06 72.98 106.25 72.71 106.45 72.44C108.99 69.2 111.64 66.06 114.52 63.11C114.68 62.94 114.85 62.78 115.06 62.57C115.03 62.91 114.84 63.07 114.71 63.26C113.81 64.58 112.91 65.89 112.01 67.2C110.16 69.88 109.09 72.85 108.73 76.08C108.37 79.37 107.98 82.65 107.6 85.94C107.59 86.03 107.57 86.13 107.58 86.22C107.6 86.47 107.78 86.56 107.96 86.41C108.12 86.27 108.27 86.11 108.37 85.92C109.79 83.39 111.46 81 112.73 78.38C113.78 76.21 114.43 73.89 115.05 71.56C115.75 68.9 116.11 66.19 116.16 63.45C116.17 62.86 116.12 62.27 116.24 61.68C116.29 61.43 116.39 61.25 116.57 61.08C119.09 58.72 121.7 56.48 124.49 54.44C124.62 54.35 124.75 54.23 124.93 54.23C124.98 54.34 124.89 54.41 124.84 54.48C123.43 56.19 122.32 58.11 121.06 59.93C120.32 61 119.89 62.22 119.46 63.43C118.63 65.82 118.06 68.27 117.65 70.77C117.17 73.73 116.62 76.68 116.1 79.63C116.08 79.72 116.05 79.82 116.05 79.91C116.05 80.12 116.22 80.21 116.38 80.09C116.49 80.01 116.58 79.89 116.65 79.77C118.42 76.75 120.49 73.92 122.13 70.82C124.09 67.12 125.69 63.28 126.37 59.12C126.62 57.59 126.73 56.05 126.65 54.5C126.62 54.02 126.75 53.56 126.79 53.08C126.81 52.82 126.99 52.67 127.19 52.52C128.58 51.51 130.01 50.57 131.45 49.65C132.54 48.99 133.64 48.34 134.77 47.64ZM108.71 82.8C108.77 83.26 108.59 83.63 108.35 84C108.45 83.59 108.41 83.15 108.67 82.79C108.62 82.5 108.71 82.25 108.87 82.01C108.9 82.29 108.88 82.56 108.71 82.8ZM128.47 66.04C128.47 65.99 128.46 65.94 128.48 65.9C129.68 63.71 130.54 61.36 131.64 59.13C132.25 57.89 132.74 56.61 133.03 55.25C133.22 54.36 133.5 53.49 133.86 52.53C133.98 52.78 133.94 52.91 133.91 53.04C133.56 54.64 133.19 56.24 132.63 57.78C131.64 60.46 130.42 63.03 128.94 65.48C128.82 65.68 128.74 65.91 128.53 66.05C128.46 66.32 128.35 66.55 127.97 66.78C128.18 66.44 128.23 66.18 128.47 66.04ZM114.75 64.68C114.74 64.77 114.75 64.87 114.72 64.95C113.74 67.37 112.9 69.85 111.83 72.24C110.86 74.42 110.03 76.64 109.69 79.02C109.66 79.23 109.6 79.44 109.54 79.64C109.49 79.82 109.41 80 109.35 80.18C109.26 80.09 109.24 80.02 109.25 79.96C109.61 77.58 110.22 75.26 111.04 73C111.85 70.76 112.87 68.61 113.81 66.43C114.07 65.83 114.29 65.2 114.71 64.67C114.7 64.43 114.8 64.26 115.03 64.04C114.97 64.34 114.92 64.54 114.75 64.68ZM120.35 55.99C119.02 56.83 117.67 57.63 116.26 58.32C115.15 58.87 114.06 59.45 112.93 59.94C111.58 60.53 110.21 61.07 108.84 61.61C106.32 62.6 103.86 63.75 101.28 64.59C99.1597 65.28 96.9697 65.73 94.7097 66.32C95.1397 65.99 95.5397 65.92 95.9097 65.75C98.0397 64.8 100.22 63.99 102.43 63.25C104.98 62.4 107.5 61.49 110 60.5C112.43 59.54 114.8 58.45 117.2 57.4C118.25 56.95 119.3 56.47 120.35 55.99ZM107.63 52.47C107.84 52.34 107.95 52.25 108.08 52.19C110.91 50.66 113.75 49.19 116.79 48.1C120.64 46.72 124.58 46.19 128.64 46.64C128.8 46.66 129 46.6 129.18 46.81C128.75 46.86 128.37 46.91 128 46.95C121.42 47.58 115.06 49.03 109.09 51.98C108.67 52.19 108.24 52.41 107.63 52.47ZM116.91 77.62C118.08 69.91 121.08 62.9 124.89 56.19C122.4 63.4 119.2 70.34 116.91 77.62ZM130.31 47.91C129.37 48.2 128.42 48.4 127.46 48.56C124.26 49.07 121.15 49.95 118.01 50.73C114.9 51.5 111.73 52.05 108.64 52.92C108.44 52.98 108.22 53.08 107.93 52.86C115.25 50.28 122.65 48.46 130.31 47.91ZM110.8 52.75C111.61 52.38 131.21 48.04 131.92 48.09C131.46 48.26 131.12 48.4 130.77 48.5C127.7 49.35 124.64 50.21 121.57 51.04C119.3 51.65 117.02 52.25 114.67 52.49C113.41 52.61 112.17 52.7 110.8 52.75ZM109.45 81.69C109.51 80.11 114.05 66.8 115.01 65.38C114.93 68.56 111.19 79.55 109.45 81.69ZM125.42 56.34C124.3 62.78 121.88 68.71 118.43 74.23C120.76 68.27 123.09 62.3 125.42 56.34ZM96.0297 64.97C99.6097 62.58 103.44 60.98 107.27 59.36C109.7 58.33 117.14 56.1 119.12 55.89C118.97 56.03 118.76 55.98 118.59 56.05C116.83 56.82 115.04 57.52 113.2 58.08C111.27 58.67 109.38 59.39 107.48 60.06C105.87 60.63 104.25 61.19 102.65 61.79C100.75 62.51 99.0097 63.54 97.2097 64.46C96.8497 64.64 96.5297 64.84 96.0297 64.97ZM118.59 75.23C118.58 74.95 118.71 74.8 118.79 74.63C119.27 73.73 119.78 72.84 120.25 71.93C121.52 69.46 122.83 67.01 123.71 64.35C124.6 61.66 125.48 58.97 125.95 56.17C125.98 56.02 125.97 55.84 126.14 55.7C126.27 55.94 126.19 56.17 126.18 56.4C125.94 61.6 124.1 66.28 121.54 70.72C120.77 72.06 119.9 73.34 119.08 74.65C118.96 74.83 118.88 75.06 118.59 75.23ZM118.77 56.39C111.97 59.57 104.95 62.05 97.7697 64.54C100.51 63 103.26 61.88 106.06 60.87C109.06 59.8 112.01 58.62 115.07 57.73C116.31 57.37 117.44 56.68 118.77 56.39ZM100.89 61.9C101.12 61.49 101.39 61.34 101.64 61.17C102.19 60.8 102.74 60.41 103.3 60.07C105.42 58.78 107.59 57.63 110.05 57.07C112.7 56.47 115.39 56.15 118.06 55.7C118.13 55.69 118.15 55.73 118.06 55.85C112.13 56.98 106.38 58.9 100.89 61.9ZM108.66 81.24C108.59 81.22 108.52 81.2 108.45 81.19C108.57 80.28 108.68 79.37 108.8 78.46C109.06 76.48 109.37 74.51 109.92 72.58C110.68 69.91 112.19 67.63 113.74 65.37C113.78 65.32 113.84 65.29 113.93 65.39C113.17 67.09 112.41 68.8 111.65 70.51C110.9 72.21 110.33 73.97 109.78 75.74C109.23 77.54 109.09 79.42 108.66 81.24ZM118.16 70.15C118.21 69.2 118.44 68.28 118.65 67.37C119.11 65.37 119.66 63.4 120.55 61.55C121.56 59.45 123.18 57.74 124.47 55.81C122.06 60.46 119.77 65.15 118.16 70.15ZM94.2497 78.66C98.1997 74.66 108.65 66.58 110.87 65.81C110.11 66.47 109.34 67.13 108.53 67.74C107 68.9 105.39 69.96 103.86 71.12C101.04 73.26 98.2597 75.44 95.5497 77.72C95.1397 78.06 94.7597 78.46 94.2497 78.66ZM115.64 64.92C115.28 71.41 113.04 77.24 109.47 82.61C110.86 79.82 112.35 77.07 113.23 74.06C114.12 71.03 114.96 67.99 115.64 64.92ZM133.02 47.12C132.38 47.39 131.83 47.42 131.29 47.45C128.23 47.62 125.19 48.05 122.16 48.5C120.96 48.68 119.78 48.96 118.61 49.28C116.62 49.82 114.64 50.34 112.53 50.9C115.65 49.05 129.52 46.48 133.02 47.12ZM133.11 50.55C133.07 50.64 133.04 50.73 132.99 50.81C131.46 53.48 130.21 56.28 129.35 59.25C128.9 60.8 128.49 62.37 128.06 63.93C127.73 65.12 127.54 66.35 127.16 67.53C127.05 67.87 126.92 68.19 126.72 68.48C126.68 68.34 126.69 68.22 126.72 68.11C127.27 65.23 128 62.4 128.89 59.61C129.44 57.89 129.97 56.15 130.69 54.49C131.31 53.07 132.08 51.74 133.11 50.55ZM128.04 65.23C129.21 60.17 130.81 55.26 133.52 50.78C132.73 52.48 132.03 54.22 131.45 56C130.67 58.37 129.66 60.67 128.97 63.07C128.76 63.82 128.45 64.54 128.04 65.23ZM97.0397 76.87C101.56 73.07 106.41 69.7 111.18 66.05C110.89 66.47 110.59 66.74 110.28 66.98C109.48 67.62 108.69 68.26 107.87 68.87C106.08 70.21 104.24 71.48 102.56 72.96C101.5 73.89 100.42 74.78 99.2497 75.55C98.5297 76.03 97.8497 76.55 97.0397 76.87ZM97.6097 88.92C97.2097 87.05 100.16 79.85 102.05 78.12C100.27 81.58 98.8497 85.19 97.6097 88.92ZM103.47 77.82C102.9 80.55 99.9297 86.97 98.8497 87.83C100.52 84.5 101.67 81.02 103.47 77.82ZM133.53 51.89C132.83 55.58 131.37 59.01 129.79 62.39C129.74 62.5 129.68 62.6 129.62 62.7C129.61 62.71 129.58 62.72 129.56 62.71C129.47 62.7 129.57 62.62 129.39 62.78C130.8 59.07 132.17 55.48 133.53 51.89ZM108.97 65.99C105.82 67.79 102.89 69.92 100.02 72.12C102.42 69.21 105.63 67.49 108.97 65.99ZM108.06 67.04C104.9 69.29 101.91 71.79 98.6597 73.91C101.52 71.24 104.69 69 108.06 67.04ZM98.2197 88.37C98.7797 85.63 102.25 77.94 103.42 76.78C101.32 80.48 99.9897 84.52 98.2197 88.37ZM102.64 81.66C103.27 79.82 103.89 77.98 104.57 76.01C104.53 76.97 103.23 80.88 102.64 81.66ZM129.08 63.91C129.08 63.67 129.16 63.53 129.36 63.32C129.31 63.61 129.28 63.78 129.08 63.91ZM109.02 81.31C109.04 81.02 109.01 80.86 109.16 80.74C109.21 80.92 109.18 81.06 109.02 81.31ZM97.2797 90.85C97.2497 90.84 97.1797 90.84 97.1797 90.83C97.1597 90.71 97.1797 90.6 97.2997 90.54C97.3297 90.53 97.3997 90.54 97.3997 90.56C97.4297 90.68 97.3697 90.77 97.2797 90.85Z" fill="url(#paint9_linear_30_600)"/>
<path d="M157.45 103.79C156.52 105.23 155.57 106.65 154.55 108.03C154.4 108.23 154.25 108.4 153.99 108.43C153.52 108.47 153.06 108.59 152.57 108.56C151.02 108.47 149.48 108.56 147.95 108.8C143.78 109.45 139.93 111.02 136.22 112.95C133.11 114.56 130.26 116.61 127.23 118.36C127.11 118.43 126.99 118.52 126.91 118.63C126.79 118.79 126.88 118.96 127.09 118.96C127.18 118.96 127.28 118.93 127.37 118.91C130.33 118.41 133.28 117.89 136.24 117.43C138.74 117.05 141.2 116.5 143.59 115.68C144.81 115.27 146.03 114.84 147.1 114.11C148.93 112.87 150.86 111.78 152.58 110.38C152.65 110.32 152.72 110.24 152.83 110.29C152.83 110.47 152.71 110.6 152.62 110.72C150.56 113.49 148.3 116.09 145.92 118.59C145.75 118.77 145.57 118.87 145.32 118.91C144.73 119.03 144.14 118.98 143.55 118.98C140.8 119.01 138.1 119.34 135.43 120.02C133.1 120.62 130.77 121.25 128.59 122.28C125.97 123.52 123.56 125.17 121.02 126.58C120.84 126.68 120.67 126.83 120.53 126.99C120.37 127.18 120.46 127.35 120.71 127.37C120.8 127.38 120.9 127.36 120.99 127.35C124.28 127 127.56 126.63 130.85 126.29C134.09 125.96 137.06 124.91 139.76 123.08C141.08 122.19 142.4 121.3 143.73 120.41C143.92 120.28 144.08 120.09 144.42 120.06C144.21 120.27 144.05 120.43 143.88 120.59C140.91 123.44 137.75 126.07 134.49 128.59C134.22 128.79 133.94 128.98 133.63 129.09C132.57 129.46 131.51 129.8 130.42 130.06C129.06 130.39 127.68 130.72 126.36 131.18C123.72 132.1 121.21 133.3 118.91 134.9C117.64 135.78 116.37 136.66 115.09 137.54C114.99 137.61 114.9 137.68 114.81 137.76C114.74 137.83 114.69 137.91 114.73 138.02C114.77 138.12 114.87 138.16 114.96 138.15C115.31 138.11 115.69 138.15 116.02 138.08C117.28 137.81 118.56 137.68 119.81 137.43C123.62 136.69 127.07 135.2 130.06 132.68C130.46 132.34 130.89 132.04 131.33 131.75C131.97 131.33 132.6 130.89 133.13 130.35C134.61 128.86 136.25 127.56 137.88 126.26C138.02 126.15 138.13 125.99 138.37 126C138.32 126.1 138.28 126.19 138.23 126.26C137.04 127.72 135.86 129.17 134.66 130.63C133.65 131.86 132.52 132.99 131.55 134.26C130.36 135.82 129.37 137.49 128.34 139.15C127.86 139.92 127.4 140.7 126.94 141.48C126.86 141.62 126.78 141.79 126.93 141.94C127.09 142.08 127.23 141.97 127.38 141.87C128.79 140.93 130.18 139.98 131.42 138.82C132.46 137.84 133.49 136.86 134.59 135.94C137.15 133.81 139.19 131.29 140.63 128.26C141.67 126.07 142.82 123.93 143.63 121.63C143.78 121.2 144.06 120.89 144.37 120.6C146.56 118.55 148.61 116.37 150.59 114.12C150.85 113.83 151.06 113.48 151.41 113.23C151.38 113.49 151.24 113.67 151.14 113.85C150.32 115.3 149.48 116.74 148.66 118.19C147.72 119.85 146.77 121.49 145.98 123.24C145.25 124.87 144.49 126.48 143.76 128.11C143.07 129.65 142.39 131.2 141.81 132.79C141.14 134.6 140.72 136.48 140.3 138.36C139.99 139.73 139.66 141.09 139.34 142.46C139.29 142.67 139.22 142.92 139.49 143.01C139.72 143.08 139.8 142.84 139.91 142.69C140.65 141.59 141.4 140.48 142.13 139.37C143.23 137.7 144.32 136.03 145.5 134.42C146.56 132.98 147.54 131.49 148.4 129.93C149.47 128.01 150.21 125.95 150.64 123.78C151.43 119.77 152.19 115.75 152.92 111.73C153.01 111.21 153.21 110.81 153.5 110.41C154.86 108.58 156.16 106.7 157.42 104.79C158.06 103.82 158.57 102.77 159.44 101.75C158.9 102.84 158.45 103.77 158.14 104.78C157.2 107.85 156.23 110.91 155.31 113.99C154.62 116.29 153.93 118.6 153.7 121C153.44 123.7 153.25 126.4 153.18 129.12C153.17 129.35 153.08 129.65 153.37 129.74C153.72 129.85 153.79 129.5 153.9 129.29C155.36 126.51 157.03 123.84 158.26 120.94C158.96 119.3 159.61 117.64 160.13 115.93C161.08 112.76 161.26 109.53 160.99 106.25C160.84 104.4 160.69 102.55 160.6 100.7C160.56 99.93 160.73 99.24 161.09 98.58C162.09 96.76 162.89 94.8501 163.54 92.8801C163.76 92.2301 163.98 91.57 164.07 90.88C164.1 90.66 164.17 90.39 163.85 90.17C163.8 90.73 163.72 91.19 163.58 91.65C162.94 93.78 162.02 95.7901 161.05 97.7701C160.47 98.95 159.54 99.62 158.28 99.9C156.84 100.22 155.39 100.49 153.94 100.76C152.42 101.05 150.91 101.41 149.45 101.93C146.57 102.94 143.8 104.21 141.14 105.71C139.86 106.44 138.6 107.22 137.49 108.2C137.31 108.36 136.99 108.52 137.15 108.83C137.32 109.14 137.62 108.94 137.86 108.89C142.45 108.03 146.93 106.7 151.4 105.38C154.29 104.53 156.78 103 158.92 100.89C159.09 100.73 159.22 100.52 159.52 100.45C158.81 101.62 158.14 102.71 157.45 103.79ZM124.94 126.11C124.7 126.26 124.45 126.35 124.16 126.3C123.8 126.56 123.36 126.52 122.95 126.61C123.32 126.38 123.7 126.2 124.15 126.26C124.39 126.1 124.66 126.09 124.94 126.11ZM140.32 107.14C140.55 106.76 140.78 106.65 141.05 106.59C141.19 106.38 141.42 106.3 141.63 106.18C144.09 104.72 146.67 103.52 149.36 102.55C150.9 102 152.51 101.64 154.11 101.3C154.24 101.27 154.38 101.24 154.62 101.35C153.66 101.71 152.79 101.98 151.9 102.16C150.54 102.43 149.25 102.92 148.01 103.52C145.76 104.6 143.41 105.45 141.21 106.63C141.17 106.65 141.12 106.64 141.07 106.64C140.93 106.89 140.67 106.94 140.32 107.14ZM142.96 120.09C142.74 120.32 142.56 120.42 142.33 120.41C141.8 120.82 141.17 121.04 140.56 121.29C138.37 122.22 136.22 123.22 133.97 124.01C131.7 124.81 129.38 125.41 126.99 125.75C126.93 125.76 126.86 125.74 126.77 125.65C126.95 125.59 127.13 125.52 127.31 125.47C127.52 125.41 127.72 125.35 127.93 125.32C130.31 125 132.54 124.18 134.72 123.23C137.12 122.19 139.6 121.36 142.03 120.4C142.11 120.37 142.21 120.38 142.3 120.37C142.46 120.2 142.66 120.16 142.96 120.09ZM149.6 118C148.54 120.39 147.42 122.75 146.45 125.17C145.45 127.66 144.52 130.18 143.64 132.72C142.88 134.92 142.06 137.1 141.09 139.22C140.92 139.59 140.84 139.99 140.51 140.42C141.12 138.16 141.59 135.98 142.29 133.86C143.15 131.28 144.32 128.84 145.33 126.32C145.88 124.95 146.43 123.58 147.03 122.24C147.54 121.11 148.13 120.02 148.68 118.92C149.38 117.52 150.2 116.18 151.05 114.85C150.57 115.9 150.07 116.94 149.6 118ZM154.97 126.14C157.97 120.2 159.47 113.85 160.15 107.27C160.19 106.9 160.24 106.52 160.3 106.09C160.51 106.27 160.45 106.47 160.47 106.63C160.89 110.7 160.33 114.62 158.92 118.47C157.81 121.5 156.31 124.33 154.76 127.14C154.69 127.26 154.61 127.38 154.47 127.58C154.54 126.99 154.76 126.56 154.97 126.14ZM150.89 110.3C144.15 114.06 137.11 117 129.4 118.11C136.7 115.89 143.66 112.74 150.89 110.3ZM154.09 127.28C153.87 126.99 153.98 126.77 154.04 126.57C154.94 123.49 155.51 120.33 156.31 117.22C157.11 114.09 158.02 110.98 158.55 107.79C158.71 106.83 158.92 105.88 159.22 104.94C158.6 112.61 156.72 119.99 154.09 127.28ZM154.51 120.56C154.76 118.21 155.38 115.94 156.01 113.67C156.87 110.6 157.74 107.55 158.62 104.49C158.72 104.14 158.87 103.8 159.04 103.34C159.08 104.05 154.59 123.62 154.21 124.42C154.28 123.06 154.38 121.81 154.51 120.56ZM141.62 120.11C140.2 121.06 126.85 125.49 125.27 125.54C127.42 123.82 138.44 120.16 141.62 120.11ZM132.79 116.62C138.34 113.21 144.29 110.84 150.74 109.77C144.76 112.06 138.78 114.34 132.79 116.62ZM142.39 137.94C143.32 136.15 144.37 134.41 145.1 132.52C145.72 130.93 146.29 129.31 146.87 127.71C147.56 125.81 148.29 123.93 148.9 122.01C149.48 120.17 150.19 118.39 150.97 116.64C151.05 116.46 151 116.26 151.14 116.11C150.92 118.08 148.63 125.51 147.58 127.93C145.92 131.74 144.3 135.56 141.88 139.12C142.01 138.6 142.21 138.27 142.39 137.94ZM132.39 115.97C133.7 115.15 134.99 114.3 136.34 113.54C140.8 111.01 145.5 109.21 150.69 109.01C150.91 109 151.15 108.92 151.39 109.05C151.25 109.22 151.07 109.21 150.92 109.24C148.11 109.69 145.42 110.55 142.72 111.42C140.05 112.28 137.59 113.57 135.11 114.82C134.2 115.28 133.3 115.78 132.4 116.25C132.23 116.34 132.08 116.46 131.8 116.45C131.97 116.16 132.2 116.09 132.39 115.97ZM149.26 120.12C148.34 123.17 147.14 126.12 146.05 129.11C145.03 131.9 143.88 134.64 142.32 137.37C144.87 130.21 147.41 123.21 150.64 116.43C150.34 117.76 149.64 118.88 149.26 120.12ZM151.17 117.14C151.29 117.05 151.33 117.07 151.32 117.14C150.85 119.81 150.51 122.5 149.89 125.14C149.32 127.59 148.15 129.76 146.84 131.86C146.49 132.42 146.1 132.97 145.72 133.52C145.55 133.77 145.4 134.04 144.98 134.27C148.03 128.79 149.99 123.06 151.17 117.14ZM131.21 125.25C132.99 124.72 134.75 124.16 136.46 123.42C138.18 122.68 139.9 121.92 141.6 121.18C141.7 121.27 141.68 121.33 141.62 121.37C139.35 122.91 137.06 124.4 134.38 125.14C132.45 125.67 130.47 125.96 128.49 126.21C127.58 126.32 126.67 126.43 125.75 126.54C125.73 126.47 125.72 126.4 125.7 126.33C127.53 125.92 129.41 125.79 131.21 125.25ZM151.27 110.74C149.33 112.01 147.61 113.62 145.5 114.61C143.64 115.49 141.66 116.02 139.66 116.46C138.74 116.66 137.82 116.88 136.87 116.92C141.88 115.35 146.6 113.11 151.27 110.74ZM129.13 139.47C131.43 136.78 133.63 134.02 135.79 131.21C136.96 129.69 138.03 128.09 139.21 126.57C139.83 125.77 140.49 125.01 141.16 124.25C140.37 126.47 132.21 136.86 128.18 140.77C128.38 140.26 128.78 139.88 129.13 139.47ZM132.93 121.82C129.91 122.68 127.15 124.15 124.35 125.51C129.74 121.98 135.6 119.79 142.09 119.48C139.01 120.14 135.96 120.95 132.93 121.82ZM156.08 122.71C156.66 120.61 157.19 118.62 157.75 116.64C158.08 115.47 158.37 114.3 158.56 113.1C159.04 110.07 159.49 107.04 159.69 103.98C159.72 103.44 159.77 102.89 160.04 102.25C160.63 105.75 157.96 119.6 156.08 122.71ZM152.64 104.52C150.97 105.23 149.24 105.75 147.51 106.28C144.71 107.15 141.87 107.85 138.99 108.38C138.88 108.4 138.76 108.41 138.62 108.37C138.91 108.17 139.24 108.04 139.57 107.93C140.75 107.56 141.98 107.38 143.18 107.06C144.74 106.64 146.31 106.24 147.87 105.81C150.84 104.98 153.65 103.75 156.33 102.24C156.41 102.19 156.5 102.16 156.59 102.12C155.39 103.15 154.06 103.91 152.64 104.52ZM144.04 106.16C146.45 105.49 148.75 104.5 151.13 103.74C152.92 103.17 154.66 102.49 156.37 101.71C151.87 104.39 146.94 105.94 141.87 107.08C142.56 106.67 143.29 106.37 144.04 106.16ZM131.31 135.8C132.09 134.63 132.99 133.56 133.92 132.51C135.41 130.84 136.69 129.01 138.05 127.23C138.67 126.42 139.32 125.63 139.96 124.84C140.21 124.53 140.48 124.23 140.9 123.94C137.21 128.67 133.81 133.5 129.97 137.99C130.31 137.18 130.84 136.51 131.31 135.8ZM128.78 132.97C127.04 134.84 119.81 137.73 117.95 137.32C121.68 136.11 125.3 134.72 128.78 132.97ZM119.04 136.09C119.91 135.02 126.36 132.09 129.09 131.55C125.88 133.33 122.38 134.45 119.04 136.09ZM144.33 105.75C144.49 105.57 144.42 105.68 144.4 105.58C144.4 105.56 144.4 105.53 144.41 105.52C144.51 105.46 144.61 105.4 144.72 105.36C148.11 103.81 151.55 102.38 155.25 101.71C151.66 103.03 148.05 104.37 144.33 105.75ZM134.76 135.05C136.98 132.19 139.13 129.28 140.96 126.14C139.43 129.48 137.68 132.67 134.76 135.05ZM132.97 136.39C135.11 133.15 137.64 130.19 139.91 127.04C137.92 130.4 135.65 133.55 132.97 136.39ZM130.13 131.62C128.96 132.78 121.24 136.19 118.5 136.73C122.36 134.98 126.41 133.69 130.13 131.62ZM130.91 130.47C128.93 131.13 127.08 131.74 125.24 132.35C126.02 131.76 129.94 130.5 130.91 130.47ZM143.78 105.78C143.58 105.97 143.43 106.05 143.19 106.05C143.34 105.85 143.5 105.82 143.78 105.78ZM126.2 125.83C126.09 125.99 125.93 125.95 125.63 125.97C125.89 125.82 126.03 125.78 126.2 125.83ZM116.3 137.53C116.31 137.53 116.33 137.61 116.32 137.63C116.26 137.75 116.15 137.76 116.03 137.74C116.02 137.74 116.01 137.67 116.01 137.64C116.09 137.55 116.18 137.49 116.3 137.53Z" fill="url(#paint10_linear_30_600)"/>
<path d="M3.29001 6.58C5.10703 6.58 6.57999 5.10702 6.57999 3.29C6.57999 1.47298 5.10703 0 3.29001 0C1.47299 0 0 1.47298 0 3.29C0 5.10702 1.47299 6.58 3.29001 6.58Z" fill="url(#paint11_linear_30_600)"/>
<path d="M14.25 6.58C16.067 6.58 17.54 5.10702 17.54 3.29C17.54 1.47298 16.067 0 14.25 0C12.433 0 10.96 1.47298 10.96 3.29C10.96 5.10702 12.433 6.58 14.25 6.58Z" fill="url(#paint12_linear_30_600)"/>
<path d="M25.2001 6.58C27.0172 6.58 28.4901 5.10702 28.4901 3.29C28.4901 1.47298 27.0172 0 25.2001 0C23.3831 0 21.9102 1.47298 21.9102 3.29C21.9102 5.10702 23.3831 6.58 25.2001 6.58Z" fill="url(#paint13_linear_30_600)"/>
<path d="M36.1601 6.59001C37.9771 6.59001 39.4501 5.11703 39.4501 3.30001C39.4501 1.48299 37.9771 0.0100098 36.1601 0.0100098C34.3431 0.0100098 32.8701 1.48299 32.8701 3.30001C32.8701 5.11703 34.3431 6.59001 36.1601 6.59001Z" fill="url(#paint14_linear_30_600)"/>
<path d="M47.1098 6.59001C48.9268 6.59001 50.3998 5.11703 50.3998 3.30001C50.3998 1.48299 48.9268 0.0100098 47.1098 0.0100098C45.2928 0.0100098 43.8198 1.48299 43.8198 3.30001C43.8198 5.11703 45.2928 6.59001 47.1098 6.59001Z" fill="url(#paint15_linear_30_600)"/>
<defs>
<linearGradient id="paint0_linear_30_600" x1="203.977" y1="266.087" x2="210.22" y2="268.139" gradientUnits="userSpaceOnUse">
<stop stop-color="#FFDF9E"/>
<stop offset="1" stop-color="#873F16"/>
</linearGradient>
<linearGradient id="paint1_linear_30_600" x1="203.977" y1="255.132" x2="210.22" y2="257.184" gradientUnits="userSpaceOnUse">
<stop stop-color="#FFDF9E"/>
<stop offset="1" stop-color="#873F16"/>
</linearGradient>
<linearGradient id="paint2_linear_30_600" x1="203.977" y1="244.178" x2="210.22" y2="246.23" gradientUnits="userSpaceOnUse">
<stop stop-color="#FFDF9E"/>
<stop offset="1" stop-color="#873F16"/>
</linearGradient>
<linearGradient id="paint3_linear_30_600" x1="203.977" y1="233.223" x2="210.22" y2="235.275" gradientUnits="userSpaceOnUse">
<stop stop-color="#FFDF9E"/>
<stop offset="1" stop-color="#873F16"/>
</linearGradient>
<linearGradient id="paint4_linear_30_600" x1="203.977" y1="222.268" x2="210.22" y2="224.32" gradientUnits="userSpaceOnUse">
<stop stop-color="#FFDF9E"/>
<stop offset="1" stop-color="#873F16"/>
</linearGradient>
<linearGradient id="paint5_linear_30_600" x1="238.914" y1="-55.9924" x2="59.3345" y2="215.983" gradientUnits="userSpaceOnUse">
<stop stop-color="#B27229"/>
<stop offset="0.2957" stop-color="#FBD05A"/>
<stop offset="0.6398" stop-color="#F5EE98"/>
<stop offset="0.8817" stop-color="#FBC53E"/>
<stop offset="1" stop-color="#A26227"/>
</linearGradient>
<linearGradient id="paint6_linear_30_600" x1="20.2206" y1="70.8552" x2="238.626" y2="-40.442" gradientUnits="userSpaceOnUse">
<stop stop-color="#B27229"/>
<stop offset="0.2957" stop-color="#FBD05A"/>
<stop offset="0.6398" stop-color="#F5EE98"/>
<stop offset="0.8817" stop-color="#FBC53E"/>
<stop offset="1" stop-color="#A26227"/>
</linearGradient>
<linearGradient id="paint7_linear_30_600" x1="131.713" y1="219.106" x2="254.162" y2="6.74208" gradientUnits="userSpaceOnUse">
<stop stop-color="#B27229"/>
<stop offset="0.2957" stop-color="#FBD05A"/>
<stop offset="0.6398" stop-color="#F5EE98"/>
<stop offset="0.8817" stop-color="#FBC53E"/>
<stop offset="1" stop-color="#A26227"/>
</linearGradient>
<linearGradient id="paint8_linear_30_600" x1="53.3334" y1="133.314" x2="189.488" y2="75.3138" gradientUnits="userSpaceOnUse">
<stop stop-color="#B27229"/>
<stop offset="0.2957" stop-color="#FBD05A"/>
<stop offset="0.6398" stop-color="#F5EE98"/>
<stop offset="0.8817" stop-color="#FBC53E"/>
<stop offset="1" stop-color="#A26227"/>
</linearGradient>
<linearGradient id="paint9_linear_30_600" x1="69.6002" y1="68.2467" x2="190.502" y2="66.8307" gradientUnits="userSpaceOnUse">
<stop stop-color="#B27229"/>
<stop offset="0.2957" stop-color="#FBD05A"/>
<stop offset="0.6398" stop-color="#F5EE98"/>
<stop offset="0.8817" stop-color="#FBC53E"/>
<stop offset="1" stop-color="#A26227"/>
</linearGradient>
<linearGradient id="paint10_linear_30_600" x1="138.392" y1="165.497" x2="140.766" y2="44.611" gradientUnits="userSpaceOnUse">
<stop stop-color="#B27229"/>
<stop offset="0.2957" stop-color="#FBD05A"/>
<stop offset="0.6398" stop-color="#F5EE98"/>
<stop offset="0.8817" stop-color="#FBC53E"/>
<stop offset="1" stop-color="#A26227"/>
</linearGradient>
<linearGradient id="paint11_linear_30_600" x1="4.32025" y1="0.17143" x2="2.26797" y2="6.41461" gradientUnits="userSpaceOnUse">
<stop stop-color="#FFDF9E"/>
<stop offset="1" stop-color="#873F16"/>
</linearGradient>
<linearGradient id="paint12_linear_30_600" x1="15.2749" y1="0.172082" x2="13.2227" y2="6.41526" gradientUnits="userSpaceOnUse">
<stop stop-color="#FFDF9E"/>
<stop offset="1" stop-color="#873F16"/>
</linearGradient>
<linearGradient id="paint13_linear_30_600" x1="26.2298" y1="0.172735" x2="24.1775" y2="6.41591" gradientUnits="userSpaceOnUse">
<stop stop-color="#FFDF9E"/>
<stop offset="1" stop-color="#873F16"/>
</linearGradient>
<linearGradient id="paint14_linear_30_600" x1="37.1845" y1="0.173396" x2="35.1322" y2="6.41657" gradientUnits="userSpaceOnUse">
<stop stop-color="#FFDF9E"/>
<stop offset="1" stop-color="#873F16"/>
</linearGradient>
<linearGradient id="paint15_linear_30_600" x1="48.1389" y1="0.174049" x2="46.0866" y2="6.41723" gradientUnits="userSpaceOnUse">
<stop stop-color="#FFDF9E"/>
<stop offset="1" stop-color="#873F16"/>
</linearGradient>
</defs>
</svg>
